SplineFontDB: 3.0
FontName: Oxygen-Regular
FullName: Oxygen
FamilyName: Oxygen
Weight: Normal
Copyright: Copyright (c) 2011-12 by vernon adams. All rights reserved.
Version: 
ItalicAngle: 0
UnderlinePosition: 0
UnderlineWidth: 0
Ascent: 1638
Descent: 410
UFOAscent: 1638
UFODescent: 410
LayerCount: 2
Layer: 0 0 "Back"  1
Layer: 1 0 "Fore"  0
FSType: 256
OS2Version: 0
OS2_WeightWidthSlopeOnly: 0
OS2_UseTypoMetrics: 0
CreationTime: 1344179173
ModificationTime: 1344191585
PfmFamily: 0
TTFWeight: 400
TTFWidth: 5
LineGap: 0
VLineGap: 0
OS2TypoAscent: 0
OS2TypoAOffset: 1
OS2TypoDescent: 0
OS2TypoDOffset: 1
OS2TypoLinegap: 0
OS2WinAscent: 1950
OS2WinAOffset: 0
OS2WinDescent: 662
OS2WinDOffset: 0
HheadAscent: 0
HheadAOffset: 1
HheadDescent: 0
HheadDOffset: 1
OS2Vendor: 'newt'
DEI: 91125
LangName: 1033 "" "" "" "" "" "Version " "" "Oxygen is a trademark of vernon adams." "vernon adams" "vernon adams" "Copyright (c) 2011 by vernon adams. All rights reserved." "newtypography.co.uk" "newtypography.co.uk" 
PickledData: "(dp1
S'org.robofab.glyphOrder'
p2
(S'A'
S'Aacute'
S'Abreve'
S'Acircumflex'
S'Adieresis'
S'Agrave'
S'Amacron'
S'Aogonek'
S'Aring'
S'Aringacute'
S'Atilde'
S'AE'
S'AEacute'
S'uni01E2'
S'B'
S'C'
S'Cacute'
S'Ccaron'
S'Ccedilla'
S'Ccircumflex'
S'Cdotaccent'
S'D'
S'Eth'
S'Dcaron'
S'Dcroat'
S'E'
S'Eacute'
S'Ebreve'
S'Ecaron'
S'Ecircumflex'
S'Edieresis'
S'Edotaccent'
S'Egrave'
S'Emacron'
S'Eogonek'
S'F'
S'G'
S'Gbreve'
S'Gcaron'
S'Gcircumflex'
S'Gcommaaccent'
S'Gdotaccent'
S'H'
S'Hbar'
S'Hcircumflex'
S'I'
S'IJ'
S'Iacute'
S'Ibreve'
S'Icircumflex'
S'Idieresis'
S'Idotaccent'
S'Igrave'
S'Imacron'
S'Iogonek'
S'Itilde'
S'J'
S'Jcircumflex'
S'K'
S'Kcommaaccent'
S'L'
S'Lacute'
S'Lcaron'
S'Lcommaaccent'
S'Ldot'
S'Lslash'
S'M'
S'N'
S'Nacute'
S'Ncaron'
S'Ncommaaccent'
S'Eng'
S'Ntilde'
S'O'
S'Oacute'
S'Obreve'
S'Ocircumflex'
S'Odieresis'
S'Ograve'
S'Ohorn'
S'Ohungarumlaut'
S'Omacron'
S'Oslash'
S'Oslashacute'
S'Otilde'
S'OE'
S'P'
S'Thorn'
S'Q'
S'R'
S'Racute'
S'Rcaron'
S'Rcommaaccent'

StartChar: .notdef
Encoding: 65536 -1 0
Width: 931
VWidth: 0
Flags: HW
LayerCount: 2
Fore
SplineSet
186 93 m 1
 186 901 l 1
 746 901 l 1
 746 93 l 1
 186 93 l 1
93 0 m 1
 839 0 l 1
 839 994 l 1
 93 994 l 1
 93 0 l 1
EndSplineSet
EndChar

StartChar: A
Encoding: 65 65 1
Width: 1186
VWidth: 0
Flags: HW
LayerCount: 2
Fore
SplineSet
185 0 m 1
 342 430 l 1
 856 430 l 1
 1011 0 l 1
 1176 0 l 1
 693 1346 l 1
 495 1346 l 1
 11 0 l 1
 185 0 l 1
593 1179 m 1
 613 1110 808 561 808 561 c 1
 392 561 l 1
 392 561 575 1119 593 1179 c 1
EndSplineSet
EndChar

StartChar: AE
Encoding: 198 198 2
Width: 1918
VWidth: 0
Flags: HW
LayerCount: 2
Fore
SplineSet
1035 536 m 1
 979 1282 l 1
 536 536 l 1
 1035 536 l 1
1136 1282 m 1
 1171 803 l 1
 1745 803 l 1
 1745 659 l 1
 1189 659 l 1
 1228 144 l 1
 1795 144 l 1
 1795 0 l 1
 1083 0 l 1
 1055 389 l 1
 460 389 l 1
 241 0 l 1
 84 0 l 1
 917 1427 l 1
 1777 1427 l 1
 1777 1282 l 1
 1136 1282 l 1
EndSplineSet
EndChar

StartChar: AEacute
Encoding: 508 508 3
Width: 1918
VWidth: 0
Flags: HW
LayerCount: 2
Fore
SplineSet
1035 536 m 1
 979 1282 l 1
 536 536 l 1
 1035 536 l 1
1136 1282 m 1
 1171 803 l 1
 1745 803 l 1
 1745 659 l 1
 1189 659 l 1
 1228 144 l 1
 1795 144 l 1
 1795 0 l 1
 1083 0 l 1
 1055 389 l 1
 460 389 l 1
 241 0 l 1
 84 0 l 1
 917 1427 l 1
 1777 1427 l 1
 1777 1282 l 1
 1136 1282 l 1
1287 1928 m 1
 992 1575 l 1
 888 1575 l 1
 1057 1928 l 1
 1287 1928 l 1
EndSplineSet
EndChar

StartChar: Aacute
Encoding: 193 193 4
Width: 1344
VWidth: 0
Flags: HW
LayerCount: 2
Fore
SplineSet
1090 0 m 1
 935 430 l 1
 421 430 l 1
 264 0 l 1
 90 0 l 1
 574 1346 l 1
 772 1346 l 1
 1255 0 l 1
 1090 0 l 1
474 561 m 1
 885 561 l 1
 885 561 692 1117 672 1186 c 1
 654 1126 474 561 474 561 c 1
1020 1867 m 1
 724 1514 l 1
 621 1514 l 1
 790 1867 l 1
 1020 1867 l 1
EndSplineSet
EndChar

StartChar: Abreve
Encoding: 258 258 5
Width: 1344
VWidth: 0
Flags: HW
LayerCount: 2
Fore
SplineSet
1091 0 m 1
 936 430 l 1
 422 430 l 1
 265 0 l 1
 91 0 l 1
 575 1346 l 1
 773 1346 l 1
 1256 0 l 1
 1091 0 l 1
475 561 m 1
 885 561 l 1
 885 561 693 1117 673 1186 c 1
 655 1126 475 561 475 561 c 1
431 1555 m 0
 319 1555 205 1633 205 1790 c 1
 310 1790 l 1
 310 1703 365 1662 431 1662 c 0
 497 1662 555 1703 555 1790 c 1
 662 1790 l 1
 662 1633 544 1555 431 1555 c 0
EndSplineSet
EndChar

StartChar: Acircumflex
Encoding: 194 194 6
Width: 1344
VWidth: 0
Flags: HW
LayerCount: 2
Fore
SplineSet
1090 0 m 1
 935 430 l 1
 421 430 l 1
 264 0 l 1
 90 0 l 1
 574 1346 l 1
 772 1346 l 1
 1255 0 l 1
 1090 0 l 1
474 561 m 1
 885 561 l 1
 885 561 692 1117 672 1186 c 1
 654 1126 474 561 474 561 c 1
664 1759 m 1
 518 1512 l 1
 399 1512 l 1
 569 1865 l 1
 763 1865 l 1
 933 1512 l 1
 811 1512 l 1
 664 1759 l 1
EndSplineSet
EndChar

StartChar: Adieresis
Encoding: 196 196 7
Width: 1344
VWidth: 0
Flags: HW
LayerCount: 2
Fore
SplineSet
1090 0 m 1
 935 430 l 1
 421 430 l 1
 264 0 l 1
 90 0 l 1
 574 1346 l 1
 772 1346 l 1
 1255 0 l 1
 1090 0 l 1
474 561 m 1
 885 561 l 1
 885 561 692 1117 672 1186 c 1
 654 1126 474 561 474 561 c 1
920 1707 m 1
 920 1514 l 1
 780 1514 l 1
 780 1707 l 1
 920 1707 l 1
565 1707 m 1
 565 1514 l 1
 425 1514 l 1
 425 1707 l 1
 565 1707 l 1
EndSplineSet
EndChar

StartChar: Agrave
Encoding: 192 192 8
Width: 1344
VWidth: 0
Flags: HW
LayerCount: 2
Fore
SplineSet
1090 0 m 1
 935 430 l 1
 421 430 l 1
 264 0 l 1
 90 0 l 1
 574 1346 l 1
 772 1346 l 1
 1255 0 l 1
 1090 0 l 1
474 561 m 1
 885 561 l 1
 885 561 692 1117 672 1186 c 1
 654 1126 474 561 474 561 c 1
555 1866 m 1
 723 1514 l 1
 622 1514 l 1
 328 1866 l 1
 555 1866 l 1
EndSplineSet
EndChar

StartChar: Alpha
Encoding: 913 913 9
Width: 1344
VWidth: 0
Flags: HW
LayerCount: 2
Fore
SplineSet
1090 0 m 1
 935 430 l 1
 421 430 l 1
 264 0 l 1
 90 0 l 1
 574 1346 l 1
 772 1346 l 1
 1255 0 l 1
 1090 0 l 1
474 561 m 1
 885 561 l 1
 885 561 692 1117 672 1186 c 1
 654 1126 474 561 474 561 c 1
EndSplineSet
EndChar

StartChar: Alphatonos
Encoding: 902 902 10
Width: 451
VWidth: 0
Flags: HW
LayerCount: 2
Fore
SplineSet
223 484 m 0
 143 484 102 544 102 604 c 0
 102 664 143 724 223 724 c 0
 304 724 344 664 344 604 c 0
 344 544 304 484 223 484 c 0
EndSplineSet
EndChar

StartChar: Amacron
Encoding: 256 256 11
Width: 1344
VWidth: 0
Flags: HW
LayerCount: 2
Fore
SplineSet
1091 0 m 1
 936 430 l 1
 422 430 l 1
 265 0 l 1
 91 0 l 1
 575 1346 l 1
 773 1346 l 1
 1256 0 l 1
 1091 0 l 1
475 561 m 1
 885 561 l 1
 885 561 693 1117 673 1186 c 1
 655 1126 475 561 475 561 c 1
1037 1641 m 1
 1037 1514 l 1
 309 1514 l 1
 309 1641 l 1
 1037 1641 l 1
EndSplineSet
EndChar

StartChar: Aogonek
Encoding: 260 260 12
Width: 1344
VWidth: 0
Flags: HW
LayerCount: 2
Fore
SplineSet
1090 0 m 1
 935 430 l 1
 421 430 l 1
 264 0 l 1
 90 0 l 1
 574 1346 l 1
 772 1346 l 1
 1255 0 l 1
 1090 0 l 1
474 561 m 1
 885 561 l 1
 885 561 692 1117 672 1186 c 1
 654 1126 474 561 474 561 c 1
674 -373 m 0
 576 -373 499 -317 499 -213 c 0
 499 -114 585 -38 672 13 c 1
 776 13 l 1
 681 -57 612 -125 612 -187 c 0
 612 -235 656 -268 693 -268 c 0
 742 -268 771 -257 817 -238 c 1
 817 -344 l 1
 782 -359 723 -373 674 -373 c 0
EndSplineSet
EndChar

StartChar: Aring
Encoding: 197 197 13
Width: 1344
VWidth: 0
Flags: HW
LayerCount: 2
Fore
SplineSet
1090 0 m 1
 935 430 l 1
 421 430 l 1
 264 0 l 1
 90 0 l 1
 574 1346 l 1
 772 1346 l 1
 1255 0 l 1
 1090 0 l 1
474 561 m 1
 885 561 l 1
 885 561 692 1117 672 1186 c 1
 654 1126 474 561 474 561 c 1
674 1354 m 0
 579 1354 496 1417 496 1522 c 0
 496 1630 580 1701 672 1701 c 0
 767 1701 849 1624 849 1522 c 0
 849 1417 764 1354 674 1354 c 0
672 1421 m 0
 718 1421 760 1466 760 1522 c 0
 760 1578 722 1627 672 1627 c 0
 626 1627 583 1578 583 1522 c 0
 583 1461 616 1421 672 1421 c 0
EndSplineSet
EndChar

StartChar: Aringacute
Encoding: 506 506 14
Width: 1344
VWidth: 0
Flags: HW
LayerCount: 2
Fore
SplineSet
1090 0 m 1
 935 430 l 1
 421 430 l 1
 264 0 l 1
 90 0 l 1
 574 1346 l 1
 772 1346 l 1
 1255 0 l 1
 1090 0 l 1
474 561 m 1
 885 561 l 1
 885 561 692 1117 672 1186 c 1
 654 1126 474 561 474 561 c 1
674 1354 m 0
 579 1354 496 1417 496 1522 c 0
 496 1630 580 1701 672 1701 c 0
 767 1701 849 1624 849 1522 c 0
 849 1417 764 1354 674 1354 c 0
672 1421 m 0
 718 1421 760 1466 760 1522 c 0
 760 1578 722 1627 672 1627 c 0
 626 1627 583 1578 583 1522 c 0
 583 1461 616 1421 672 1421 c 0
1020 2202 m 1
 724 1849 l 1
 621 1849 l 1
 790 2202 l 1
 1020 2202 l 1
EndSplineSet
EndChar

StartChar: Atilde
Encoding: 195 195 15
Width: 1344
VWidth: 0
Flags: HW
LayerCount: 2
Fore
SplineSet
1090 0 m 1
 935 430 l 1
 421 430 l 1
 264 0 l 1
 90 0 l 1
 574 1346 l 1
 772 1346 l 1
 1255 0 l 1
 1090 0 l 1
474 561 m 1
 885 561 l 1
 885 561 692 1117 672 1186 c 1
 654 1126 474 561 474 561 c 1
487 1514 m 1
 389 1514 l 1
 389 1650 448 1714 545 1714 c 0
 658 1714 814 1628 814 1628 c 1
 850 1631 853 1676 856 1714 c 1
 956 1714 l 1
 956 1589 916 1514 820 1514 c 0
 738 1514 536 1603 536 1603 c 1
 506 1602 490 1564 487 1514 c 1
EndSplineSet
EndChar

StartChar: B
Encoding: 66 66 16
Width: 1174
VWidth: 0
Flags: HW
LayerCount: 2
Fore
SplineSet
318 1213 m 1
 318 767 l 1
 606 767 l 2
 780 767 891 814 891 991 c 0
 891 1168 765 1213 538 1213 c 2
 318 1213 l 1
318 641 m 1
 318 129 l 1
 599 129 l 2
 825 129 941 209 941 389 c 0
 941 581 811 641 561 641 c 2
 318 641 l 1
160 0 m 1
 160 1346 l 1
 546 1346 l 2
 887 1346 1056 1249 1056 1015 c 0
 1056 949 1039 779 830 713 c 1
 1017 678 1106 544 1106 383 c 0
 1106 145 951 0 630 0 c 2
 160 0 l 1
EndSplineSet
EndChar

StartChar: Beta
Encoding: 914 914 17
Width: 1201
VWidth: 0
Flags: HW
LayerCount: 2
Fore
SplineSet
294 1213 m 1
 294 767 l 1
 582 767 l 2
 756 767 867 814 867 991 c 0
 867 1168 741 1213 514 1213 c 2
 294 1213 l 1
294 641 m 1
 294 129 l 1
 575 129 l 2
 801 129 917 209 917 389 c 0
 917 581 787 641 537 641 c 2
 294 641 l 1
136 0 m 1
 136 1346 l 1
 522 1346 l 2
 863 1346 1032 1249 1032 1015 c 0
 1032 949 1015 779 806 713 c 1
 993 678 1082 544 1082 383 c 0
 1082 145 927 0 606 0 c 2
 136 0 l 1
EndSplineSet
EndChar

StartChar: C
Encoding: 67 67 18
Width: 1171
VWidth: 0
Flags: HW
LayerCount: 2
Fore
SplineSet
705 -18 m 1
 319 -12 89 263 89 678 c 0
 89 1083 330 1366 734 1366 c 0
 893 1366 1018 1330 1117 1266 c 1
 1064 1142 l 1
 975 1196 856 1228 736 1228 c 0
 425 1228 258 991 258 672 c 0
 258 354 409 120 740 120 c 0
 855 120 974 155 1071 202 c 1
 1097 68 l 1
 1010 12 872 -18 723 -18 c 2
 705 -18 l 1
EndSplineSet
EndChar

StartChar: Cacute
Encoding: 262 262 19
Width: 1244
VWidth: 0
Flags: HW
LayerCount: 2
Fore
SplineSet
730 -20 m 1
 344 -14 114 263 114 678 c 0
 114 1083 355 1369 759 1369 c 0
 918 1369 1042 1333 1141 1269 c 1
 1088 1145 l 1
 999 1199 881 1230 761 1230 c 0
 450 1230 282 991 282 672 c 0
 282 354 433 118 764 118 c 0
 879 118 999 153 1096 200 c 1
 1122 66 l 1
 1035 10 897 -20 748 -20 c 2
 730 -20 l 1
975 1870 m 1
 680 1517 l 1
 576 1517 l 1
 745 1870 l 1
 975 1870 l 1
EndSplineSet
EndChar

StartChar: Ccaron
Encoding: 268 268 20
Width: 1244
VWidth: 0
Flags: HW
LayerCount: 2
Fore
SplineSet
730 -20 m 1
 344 -14 114 263 114 678 c 0
 114 1083 355 1369 759 1369 c 0
 918 1369 1042 1333 1141 1269 c 1
 1088 1145 l 1
 999 1199 881 1230 761 1230 c 0
 450 1230 282 991 282 672 c 0
 282 354 433 118 764 118 c 0
 879 118 999 153 1096 200 c 1
 1122 66 l 1
 1035 10 897 -20 748 -20 c 2
 730 -20 l 1
1017 1865 m 1
 847 1512 l 1
 653 1512 l 1
 483 1865 l 1
 602 1865 l 1
 749 1581 l 1
 895 1865 l 1
 1017 1865 l 1
EndSplineSet
EndChar

StartChar: Ccedilla
Encoding: 199 199 21
Width: 1244
VWidth: 0
Flags: HW
LayerCount: 2
Fore
SplineSet
1096 200 m 1
 1122 66 l 1
 1037 12 899 -21 754 -21 c 0
 725 -21 695 -19 665 -16 c 1
 627 -395 l 1
 487 -395 l 1
 589 -7 l 1
 602 -7 l 1
 294 52 114 311 114 678 c 0
 114 1083 355 1369 759 1369 c 0
 918 1369 1042 1333 1141 1269 c 1
 1088 1145 l 1
 999 1199 881 1230 761 1230 c 0
 450 1230 282 991 282 672 c 0
 282 354 433 118 764 118 c 0
 879 118 999 153 1096 200 c 1
EndSplineSet
EndChar

StartChar: Ccircumflex
Encoding: 264 264 22
Width: 1244
VWidth: 0
Flags: HW
LayerCount: 2
Fore
SplineSet
730 -20 m 1
 344 -14 114 263 114 678 c 0
 114 1083 355 1369 759 1369 c 0
 918 1369 1042 1333 1141 1269 c 1
 1088 1145 l 1
 999 1199 881 1230 761 1230 c 0
 450 1230 282 991 282 672 c 0
 282 354 433 118 764 118 c 0
 879 118 999 153 1096 200 c 1
 1122 66 l 1
 1035 10 897 -20 748 -20 c 2
 730 -20 l 1
749 1759 m 1
 602 1512 l 1
 483 1512 l 1
 653 1865 l 1
 847 1865 l 1
 1017 1512 l 1
 895 1512 l 1
 749 1759 l 1
EndSplineSet
EndChar

StartChar: Cdotaccent
Encoding: 266 266 23
Width: 1244
VWidth: 0
Flags: HW
LayerCount: 2
Fore
SplineSet
730 -20 m 1
 344 -14 114 263 114 678 c 0
 114 1083 355 1369 759 1369 c 0
 918 1369 1042 1333 1141 1269 c 1
 1088 1145 l 1
 999 1199 881 1230 761 1230 c 0
 450 1230 282 991 282 672 c 0
 282 354 433 118 764 118 c 0
 879 118 999 153 1096 200 c 1
 1122 66 l 1
 1035 10 897 -20 748 -20 c 2
 730 -20 l 1
551 1517 m 1
 551 1697 l 1
 703 1697 l 1
 703 1517 l 1
 551 1517 l 1
EndSplineSet
EndChar

StartChar: Chi
Encoding: 935 935 24
Width: 1279
VWidth: 0
Flags: HW
LayerCount: 2
Fore
SplineSet
733 679 m 1
 1181 1346 l 1
 999 1346 l 1
 642 816 l 1
 286 1346 l 1
 104 1346 l 1
 551 679 l 1
 104 0 l 1
 286 0 l 1
 642 542 l 1
 999 0 l 1
 1181 0 l 1
 733 679 l 1
EndSplineSet
EndChar

StartChar: D
Encoding: 68 68 25
Width: 1357
VWidth: 0
Flags: HW
LayerCount: 2
Fore
SplineSet
160 0 m 1
 160 1346 l 1
 533 1346 l 2
 974 1346 1267 1142 1267 674 c 0
 1267 229 999 0 560 0 c 2
 160 0 l 1
335 1208 m 1
 335 137 l 1
 555 137 l 2
 906 137 1092 316 1092 670 c 0
 1092 1058 887 1208 529 1208 c 2
 335 1208 l 1
EndSplineSet
EndChar

StartChar: Dcaron
Encoding: 270 270 26
Width: 1359
VWidth: 0
Flags: HW
LayerCount: 2
Fore
SplineSet
136 0 m 1
 136 1346 l 1
 510 1346 l 2
 951 1346 1243 1142 1243 674 c 0
 1243 229 975 0 536 0 c 2
 136 0 l 1
311 1208 m 1
 311 137 l 1
 531 137 l 2
 882 137 1068 316 1068 670 c 0
 1068 1058 863 1208 505 1208 c 2
 311 1208 l 1
856 1866 m 1
 686 1512 l 1
 492 1512 l 1
 322 1866 l 1
 441 1866 l 1
 588 1582 l 1
 734 1866 l 1
 856 1866 l 1
EndSplineSet
EndChar

StartChar: Dcroat
Encoding: 272 272 27
Width: 1490
VWidth: 0
Flags: HW
LayerCount: 2
Fore
SplineSet
223 757 m 1
 223 1361 l 1
 561 1361 l 2
 1031 1361 1374 1197 1374 672 c 0
 1374 219 1084 0 654 0 c 2
 223 0 l 1
 223 634 l 1
 116 634 l 1
 116 757 l 1
 223 757 l 1
384 634 m 1
 384 141 l 1
 671 141 l 2
 1004 141 1202 316 1202 668 c 0
 1202 1097 953 1220 581 1220 c 2
 384 1220 l 1
 384 757 l 1
 604 757 l 1
 604 634 l 1
 384 634 l 1
EndSplineSet
EndChar

StartChar: Delta
Encoding: 916 916 28
Width: 1347
VWidth: 0
Flags: HW
LayerCount: 2
Fore
SplineSet
1044 141 m 1
 674 1188 l 1
 309 141 l 1
 1044 141 l 1
90 0 m 1
 590 1361 l 1
 758 1361 l 1
 1259 0 l 1
 90 0 l 1
EndSplineSet
EndChar

StartChar: E
Encoding: 69 69 29
Width: 1076
VWidth: 0
Flags: HW
LayerCount: 2
Fore
SplineSet
335 1207 m 1
 335 766 l 1
 917 766 l 1
 917 629 l 1
 335 629 l 1
 335 139 l 1
 976 139 l 1
 968 0 l 1
 160 0 l 1
 160 1346 l 1
 976 1346 l 1
 969 1207 l 1
 335 1207 l 1
EndSplineSet
EndChar

StartChar: Eacute
Encoding: 201 201 30
Width: 1074
VWidth: 0
Flags: HW
LayerCount: 2
Fore
SplineSet
311 1207 m 1
 311 766 l 1
 894 766 l 1
 894 629 l 1
 311 629 l 1
 311 139 l 1
 952 139 l 1
 945 0 l 1
 136 0 l 1
 136 1346 l 1
 952 1346 l 1
 945 1207 l 1
 311 1207 l 1
892 1867 m 1
 596 1514 l 1
 492 1514 l 1
 662 1867 l 1
 892 1867 l 1
EndSplineSet
EndChar

StartChar: Ebreve
Encoding: 276 276 31
Width: 1093
VWidth: 0
Flags: HW
LayerCount: 2
Fore
SplineSet
330 1207 m 1
 330 766 l 1
 913 766 l 1
 913 629 l 1
 330 629 l 1
 330 139 l 1
 971 139 l 1
 964 0 l 1
 156 0 l 1
 156 1346 l 1
 971 1346 l 1
 965 1207 l 1
 330 1207 l 1
346 1555 m 0
 234 1555 119 1633 119 1790 c 1
 225 1790 l 1
 225 1703 280 1662 346 1662 c 0
 412 1662 470 1703 470 1790 c 1
 576 1790 l 1
 576 1633 459 1555 346 1555 c 0
EndSplineSet
EndChar

StartChar: Ecaron
Encoding: 282 282 32
Width: 1074
VWidth: 0
Flags: HW
LayerCount: 2
Fore
SplineSet
311 1207 m 1
 311 766 l 1
 894 766 l 1
 894 629 l 1
 311 629 l 1
 311 139 l 1
 952 139 l 1
 945 0 l 1
 136 0 l 1
 136 1346 l 1
 952 1346 l 1
 945 1207 l 1
 311 1207 l 1
829 1865 m 1
 659 1512 l 1
 465 1512 l 1
 295 1865 l 1
 414 1865 l 1
 561 1581 l 1
 707 1865 l 1
 829 1865 l 1
EndSplineSet
EndChar

StartChar: Ecircumflex
Encoding: 202 202 33
Width: 1074
VWidth: 0
Flags: HW
LayerCount: 2
Fore
SplineSet
311 1207 m 1
 311 766 l 1
 894 766 l 1
 894 629 l 1
 311 629 l 1
 311 139 l 1
 952 139 l 1
 945 0 l 1
 136 0 l 1
 136 1346 l 1
 952 1346 l 1
 945 1207 l 1
 311 1207 l 1
561 1759 m 1
 414 1512 l 1
 295 1512 l 1
 465 1865 l 1
 659 1865 l 1
 829 1512 l 1
 707 1512 l 1
 561 1759 l 1
EndSplineSet
EndChar

StartChar: Edieresis
Encoding: 203 203 34
Width: 1074
VWidth: 0
Flags: HW
LayerCount: 2
Fore
SplineSet
311 1207 m 1
 311 766 l 1
 894 766 l 1
 894 629 l 1
 311 629 l 1
 311 139 l 1
 952 139 l 1
 945 0 l 1
 136 0 l 1
 136 1346 l 1
 952 1346 l 1
 945 1207 l 1
 311 1207 l 1
792 1707 m 1
 792 1514 l 1
 652 1514 l 1
 652 1707 l 1
 792 1707 l 1
437 1707 m 1
 437 1514 l 1
 297 1514 l 1
 297 1707 l 1
 437 1707 l 1
EndSplineSet
EndChar

StartChar: Edotaccent
Encoding: 278 278 35
Width: 1074
VWidth: 0
Flags: HW
LayerCount: 2
Fore
SplineSet
311 1207 m 1
 311 766 l 1
 894 766 l 1
 894 629 l 1
 311 629 l 1
 311 139 l 1
 952 139 l 1
 945 0 l 1
 136 0 l 1
 136 1346 l 1
 952 1346 l 1
 945 1207 l 1
 311 1207 l 1
468 1514 m 1
 468 1694 l 1
 621 1694 l 1
 621 1514 l 1
 468 1514 l 1
EndSplineSet
EndChar

StartChar: Egrave
Encoding: 200 200 36
Width: 1074
VWidth: 0
Flags: HW
LayerCount: 2
Fore
SplineSet
311 1207 m 1
 311 766 l 1
 894 766 l 1
 894 629 l 1
 311 629 l 1
 311 139 l 1
 952 139 l 1
 945 0 l 1
 136 0 l 1
 136 1346 l 1
 952 1346 l 1
 945 1207 l 1
 311 1207 l 1
427 1866 m 1
 595 1514 l 1
 493 1514 l 1
 199 1866 l 1
 427 1866 l 1
EndSplineSet
EndChar

StartChar: Emacron
Encoding: 274 274 37
Width: 1074
VWidth: 0
Flags: HW
LayerCount: 2
Fore
SplineSet
311 1207 m 1
 311 766 l 1
 894 766 l 1
 894 629 l 1
 311 629 l 1
 311 139 l 1
 952 139 l 1
 945 0 l 1
 136 0 l 1
 136 1346 l 1
 952 1346 l 1
 945 1207 l 1
 311 1207 l 1
908 1641 m 1
 908 1514 l 1
 180 1514 l 1
 180 1641 l 1
 908 1641 l 1
EndSplineSet
EndChar

StartChar: Eng
Encoding: 330 330 38
Width: 1292
VWidth: 0
Flags: HW
LayerCount: 2
Fore
SplineSet
769 -298 m 0
 744 -298 698 -297 587 -286 c 1
 566 -151 l 1
 690 -158 709 -159 728 -159 c 0
 980 -159 1001 -92 1001 156 c 2
 1001 913 l 2
 1001 1155 934 1236 737 1236 c 0
 539 1236 384 1121 298 991 c 1
 298 0 l 1
 138 0 l 1
 136 1361 l 1
 282 1361 l 1
 298 1168 l 1
 463 1346 627 1383 785 1383 c 0
 1032 1383 1160 1220 1160 918 c 2
 1160 150 l 2
 1160 -130 1098 -298 769 -298 c 0
EndSplineSet
EndChar

StartChar: Eogonek
Encoding: 280 280 39
Width: 1074
VWidth: 0
Flags: HW
LayerCount: 2
Fore
SplineSet
311 1207 m 1
 311 766 l 1
 894 766 l 1
 894 629 l 1
 311 629 l 1
 311 139 l 1
 952 139 l 1
 945 0 l 1
 631 0 l 1
 545 -66 484 -129 484 -187 c 0
 484 -235 527 -268 564 -268 c 0
 613 -268 643 -257 689 -238 c 1
 689 -344 l 1
 654 -359 595 -373 546 -373 c 0
 448 -373 370 -317 370 -213 c 0
 370 -122 443 -50 523 0 c 1
 136 0 l 1
 136 1346 l 1
 952 1346 l 1
 945 1207 l 1
 311 1207 l 1
EndSplineSet
EndChar

StartChar: Epsilon
Encoding: 917 917 40
Width: 1074
VWidth: 0
Flags: HW
LayerCount: 2
Fore
SplineSet
311 1207 m 1
 311 766 l 1
 894 766 l 1
 894 629 l 1
 311 629 l 1
 311 139 l 1
 952 139 l 1
 945 0 l 1
 136 0 l 1
 136 1346 l 1
 952 1346 l 1
 945 1207 l 1
 311 1207 l 1
EndSplineSet
EndChar

StartChar: Epsilontonos
Encoding: 904 904 41
Width: 451
VWidth: 0
Flags: HW
LayerCount: 2
Fore
SplineSet
223 484 m 0
 143 484 102 544 102 604 c 0
 102 664 143 724 223 724 c 0
 304 724 344 664 344 604 c 0
 344 544 304 484 223 484 c 0
EndSplineSet
EndChar

StartChar: Eta
Encoding: 919 919 42
Width: 1320
VWidth: 0
Flags: HW
LayerCount: 2
Fore
SplineSet
1010 768 m 1
 1010 1346 l 1
 1185 1346 l 1
 1185 0 l 1
 1010 0 l 1
 1010 630 l 1
 311 630 l 1
 311 0 l 1
 136 0 l 1
 136 1346 l 1
 311 1346 l 1
 311 768 l 1
 1010 768 l 1
EndSplineSet
EndChar

StartChar: Etatonos
Encoding: 905 905 43
Width: 451
VWidth: 0
Flags: HW
LayerCount: 2
Fore
SplineSet
223 484 m 0
 143 484 102 544 102 604 c 0
 102 664 143 724 223 724 c 0
 304 724 344 664 344 604 c 0
 344 544 304 484 223 484 c 0
EndSplineSet
EndChar

StartChar: Eth
Encoding: 208 208 44
Width: 1490
VWidth: 0
Flags: HW
LayerCount: 2
Fore
SplineSet
223 757 m 1
 223 1361 l 1
 561 1361 l 2
 1031 1361 1374 1197 1374 672 c 0
 1374 219 1084 0 654 0 c 2
 223 0 l 1
 223 634 l 1
 116 634 l 1
 116 757 l 1
 223 757 l 1
384 634 m 1
 384 141 l 1
 671 141 l 2
 1004 141 1202 316 1202 668 c 0
 1202 1097 953 1220 581 1220 c 2
 384 1220 l 1
 384 757 l 1
 604 757 l 1
 604 634 l 1
 384 634 l 1
EndSplineSet
EndChar

StartChar: Euro
Encoding: 8364 8364 45
Width: 1125
VWidth: 0
Flags: HW
LayerCount: 2
Fore
SplineSet
725 -20 m 0
 408 -20 260 261 221 528 c 1
 111 528 l 1
 126 622 l 1
 210 622 l 1
 209 637 208 650 208 665 c 0
 208 700 211 735 213 769 c 1
 110 769 l 1
 127 871 l 1
 228 871 l 1
 274 1172 441 1387 739 1387 c 0
 852 1387 936 1359 1005 1300 c 1
 1004 1137 l 1
 943 1203 858 1246 759 1246 c 0
 552 1246 438 1095 401 871 c 1
 909 871 l 1
 894 769 l 1
 385 769 l 1
 380 724 382 623 380 622 c 1
 880 622 l 1
 871 528 l 1
 396 528 l 1
 421 314 528 123 743 123 c 0
 830 123 918 154 1005 222 c 1
 1004 63 l 1
 924 5 833 -20 725 -20 c 0
EndSplineSet
EndChar

StartChar: F
Encoding: 70 70 46
Width: 975
VWidth: 0
Flags: HW
LayerCount: 2
Fore
SplineSet
335 1207 m 1
 335 742 l 1
 859 742 l 1
 859 609 l 1
 335 609 l 1
 335 0 l 1
 160 0 l 1
 160 1346 l 1
 917 1346 l 1
 911 1207 l 1
 335 1207 l 1
EndSplineSet
EndChar

StartChar: G
Encoding: 71 71 47
Width: 1312
VWidth: 0
Flags: HW
LayerCount: 2
Fore
SplineSet
733 -18 m 0
 315 -18 89 271 89 672 c 0
 89 1078 339 1366 766 1366 c 0
 924 1366 1054 1333 1165 1260 c 1
 1116 1138 l 1
 1024 1191 937 1228 781 1228 c 2
 759 1228 l 1
 424 1221 264 991 264 672 c 0
 264 341 417 120 759 120 c 0
 862 120 964 131 1021 147 c 1
 1021 559 l 1
 731 559 l 1
 736 696 l 1
 1196 696 l 1
 1196 59 l 1
 1056 4 917 -18 733 -18 c 0
EndSplineSet
EndChar

StartChar: Gamma
Encoding: 915 915 48
Width: 1005
VWidth: 0
Flags: HW
LayerCount: 2
Fore
SplineSet
298 1220 m 1
 298 0 l 1
 136 0 l 1
 136 1361 l 1
 930 1361 l 1
 916 1220 l 1
 298 1220 l 1
EndSplineSet
EndChar

StartChar: Gbreve
Encoding: 286 286 49
Width: 1348
VWidth: 0
Flags: HW
LayerCount: 2
Fore
SplineSet
757 -25 m 0
 339 -25 113 271 113 672 c 0
 113 1078 363 1369 790 1369 c 0
 948 1369 1077 1336 1188 1263 c 1
 1139 1140 l 1
 1047 1193 960 1230 804 1230 c 2
 783 1230 l 1
 448 1223 288 991 288 672 c 0
 288 341 441 112 783 112 c 0
 886 112 988 124 1045 140 c 1
 1045 559 l 1
 754 559 l 1
 760 696 l 1
 1219 696 l 1
 1219 53 l 1
 1079 -2 941 -25 757 -25 c 0
558 1555 m 0
 446 1555 331 1633 331 1790 c 1
 437 1790 l 1
 437 1703 492 1662 558 1662 c 0
 624 1662 682 1703 682 1790 c 1
 788 1790 l 1
 788 1633 671 1555 558 1555 c 0
EndSplineSet
EndChar

StartChar: Gcaron
Encoding: 486 486 50
Width: 1348
VWidth: 0
Flags: HW
LayerCount: 2
Fore
SplineSet
757 -25 m 0
 339 -25 113 271 113 672 c 0
 113 1078 363 1369 790 1369 c 0
 948 1369 1077 1336 1188 1263 c 1
 1139 1140 l 1
 1047 1193 960 1230 804 1230 c 2
 783 1230 l 1
 448 1223 288 991 288 672 c 0
 288 341 441 112 783 112 c 0
 886 112 988 124 1045 140 c 1
 1045 559 l 1
 754 559 l 1
 760 696 l 1
 1219 696 l 1
 1219 53 l 1
 1079 -2 941 -25 757 -25 c 0
1060 1865 m 1
 890 1512 l 1
 696 1512 l 1
 526 1865 l 1
 645 1865 l 1
 792 1581 l 1
 938 1865 l 1
 1060 1865 l 1
EndSplineSet
EndChar

StartChar: Gcircumflex
Encoding: 284 284 51
Width: 1348
VWidth: 0
Flags: HW
LayerCount: 2
Fore
SplineSet
757 -25 m 0
 339 -25 113 271 113 672 c 0
 113 1078 363 1369 790 1369 c 0
 948 1369 1077 1336 1188 1263 c 1
 1139 1140 l 1
 1047 1193 960 1230 804 1230 c 2
 783 1230 l 1
 448 1223 288 991 288 672 c 0
 288 341 441 112 783 112 c 0
 886 112 988 124 1045 140 c 1
 1045 559 l 1
 754 559 l 1
 760 696 l 1
 1219 696 l 1
 1219 53 l 1
 1079 -2 941 -25 757 -25 c 0
792 1759 m 1
 645 1512 l 1
 526 1512 l 1
 696 1865 l 1
 890 1865 l 1
 1060 1512 l 1
 938 1512 l 1
 792 1759 l 1
EndSplineSet
EndChar

StartChar: Gcommaaccent
Encoding: 290 290 52
Width: 1348
VWidth: 0
Flags: HW
LayerCount: 2
Fore
SplineSet
757 -25 m 0
 339 -25 113 271 113 672 c 0
 113 1078 363 1369 790 1369 c 0
 948 1369 1077 1336 1188 1263 c 1
 1139 1140 l 1
 1047 1193 960 1230 804 1230 c 2
 783 1230 l 1
 448 1223 288 991 288 672 c 0
 288 341 441 112 783 112 c 0
 886 112 988 124 1045 140 c 1
 1045 559 l 1
 754 559 l 1
 760 696 l 1
 1219 696 l 1
 1219 53 l 1
 1079 -2 941 -25 757 -25 c 0
548 -626 m 1
 634 -173 l 1
 784 -173 l 1
 653 -626 l 1
 548 -626 l 1
EndSplineSet
EndChar

StartChar: Gdotaccent
Encoding: 288 288 53
Width: 1348
VWidth: 0
Flags: HW
LayerCount: 2
Fore
SplineSet
757 -25 m 0
 339 -25 113 271 113 672 c 0
 113 1078 363 1369 790 1369 c 0
 948 1369 1077 1336 1188 1263 c 1
 1139 1140 l 1
 1047 1193 960 1230 804 1230 c 2
 783 1230 l 1
 448 1223 288 991 288 672 c 0
 288 341 441 112 783 112 c 0
 886 112 988 124 1045 140 c 1
 1045 559 l 1
 754 559 l 1
 760 696 l 1
 1219 696 l 1
 1219 53 l 1
 1079 -2 941 -25 757 -25 c 0
590 1517 m 1
 590 1697 l 1
 743 1697 l 1
 743 1517 l 1
 590 1517 l 1
EndSplineSet
EndChar

StartChar: H
Encoding: 72 72 54
Width: 1368
VWidth: 0
Flags: HW
LayerCount: 2
Fore
SplineSet
334 768 m 1
 334 1346 l 1
 160 1346 l 1
 160 0 l 1
 334 0 l 1
 334 630 l 1
 1034 630 l 1
 1034 0 l 1
 1208 0 l 1
 1208 1346 l 1
 1034 1346 l 1
 1034 768 l 1
 334 768 l 1
EndSplineSet
EndChar

StartChar: Hbar
Encoding: 294 294 55
Width: 1458
VWidth: 0
Flags: HW
LayerCount: 2
Fore
SplineSet
357 772 m 1
 1100 772 l 1
 1100 1043 l 1
 357 1043 l 1
 357 772 l 1
196 1138 m 1
 196 1361 l 1
 357 1361 l 1
 357 1138 l 1
 1100 1138 l 1
 1100 1361 l 1
 1261 1361 l 1
 1261 1138 l 1
 1343 1138 l 1
 1343 1043 l 1
 1261 1043 l 1
 1261 0 l 1
 1100 0 l 1
 1100 633 l 1
 357 633 l 1
 357 0 l 1
 196 0 l 1
 196 1043 l 1
 114 1043 l 1
 114 1138 l 1
 196 1138 l 1
EndSplineSet
EndChar

StartChar: Hcircumflex
Encoding: 292 292 56
Width: 1320
VWidth: 0
Flags: HW
LayerCount: 2
Fore
SplineSet
1010 768 m 1
 1010 1346 l 1
 1185 1346 l 1
 1185 0 l 1
 1010 0 l 1
 1010 630 l 1
 311 630 l 1
 311 0 l 1
 136 0 l 1
 136 1346 l 1
 311 1346 l 1
 311 768 l 1
 1010 768 l 1
677 1759 m 1
 531 1512 l 1
 411 1512 l 1
 581 1865 l 1
 775 1865 l 1
 945 1512 l 1
 824 1512 l 1
 677 1759 l 1
EndSplineSet
EndChar

StartChar: I
Encoding: 73 73 57
Width: 491
VWidth: 0
Flags: HW
LayerCount: 2
Fore
SplineSet
158 0 m 1
 158 1346 l 1
 333 1346 l 1
 333 0 l 1
 158 0 l 1
EndSplineSet
EndChar

StartChar: IJ
Encoding: 306 306 58
Width: 1108
VWidth: 0
Flags: HW
LayerCount: 2
Fore
SplineSet
576 -195 m 1
 557 -45 l 1
 624 -45 l 2
 790 -45 799 51 799 186 c 2
 799 1346 l 1
 974 1346 l 1
 974 219 l 2
 974 -61 928 -195 608 -195 c 2
 576 -195 l 1
136 0 m 1
 136 1346 l 1
 311 1346 l 1
 311 0 l 1
 136 0 l 1
EndSplineSet
EndChar

StartChar: Iacute
Encoding: 205 205 59
Width: 586
VWidth: 0
Flags: HW
LayerCount: 2
Fore
SplineSet
136 0 m 1
 136 1346 l 1
 311 1346 l 1
 311 0 l 1
 136 0 l 1
571 1867 m 1
 276 1514 l 1
 172 1514 l 1
 341 1867 l 1
 571 1867 l 1
EndSplineSet
EndChar

StartChar: Ibreve
Encoding: 300 300 60
Width: 706
VWidth: 0
Flags: HW
LayerCount: 2
Fore
SplineSet
396 0 m 1
 396 1346 l 1
 571 1346 l 1
 571 0 l 1
 396 0 l 1
241 1555 m 0
 129 1555 15 1633 15 1790 c 1
 120 1790 l 1
 120 1703 175 1662 241 1662 c 0
 307 1662 365 1703 365 1790 c 1
 471 1790 l 1
 471 1633 354 1555 241 1555 c 0
EndSplineSet
EndChar

StartChar: Icircumflex
Encoding: 206 206 61
Width: 675
VWidth: 0
Flags: HW
LayerCount: 2
Fore
SplineSet
255 0 m 1
 255 1346 l 1
 430 1346 l 1
 430 0 l 1
 255 0 l 1
334 1759 m 1
 187 1512 l 1
 68 1512 l 1
 238 1865 l 1
 432 1865 l 1
 602 1512 l 1
 480 1512 l 1
 334 1759 l 1
EndSplineSet
EndChar

StartChar: Idieresis
Encoding: 207 207 62
Width: 647
VWidth: 0
Flags: HW
LayerCount: 2
Fore
SplineSet
236 0 m 1
 236 1346 l 1
 410 1346 l 1
 410 0 l 1
 236 0 l 1
571 1707 m 1
 571 1514 l 1
 430 1514 l 1
 430 1707 l 1
 571 1707 l 1
216 1707 m 1
 216 1514 l 1
 76 1514 l 1
 76 1707 l 1
 216 1707 l 1
EndSplineSet
EndChar

StartChar: Idotaccent
Encoding: 304 304 63
Width: 448
VWidth: 0
Flags: HW
LayerCount: 2
Fore
SplineSet
137 0 m 1
 137 1346 l 1
 312 1346 l 1
 312 0 l 1
 137 0 l 1
148 1514 m 1
 148 1694 l 1
 301 1694 l 1
 301 1514 l 1
 148 1514 l 1
EndSplineSet
EndChar

StartChar: Igrave
Encoding: 204 204 64
Width: 583
VWidth: 0
Flags: HW
LayerCount: 2
Fore
SplineSet
273 0 m 1
 273 1346 l 1
 448 1346 l 1
 448 0 l 1
 273 0 l 1
243 1866 m 1
 411 1514 l 1
 309 1514 l 1
 15 1866 l 1
 243 1866 l 1
EndSplineSet
EndChar

StartChar: Imacron
Encoding: 298 298 65
Width: 821
VWidth: 0
Flags: HW
LayerCount: 2
Fore
SplineSet
322 0 m 1
 322 1346 l 1
 497 1346 l 1
 497 0 l 1
 322 0 l 1
774 1641 m 1
 774 1514 l 1
 46 1514 l 1
 46 1641 l 1
 774 1641 l 1
EndSplineSet
EndChar

StartChar: Iogonek
Encoding: 302 302 66
Width: 537
VWidth: 0
Flags: HW
LayerCount: 2
Fore
SplineSet
224 0 m 1
 224 1346 l 1
 399 1346 l 1
 399 0 l 1
 346 0 l 1
 260 -66 199 -129 199 -187 c 0
 199 -235 242 -268 279 -268 c 0
 328 -268 358 -257 404 -238 c 1
 404 -344 l 1
 369 -359 310 -373 261 -373 c 0
 163 -373 86 -317 86 -213 c 0
 86 -122 158 -50 238 0 c 1
 224 0 l 1
EndSplineSet
EndChar

StartChar: Iota
Encoding: 921 921 67
Width: 446
VWidth: 0
Flags: HW
LayerCount: 2
Fore
SplineSet
136 0 m 1
 136 1346 l 1
 311 1346 l 1
 311 0 l 1
 136 0 l 1
EndSplineSet
EndChar

StartChar: Iotadieresis
Encoding: 938 938 68
Width: 652
VWidth: 0
Flags: HW
LayerCount: 2
Fore
SplineSet
263 0 m 1
 263 1346 l 1
 438 1346 l 1
 438 0 l 1
 263 0 l 1
563 1692 m 1
 563 1499 l 1
 422 1499 l 1
 422 1692 l 1
 563 1692 l 1
207 1692 m 1
 207 1499 l 1
 67 1499 l 1
 67 1692 l 1
 207 1692 l 1
EndSplineSet
EndChar

StartChar: Iotatonos
Encoding: 906 906 69
Width: 451
VWidth: 0
Flags: HW
LayerCount: 2
Fore
SplineSet
223 484 m 0
 143 484 102 544 102 604 c 0
 102 664 143 724 223 724 c 0
 304 724 344 664 344 604 c 0
 344 544 304 484 223 484 c 0
EndSplineSet
EndChar

StartChar: Itilde
Encoding: 296 296 70
Width: 685
VWidth: 0
Flags: HW
LayerCount: 2
Fore
SplineSet
261 0 m 1
 261 1346 l 1
 436 1346 l 1
 436 0 l 1
 261 0 l 1
163 1514 m 1
 65 1514 l 1
 65 1650 124 1714 221 1714 c 0
 334 1714 490 1628 490 1628 c 1
 526 1631 529 1676 532 1714 c 1
 632 1714 l 1
 632 1589 592 1514 496 1514 c 0
 414 1514 212 1603 212 1603 c 1
 182 1602 166 1564 163 1514 c 1
EndSplineSet
EndChar

StartChar: J
Encoding: 74 74 71
Width: 622
VWidth: 0
Flags: HW
LayerCount: 2
Fore
SplineSet
72 -195 m 1
 53 -45 l 1
 120 -45 l 2
 286 -45 295 51 295 186 c 2
 295 1346 l 1
 470 1346 l 1
 470 219 l 2
 470 -61 424 -195 104 -195 c 2
 72 -195 l 1
EndSplineSet
EndChar

StartChar: Jcircumflex
Encoding: 308 308 72
Width: 743
VWidth: 0
Flags: HW
LayerCount: 2
Fore
SplineSet
109 -195 m 1
 90 -45 l 1
 157 -45 l 2
 323 -45 332 51 332 186 c 2
 332 1346 l 1
 507 1346 l 1
 507 219 l 2
 507 -61 461 -195 141 -195 c 2
 109 -195 l 1
399 1761 m 1
 253 1513 l 1
 134 1513 l 1
 304 1866 l 1
 498 1866 l 1
 668 1513 l 1
 546 1513 l 1
 399 1761 l 1
EndSplineSet
EndChar

StartChar: K
Encoding: 75 75 73
Width: 1153
VWidth: 0
Flags: HW
LayerCount: 2
Fore
SplineSet
902 1346 m 1
 1122 1346 l 1
 577 743 l 1
 1150 0 l 1
 932 0 l 1
 439 646 l 1
 335 543 l 1
 335 0 l 1
 160 0 l 1
 160 1346 l 1
 335 1346 l 1
 335 732 l 1
 902 1346 l 1
EndSplineSet
EndChar

StartChar: Kappa
Encoding: 922 922 74
Width: 1220
VWidth: 0
Flags: HW
LayerCount: 2
Fore
SplineSet
878 1346 m 1
 1098 1346 l 1
 553 743 l 1
 1127 0 l 1
 908 0 l 1
 415 646 l 1
 311 543 l 1
 311 0 l 1
 136 0 l 1
 136 1346 l 1
 311 1346 l 1
 311 732 l 1
 878 1346 l 1
EndSplineSet
EndChar

StartChar: Kcommaaccent
Encoding: 310 310 75
Width: 1220
VWidth: 0
Flags: HW
LayerCount: 2
Fore
SplineSet
878 1346 m 1
 1098 1346 l 1
 553 743 l 1
 1127 0 l 1
 908 0 l 1
 415 646 l 1
 311 543 l 1
 311 0 l 1
 136 0 l 1
 136 1346 l 1
 311 1346 l 1
 311 732 l 1
 878 1346 l 1
513 -602 m 1
 600 -148 l 1
 750 -148 l 1
 619 -602 l 1
 513 -602 l 1
EndSplineSet
EndChar

StartChar: L
Encoding: 76 76 76
Width: 954
VWidth: 0
Flags: HW
LayerCount: 2
Fore
SplineSet
911 140 m 1
 905 0 l 1
 160 0 l 1
 160 1346 l 1
 335 1346 l 1
 335 140 l 1
 911 140 l 1
EndSplineSet
EndChar

StartChar: Lacute
Encoding: 313 313 77
Width: 980
VWidth: 0
Flags: HW
LayerCount: 2
Fore
SplineSet
887 140 m 1
 882 0 l 1
 136 0 l 1
 136 1346 l 1
 311 1346 l 1
 311 140 l 1
 887 140 l 1
859 1867 m 1
 564 1514 l 1
 460 1514 l 1
 630 1867 l 1
 859 1867 l 1
EndSplineSet
EndChar

StartChar: Lambda
Encoding: 923 923 78
Width: 1347
VWidth: 0
Flags: HW
LayerCount: 2
Fore
SplineSet
1094 0 m 1
 674 1188 l 1
 260 0 l 1
 90 0 l 1
 590 1361 l 1
 758 1361 l 1
 1259 0 l 1
 1094 0 l 1
EndSplineSet
EndChar

StartChar: Lcaron
Encoding: 317 317 79
Width: 1420
VWidth: 0
Flags: HW
LayerCount: 2
Fore
SplineSet
887 140 m 1
 882 0 l 1
 136 0 l 1
 136 1346 l 1
 311 1346 l 1
 311 140 l 1
 887 140 l 1
1338 1366 m 1
 1216 936 l 1
 1110 936 l 1
 1194 1366 l 1
 1338 1366 l 1
EndSplineSet
EndChar

StartChar: Lcommaaccent
Encoding: 315 315 80
Width: 979
VWidth: 0
Flags: HW
LayerCount: 2
Fore
SplineSet
887 140 m 1
 882 0 l 1
 136 0 l 1
 136 1346 l 1
 311 1346 l 1
 311 140 l 1
 887 140 l 1
393 -602 m 1
 480 -148 l 1
 630 -148 l 1
 499 -602 l 1
 393 -602 l 1
EndSplineSet
EndChar

StartChar: Ldot
Encoding: 319 319 81
Width: 979
VWidth: 0
Flags: HW
LayerCount: 2
Fore
SplineSet
887 140 m 1
 882 0 l 1
 136 0 l 1
 136 1346 l 1
 311 1346 l 1
 311 140 l 1
 887 140 l 1
435 593 m 1
 435 774 l 1
 588 774 l 1
 588 593 l 1
 435 593 l 1
EndSplineSet
EndChar

StartChar: Lslash
Encoding: 321 321 82
Width: 1096
VWidth: 0
Flags: HW
LayerCount: 2
Fore
SplineSet
246 688 m 1
 246 1361 l 1
 407 1361 l 1
 407 776 l 1
 725 951 l 1
 725 809 l 1
 407 638 l 1
 407 141 l 1
 1005 141 l 1
 994 0 l 1
 246 0 l 1
 246 551 l 1
 111 480 l 1
 111 614 l 1
 246 688 l 1
EndSplineSet
EndChar

StartChar: M
Encoding: 77 77 83
Width: 1601
VWidth: 0
Flags: HW
LayerCount: 2
Fore
SplineSet
1228 1346 m 1
 1441 1346 l 1
 1441 0 l 1
 1282 0 l 1
 1282 799 l 1
 1289 1121 l 1
 1255 1029 l 1
 878 92 l 1
 724 92 l 1
 342 1033 l 1
 308 1125 l 1
 319 795 l 1
 319 0 l 1
 160 0 l 1
 160 1346 l 1
 379 1346 l 1
 801 289 l 1
 1228 1346 l 1
EndSplineSet
EndChar

StartChar: Mu
Encoding: 924 924 84
Width: 1611
VWidth: 0
Flags: HW
LayerCount: 2
Fore
SplineSet
1278 1346 m 1
 1476 1346 l 1
 1476 0 l 1
 1323 0 l 1
 1323 810 l 1
 1330 1132 l 1
 1296 1040 l 1
 885 83 l 1
 731 83 l 1
 312 1044 l 1
 278 1136 l 1
 289 806 l 1
 289 0 l 1
 136 0 l 1
 136 1346 l 1
 340 1346 l 1
 807 274 l 1
 1278 1346 l 1
EndSplineSet
EndChar

StartChar: N
Encoding: 78 78 85
Width: 1426
VWidth: 0
Flags: HW
LayerCount: 2
Fore
SplineSet
1119 219 m 1
 1119 219 1114 509 1114 555 c 2
 1114 1346 l 1
 1267 1346 l 1
 1267 0 l 1
 1088 0 l 1
 829 377 564 747 308 1127 c 1
 308 1127 313 894 313 786 c 2
 313 0 l 1
 160 0 l 1
 160 1346 l 1
 336 1346 l 1
 596 970 861 598 1119 219 c 1
EndSplineSet
EndChar

StartChar: Nacute
Encoding: 323 323 86
Width: 1378
VWidth: 0
Flags: HW
LayerCount: 2
Fore
SplineSet
1096 219 m 1
 1096 219 1090 509 1090 555 c 2
 1090 1346 l 1
 1243 1346 l 1
 1243 0 l 1
 1065 0 l 1
 806 377 540 747 284 1127 c 1
 284 1127 289 894 289 786 c 2
 289 0 l 1
 136 0 l 1
 136 1346 l 1
 312 1346 l 1
 572 970 838 598 1096 219 c 1
1037 1867 m 1
 742 1514 l 1
 638 1514 l 1
 807 1867 l 1
 1037 1867 l 1
EndSplineSet
EndChar

StartChar: Ncaron
Encoding: 327 327 87
Width: 1378
VWidth: 0
Flags: HW
LayerCount: 2
Fore
SplineSet
1096 219 m 1
 1096 219 1090 509 1090 555 c 2
 1090 1346 l 1
 1243 1346 l 1
 1243 0 l 1
 1065 0 l 1
 806 377 540 747 284 1127 c 1
 284 1127 289 894 289 786 c 2
 289 0 l 1
 136 0 l 1
 136 1346 l 1
 312 1346 l 1
 572 970 838 598 1096 219 c 1
975 1866 m 1
 804 1512 l 1
 611 1512 l 1
 440 1866 l 1
 560 1866 l 1
 706 1582 l 1
 853 1866 l 1
 975 1866 l 1
EndSplineSet
EndChar

StartChar: Ncommaaccent
Encoding: 325 325 88
Width: 1378
VWidth: 0
Flags: HW
LayerCount: 2
Fore
SplineSet
1096 219 m 1
 1096 219 1090 509 1090 555 c 2
 1090 1346 l 1
 1243 1346 l 1
 1243 0 l 1
 1065 0 l 1
 806 377 540 747 284 1127 c 1
 284 1127 289 894 289 786 c 2
 289 0 l 1
 136 0 l 1
 136 1346 l 1
 312 1346 l 1
 572 970 838 598 1096 219 c 1
571 -602 m 1
 658 -148 l 1
 808 -148 l 1
 677 -602 l 1
 571 -602 l 1
EndSplineSet
EndChar

StartChar: Ntilde
Encoding: 209 209 89
Width: 1378
VWidth: 0
Flags: HW
LayerCount: 2
Fore
SplineSet
1096 219 m 1
 1096 219 1090 509 1090 555 c 2
 1090 1346 l 1
 1243 1346 l 1
 1243 0 l 1
 1065 0 l 1
 806 377 540 747 284 1127 c 1
 284 1127 289 894 289 786 c 2
 289 0 l 1
 136 0 l 1
 136 1346 l 1
 312 1346 l 1
 572 970 838 598 1096 219 c 1
504 1514 m 1
 406 1514 l 1
 406 1650 465 1714 562 1714 c 0
 675 1714 832 1628 832 1628 c 1
 868 1631 871 1676 874 1714 c 1
 974 1714 l 1
 974 1589 933 1514 837 1514 c 0
 755 1514 553 1603 553 1603 c 1
 523 1602 507 1564 504 1514 c 1
EndSplineSet
EndChar

StartChar: Nu
Encoding: 925 925 90
Width: 1378
VWidth: 0
Flags: HW
LayerCount: 2
Fore
SplineSet
1096 219 m 1
 1096 219 1090 509 1090 555 c 2
 1090 1346 l 1
 1243 1346 l 1
 1243 0 l 1
 1065 0 l 1
 806 377 540 747 284 1127 c 1
 284 1127 289 894 289 786 c 2
 289 0 l 1
 136 0 l 1
 136 1346 l 1
 312 1346 l 1
 572 970 838 598 1096 219 c 1
EndSplineSet
EndChar

StartChar: O
Encoding: 79 79 91
Width: 1459
VWidth: 0
Flags: HW
LayerCount: 2
Fore
SplineSet
730 120 m 0
 412 120 264 349 264 667 c 0
 264 998 420 1228 731 1228 c 0
 1042 1228 1196 997 1196 667 c 0
 1196 349 1048 120 730 120 c 0
1370 667 m 0
 1370 1092 1132 1366 731 1366 c 0
 323 1366 89 1095 89 668 c 0
 89 251 315 -18 730 -18 c 0
 1140 -18 1370 257 1370 667 c 0
EndSplineSet
EndChar

StartChar: OE
Encoding: 338 338 92
Width: 1866
VWidth: 0
Flags: HW
LayerCount: 2
Fore
SplineSet
771 117 m 1
 888 117 1022 176 1066 202 c 1
 1066 1146 l 1
 996 1203 890 1249 763 1249 c 0
 468 1249 293 1020 286 703 c 1
 286 380 415 121 771 117 c 1
770 -21 m 0
 338 -21 113 272 113 702 c 1
 122 1099 383 1387 749 1387 c 0
 884 1387 998 1345 1066 1286 c 1
 1066 1360 l 1
 1726 1360 l 1
 1711 1220 l 1
 1227 1220 l 1
 1227 769 l 1
 1678 769 l 1
 1678 630 l 1
 1227 630 l 1
 1227 142 l 1
 1748 142 l 1
 1734 0 l 1
 1066 0 l 1
 1066 75 l 1
 1027 33 876 -21 770 -21 c 0
EndSplineSet
EndChar

StartChar: Oacute
Encoding: 211 211 93
Width: 1511
VWidth: 0
Flags: HW
LayerCount: 2
Fore
SplineSet
754 118 m 0
 1072 118 1220 349 1220 667 c 0
 1220 997 1066 1228 755 1228 c 0
 444 1228 288 998 288 667 c 0
 288 349 436 118 754 118 c 0
754 -20 m 0
 339 -20 114 251 114 668 c 0
 114 1095 347 1366 755 1366 c 0
 1156 1366 1395 1092 1395 667 c 0
 1395 257 1164 -20 754 -20 c 0
1102 1867 m 1
 806 1514 l 1
 703 1514 l 1
 872 1867 l 1
 1102 1867 l 1
EndSplineSet
EndChar

StartChar: Obreve
Encoding: 334 334 94
Width: 1511
VWidth: 0
Flags: HW
LayerCount: 2
Fore
SplineSet
754 118 m 0
 1072 118 1220 349 1220 667 c 0
 1220 997 1066 1228 755 1228 c 0
 444 1228 288 998 288 667 c 0
 288 349 436 118 754 118 c 0
754 -20 m 0
 339 -20 114 251 114 668 c 0
 114 1095 347 1366 755 1366 c 0
 1156 1366 1395 1092 1395 667 c 0
 1395 257 1164 -20 754 -20 c 0
510 1555 m 0
 398 1555 283 1633 283 1790 c 1
 389 1790 l 1
 389 1703 444 1662 510 1662 c 0
 576 1662 633 1703 633 1790 c 1
 740 1790 l 1
 740 1633 623 1555 510 1555 c 0
EndSplineSet
EndChar

StartChar: Ocircumflex
Encoding: 212 212 95
Width: 1511
VWidth: 0
Flags: HW
LayerCount: 2
Fore
SplineSet
754 118 m 0
 1072 118 1220 349 1220 667 c 0
 1220 997 1066 1228 755 1228 c 0
 444 1228 288 998 288 667 c 0
 288 349 436 118 754 118 c 0
754 -20 m 0
 339 -20 114 251 114 668 c 0
 114 1095 347 1366 755 1366 c 0
 1156 1366 1395 1092 1395 667 c 0
 1395 257 1164 -20 754 -20 c 0
743 1759 m 1
 597 1512 l 1
 478 1512 l 1
 648 1865 l 1
 842 1865 l 1
 1012 1512 l 1
 890 1512 l 1
 743 1759 l 1
EndSplineSet
EndChar

StartChar: Odieresis
Encoding: 214 214 96
Width: 1511
VWidth: 0
Flags: HW
LayerCount: 2
Fore
SplineSet
754 118 m 0
 1072 118 1220 349 1220 667 c 0
 1220 997 1066 1228 755 1228 c 0
 444 1228 288 998 288 667 c 0
 288 349 436 118 754 118 c 0
754 -20 m 0
 339 -20 114 251 114 668 c 0
 114 1095 347 1366 755 1366 c 0
 1156 1366 1395 1092 1395 667 c 0
 1395 257 1164 -20 754 -20 c 0
1003 1707 m 1
 1003 1514 l 1
 861 1514 l 1
 861 1707 l 1
 1003 1707 l 1
646 1707 m 1
 646 1514 l 1
 506 1514 l 1
 506 1707 l 1
 646 1707 l 1
EndSplineSet
EndChar

StartChar: Ograve
Encoding: 210 210 97
Width: 1511
VWidth: 0
Flags: HW
LayerCount: 2
Fore
SplineSet
754 118 m 0
 1072 118 1220 349 1220 667 c 0
 1220 997 1066 1228 755 1228 c 0
 444 1228 288 998 288 667 c 0
 288 349 436 118 754 118 c 0
754 -20 m 0
 339 -20 114 251 114 668 c 0
 114 1095 347 1366 755 1366 c 0
 1156 1366 1395 1092 1395 667 c 0
 1395 257 1164 -20 754 -20 c 0
637 1866 m 1
 805 1514 l 1
 703 1514 l 1
 410 1866 l 1
 637 1866 l 1
EndSplineSet
EndChar

StartChar: Ohorn
Encoding: 416 416 98
Width: 1777
VWidth: 0
Flags: HW
LayerCount: 2
Fore
SplineSet
754 118 m 0
 1072 118 1220 349 1220 667 c 0
 1220 997 1066 1228 755 1228 c 0
 444 1228 288 998 288 667 c 0
 288 349 436 118 754 118 c 0
754 -20 m 0
 339 -20 114 251 114 668 c 0
 114 1095 347 1366 755 1366 c 0
 1156 1366 1395 1092 1395 667 c 0
 1395 257 1164 -20 754 -20 c 0
1552 1052 m 0
 1526 1052 1497 1054 1469 1057 c 1
 1469 1143 l 1
 1483 1143 1499 1141 1514 1141 c 0
 1567 1141 1583 1182 1583 1232 c 0
 1583 1277 1570 1329 1556 1366 c 1
 1662 1366 l 1
 1681 1321 1691 1274 1691 1229 c 0
 1691 1133 1644 1052 1552 1052 c 0
EndSplineSet
EndChar

StartChar: Ohungarumlaut
Encoding: 336 336 99
Width: 1511
VWidth: 0
Flags: HW
LayerCount: 2
Fore
SplineSet
754 118 m 0
 1072 118 1220 349 1220 667 c 0
 1220 997 1066 1228 755 1228 c 0
 444 1228 288 998 288 667 c 0
 288 349 436 118 754 118 c 0
754 -20 m 0
 339 -20 114 251 114 668 c 0
 114 1095 347 1366 755 1366 c 0
 1156 1366 1395 1092 1395 667 c 0
 1395 257 1164 -20 754 -20 c 0
1134 1819 m 1
 906 1514 l 1
 814 1514 l 1
 997 1819 l 1
 1134 1819 l 1
921 1819 m 1
 692 1514 l 1
 602 1514 l 1
 783 1819 l 1
 921 1819 l 1
EndSplineSet
EndChar

StartChar: Omacron
Encoding: 332 332 100
Width: 1511
VWidth: 0
Flags: HW
LayerCount: 2
Fore
SplineSet
754 118 m 0
 1072 118 1220 349 1220 667 c 0
 1220 997 1066 1228 755 1228 c 0
 444 1228 288 998 288 667 c 0
 288 349 436 118 754 118 c 0
754 -20 m 0
 339 -20 114 251 114 668 c 0
 114 1095 347 1366 755 1366 c 0
 1156 1366 1395 1092 1395 667 c 0
 1395 257 1164 -20 754 -20 c 0
1118 1641 m 1
 1118 1514 l 1
 390 1514 l 1
 390 1641 l 1
 1118 1641 l 1
EndSplineSet
EndChar

StartChar: Omega
Encoding: 937 937 101
Width: 1511
VWidth: 0
Flags: HW
LayerCount: 2
Fore
SplineSet
754 118 m 0
 1072 118 1220 349 1220 667 c 0
 1220 997 1066 1228 755 1228 c 0
 444 1228 288 998 288 667 c 0
 288 349 436 118 754 118 c 0
754 -20 m 0
 339 -20 114 251 114 668 c 0
 114 1095 347 1366 755 1366 c 0
 1156 1366 1395 1092 1395 667 c 0
 1395 257 1164 -20 754 -20 c 0
EndSplineSet
EndChar

StartChar: Omegatonos
Encoding: 911 911 102
Width: 451
VWidth: 0
Flags: HW
LayerCount: 2
Fore
SplineSet
223 484 m 0
 143 484 102 544 102 604 c 0
 102 664 143 724 223 724 c 0
 304 724 344 664 344 604 c 0
 344 544 304 484 223 484 c 0
EndSplineSet
EndChar

StartChar: Omicron
Encoding: 927 927 103
Width: 1511
VWidth: 0
Flags: HW
LayerCount: 2
Fore
SplineSet
754 118 m 0
 1072 118 1220 349 1220 667 c 0
 1220 997 1066 1228 755 1228 c 0
 444 1228 288 998 288 667 c 0
 288 349 436 118 754 118 c 0
754 -20 m 0
 339 -20 114 251 114 668 c 0
 114 1095 347 1366 755 1366 c 0
 1156 1366 1395 1092 1395 667 c 0
 1395 257 1164 -20 754 -20 c 0
EndSplineSet
EndChar

StartChar: Omicrontonos
Encoding: 908 908 104
Width: 451
VWidth: 0
Flags: HW
LayerCount: 2
Fore
SplineSet
223 484 m 0
 143 484 102 544 102 604 c 0
 102 664 143 724 223 724 c 0
 304 724 344 664 344 604 c 0
 344 544 304 484 223 484 c 0
EndSplineSet
EndChar

StartChar: Oslash
Encoding: 216 216 105
Width: 1560
VWidth: 0
Flags: HW
LayerCount: 2
Fore
SplineSet
779 138 m 0
 1110 138 1269 390 1269 714 c 0
 1269 923 1199 1104 1056 1203 c 1
 631 157 l 1
 676 144 724 138 779 138 c 0
520 207 m 1
 944 1258 l 1
 895 1274 840 1282 779 1282 c 0
 450 1282 288 1031 288 714 c 0
 288 491 364 302 520 207 c 1
500 -164 m 1
 386 -125 l 1
 456 48 l 1
 231 162 115 406 115 708 c 0
 115 1156 358 1443 779 1443 c 0
 861 1443 937 1432 1006 1411 c 1
 1077 1588 l 1
 1196 1546 l 1
 1121 1362 l 1
 1329 1246 1443 1017 1443 708 c 0
 1443 283 1216 -23 779 -23 c 0
 702 -23 632 -13 568 5 c 1
 500 -164 l 1
EndSplineSet
EndChar

StartChar: Oslashacute
Encoding: 510 510 106
Width: 1560
VWidth: 0
Flags: HW
LayerCount: 2
Fore
SplineSet
779 138 m 0
 1110 138 1269 390 1269 714 c 0
 1269 923 1199 1104 1056 1203 c 1
 631 157 l 1
 676 144 724 138 779 138 c 0
520 207 m 1
 944 1258 l 1
 895 1274 840 1282 779 1282 c 0
 450 1282 288 1031 288 714 c 0
 288 491 364 302 520 207 c 1
500 -164 m 1
 386 -125 l 1
 456 48 l 1
 231 162 115 406 115 708 c 0
 115 1156 358 1443 779 1443 c 0
 861 1443 937 1432 1006 1411 c 1
 1077 1588 l 1
 1196 1546 l 1
 1121 1362 l 1
 1329 1246 1443 1017 1443 708 c 0
 1443 283 1216 -23 779 -23 c 0
 702 -23 632 -13 568 5 c 1
 500 -164 l 1
1061 2052 m 1
 765 1699 l 1
 662 1699 l 1
 831 2052 l 1
 1061 2052 l 1
EndSplineSet
EndChar

StartChar: Otilde
Encoding: 213 213 107
Width: 1511
VWidth: 0
Flags: HW
LayerCount: 2
Fore
SplineSet
754 118 m 0
 1072 118 1220 349 1220 667 c 0
 1220 997 1066 1228 755 1228 c 0
 444 1228 288 998 288 667 c 0
 288 349 436 118 754 118 c 0
754 -20 m 0
 339 -20 114 251 114 668 c 0
 114 1095 347 1366 755 1366 c 0
 1156 1366 1395 1092 1395 667 c 0
 1395 257 1164 -20 754 -20 c 0
568 1514 m 1
 471 1514 l 1
 471 1650 531 1714 628 1714 c 0
 741 1714 895 1628 895 1628 c 1
 931 1631 936 1676 939 1714 c 1
 1037 1714 l 1
 1037 1589 999 1514 903 1514 c 0
 821 1514 619 1603 619 1603 c 1
 589 1602 571 1564 568 1514 c 1
EndSplineSet
EndChar

StartChar: P
Encoding: 80 80 108
Width: 1106
VWidth: 0
Flags: HW
LayerCount: 2
Fore
SplineSet
557 700 m 0
 777 700 859 796 859 976 c 0
 859 1138 734 1201 566 1201 c 2
 335 1201 l 1
 335 702 l 1
 335 702 495 700 557 700 c 0
160 0 m 1
 160 1346 l 1
 570 1346 l 2
 828 1346 1034 1224 1034 979 c 0
 1034 726 886 569 549 569 c 0
 493 569 404 568 335 572 c 1
 335 0 l 1
 160 0 l 1
EndSplineSet
EndChar

StartChar: Phi
Encoding: 934 934 109
Width: 1547
VWidth: 0
Flags: HW
LayerCount: 2
Fore
SplineSet
851 1097 m 1
 851 294 l 1
 1138 320 1264 492 1264 703 c 0
 1264 920 1128 1073 851 1097 c 1
690 294 m 1
 690 1097 l 1
 418 1072 280 921 280 703 c 0
 280 493 406 321 690 294 c 1
851 0 m 1
 690 0 l 1
 690 155 l 1
 308 183 108 410 108 703 c 0
 108 1001 320 1210 690 1236 c 1
 690 1361 l 1
 851 1361 l 1
 851 1236 l 1
 1224 1211 1436 1002 1436 703 c 0
 1436 409 1236 181 851 155 c 1
 851 0 l 1
EndSplineSet
EndChar

StartChar: Pi
Encoding: 928 928 110
Width: 1337
VWidth: 0
Flags: HW
LayerCount: 2
Fore
SplineSet
1041 0 m 1
 1041 1223 l 1
 298 1223 l 1
 298 0 l 1
 136 0 l 1
 136 1361 l 1
 1202 1361 l 1
 1202 0 l 1
 1041 0 l 1
EndSplineSet
EndChar

StartChar: Psi
Encoding: 936 936 111
Width: 451
VWidth: 0
Flags: HW
LayerCount: 2
Fore
SplineSet
223 484 m 0
 143 484 102 544 102 604 c 0
 102 664 143 724 223 724 c 0
 304 724 344 664 344 604 c 0
 344 544 304 484 223 484 c 0
EndSplineSet
EndChar

StartChar: Q
Encoding: 81 81 112
Width: 1459
VWidth: 0
Flags: HW
LayerCount: 2
Fore
SplineSet
730 120 m 0
 1048 120 1196 354 1196 672 c 0
 1196 1002 1042 1228 731 1228 c 0
 420 1228 264 1003 264 672 c 0
 264 354 412 120 730 120 c 0
1233 -318 m 1
 1132 -421 l 1
 1097 -386 913 -164 837 -7 c 1
 805 -12 765 -18 730 -18 c 0
 315 -18 89 256 89 673 c 0
 89 1100 323 1366 731 1366 c 0
 1132 1366 1370 1097 1370 672 c 0
 1370 356 1234 117 984 23 c 1
 1005 -11 1125 -211 1233 -318 c 1
EndSplineSet
EndChar

StartChar: R
Encoding: 82 82 113
Width: 1259
VWidth: 0
Flags: HW
LayerCount: 2
Fore
SplineSet
160 0 m 1
 160 1346 l 1
 604 1346 l 2
 928 1346 1150 1305 1150 998 c 0
 1150 830 1087 718 895 663 c 1
 895 658 952 543 983 475 c 2
 1198 0 l 1
 1016 0 l 1
 835 422 l 2
 800 503.170731707 767 583.326829268 739 630 c 1
 713 628 612 625 581 625 c 0
 564 625 335 627 335 627 c 1
 335 0 l 1
 160 0 l 1
663 759 m 2
 903 759 976 833.948717949 976 996 c 0
 976 1138 895 1205 683 1205 c 2
 335 1205 l 1
 335 759 l 1
 663 759 l 2
EndSplineSet
EndChar

StartChar: Racute
Encoding: 340 340 114
Width: 1281
VWidth: 0
Flags: HW
LayerCount: 2
Fore
SplineSet
136 0 m 1
 136 1346 l 1
 581 1346 l 2
 905 1346 1127 1305 1127 998 c 0
 1127 830 1064 718 872 663 c 1
 872 658 928 543 959 475 c 2
 1174 0 l 1
 992 0 l 1
 812 422 l 2
 777 502 743 581 715 627 c 1
 689 625 589 622 558 622 c 0
 541 622 311 624 311 624 c 1
 311 0 l 1
 136 0 l 1
640 762 m 2
 880 762 952 836 952 996 c 0
 952 1138 872 1205 660 1205 c 2
 311 1205 l 1
 311 762 l 1
 640 762 l 2
1003 1867 m 1
 707 1514 l 1
 603 1514 l 1
 773 1867 l 1
 1003 1867 l 1
EndSplineSet
EndChar

StartChar: Rcaron
Encoding: 344 344 115
Width: 1281
VWidth: 0
Flags: HW
LayerCount: 2
Fore
SplineSet
136 0 m 1
 136 1346 l 1
 581 1346 l 2
 905 1346 1127 1305 1127 998 c 0
 1127 830 1064 718 872 663 c 1
 872 658 928 543 959 475 c 2
 1174 0 l 1
 992 0 l 1
 812 422 l 2
 777 502 743 581 715 627 c 1
 689 625 589 622 558 622 c 0
 541 622 311 624 311 624 c 1
 311 0 l 1
 136 0 l 1
640 762 m 2
 880 762 952 836 952 996 c 0
 952 1138 872 1205 660 1205 c 2
 311 1205 l 1
 311 762 l 1
 640 762 l 2
896 1865 m 1
 726 1512 l 1
 532 1512 l 1
 362 1865 l 1
 481 1865 l 1
 628 1581 l 1
 774 1865 l 1
 896 1865 l 1
EndSplineSet
EndChar

StartChar: Rcommaaccent
Encoding: 342 342 116
Width: 1281
VWidth: 0
Flags: HW
LayerCount: 2
Fore
SplineSet
136 0 m 1
 136 1346 l 1
 581 1346 l 2
 905 1346 1127 1305 1127 998 c 0
 1127 830 1064 718 872 663 c 1
 872 658 928 543 959 475 c 2
 1174 0 l 1
 992 0 l 1
 812 422 l 2
 777 502 743 581 715 627 c 1
 689 625 589 622 558 622 c 0
 541 622 311 624 311 624 c 1
 311 0 l 1
 136 0 l 1
640 762 m 2
 880 762 952 836 952 996 c 0
 952 1138 872 1205 660 1205 c 2
 311 1205 l 1
 311 762 l 1
 640 762 l 2
537 -602 m 1
 623 -148 l 1
 774 -148 l 1
 642 -602 l 1
 537 -602 l 1
EndSplineSet
EndChar

StartChar: Rho
Encoding: 929 929 117
Width: 1120
VWidth: 0
Flags: HW
LayerCount: 2
Fore
SplineSet
533 700 m 0
 753 700 835 796 835 976 c 0
 835 1138 710 1201 542 1201 c 2
 311 1201 l 1
 311 710 l 1
 311 710 471 700 533 700 c 0
136 0 m 1
 136 1346 l 1
 546 1346 l 2
 804 1346 1010 1224 1010 979 c 0
 1010 726 862 569 525 569 c 0
 469 569 380 575 311 581 c 1
 311 0 l 1
 136 0 l 1
EndSplineSet
EndChar

StartChar: S
Encoding: 83 83 118
Width: 1085
VWidth: 0
Flags: HWO
LayerCount: 2
Fore
SplineSet
558 -18 m 4
 336 -18 178 73 101 124 c 5
 147 257 l 5
 257 191 395 120 558 120 c 4
 739 120 854 191 847 366 c 4
 842 475 774 541 614 598 c 6
 389 678 l 6
 218 739 103 829 103 1009 c 4
 103 1274 317 1366 569 1366 c 4
 725 1366 864 1309 950 1251 c 5
 901 1124 l 5
 838 1163 713 1228 575 1228 c 4
 406 1228 259 1173 259 1020 c 4
 259 914 326 865 445 822 c 6
 658 746 l 6
 844 680 998 599 1004 377 c 4
 1012 94 819 -18 558 -18 c 4
EndSplineSet
EndChar

StartChar: Sacute
Encoding: 346 346 119
Width: 1201
VWidth: 0
Flags: HW
LayerCount: 2
Fore
SplineSet
607 -20 m 0
 370 -20 202 40 119 91 c 1
 167 222 l 1
 289 162 443 118 617 118 c 0
 810 118 915 204 915 388 c 0
 915 497 868 570 695 614 c 2
 428 682 l 2
 241 729 121 829 121 1009 c 0
 121 1274 320 1366 618 1366 c 0
 785 1366 932 1336 1025 1278 c 1
 979 1155 l 1
 884 1201 770 1228 623 1228 c 0
 406 1228 288 1173 288 1020 c 0
 288 914 356 856 487 824 c 2
 743 763 l 2
 947 714 1082 615 1082 393 c 0
 1082 110 885 -20 607 -20 c 0
948 1867 m 1
 652 1514 l 1
 549 1514 l 1
 718 1867 l 1
 948 1867 l 1
EndSplineSet
EndChar

StartChar: Scaron
Encoding: 352 352 120
Width: 1201
VWidth: 0
Flags: HW
LayerCount: 2
Fore
SplineSet
607 -20 m 0
 370 -20 202 40 119 91 c 1
 167 222 l 1
 289 162 443 118 617 118 c 0
 810 118 915 204 915 388 c 0
 915 497 868 570 695 614 c 2
 428 682 l 2
 241 729 121 829 121 1009 c 0
 121 1274 320 1366 618 1366 c 0
 785 1366 932 1336 1025 1278 c 1
 979 1155 l 1
 884 1201 770 1228 623 1228 c 0
 406 1228 288 1173 288 1020 c 0
 288 914 356 856 487 824 c 2
 743 763 l 2
 947 714 1082 615 1082 393 c 0
 1082 110 885 -20 607 -20 c 0
883 1865 m 1
 713 1512 l 1
 519 1512 l 1
 349 1865 l 1
 468 1865 l 1
 614 1581 l 1
 761 1865 l 1
 883 1865 l 1
EndSplineSet
EndChar

StartChar: Scedilla
Encoding: 350 350 121
Width: 1200
VWidth: 0
Flags: HW
LayerCount: 2
Fore
SplineSet
639 -19 m 1
 600 -395 l 1
 460 -395 l 1
 559 -19 l 1
 348 -12 196 44 119 91 c 1
 167 222 l 1
 289 162 443 118 617 118 c 0
 810 118 915 204 915 388 c 0
 915 497 868 570 695 614 c 2
 428 682 l 2
 241 729 121 829 121 1009 c 0
 121 1274 320 1366 618 1366 c 0
 785 1366 932 1336 1025 1278 c 1
 979 1155 l 1
 884 1201 770 1228 623 1228 c 0
 406 1228 288 1173 288 1020 c 0
 288 914 356 856 487 824 c 2
 743 763 l 2
 947 714 1082 615 1082 393 c 0
 1082 121 901 -9 639 -19 c 1
EndSplineSet
EndChar

StartChar: Scircumflex
Encoding: 348 348 122
Width: 1201
VWidth: 0
Flags: HW
LayerCount: 2
Fore
SplineSet
607 -20 m 0
 370 -20 202 40 119 91 c 1
 167 222 l 1
 289 162 443 118 617 118 c 0
 810 118 915 204 915 388 c 0
 915 497 868 570 695 614 c 2
 428 682 l 2
 241 729 121 829 121 1009 c 0
 121 1274 320 1366 618 1366 c 0
 785 1366 932 1336 1025 1278 c 1
 979 1155 l 1
 884 1201 770 1228 623 1228 c 0
 406 1228 288 1173 288 1020 c 0
 288 914 356 856 487 824 c 2
 743 763 l 2
 947 714 1082 615 1082 393 c 0
 1082 110 885 -20 607 -20 c 0
614 1759 m 1
 468 1512 l 1
 349 1512 l 1
 519 1865 l 1
 713 1865 l 1
 883 1512 l 1
 761 1512 l 1
 614 1759 l 1
EndSplineSet
EndChar

StartChar: Scommaaccent
Encoding: 536 536 123
Width: 1200
VWidth: 0
Flags: HW
LayerCount: 2
Fore
SplineSet
607 -20 m 0
 370 -20 202 40 119 91 c 1
 167 222 l 1
 289 162 443 118 617 118 c 0
 810 118 915 204 915 388 c 0
 915 497 868 570 695 614 c 2
 428 682 l 2
 241 729 121 829 121 1009 c 0
 121 1274 320 1366 618 1366 c 0
 785 1366 932 1336 1025 1278 c 1
 979 1155 l 1
 884 1201 770 1228 623 1228 c 0
 406 1228 288 1173 288 1020 c 0
 288 914 356 856 487 824 c 2
 743 763 l 2
 947 714 1082 615 1082 393 c 0
 1082 110 885 -20 607 -20 c 0
482 -622 m 1
 569 -168 l 1
 719 -168 l 1
 588 -622 l 1
 482 -622 l 1
EndSplineSet
EndChar

StartChar: Sigma
Encoding: 931 931 124
Width: 1074
VWidth: 0
Flags: HW
LayerCount: 2
Fore
SplineSet
311 1207 m 1
 311 766 l 1
 894 766 l 1
 894 629 l 1
 311 629 l 1
 311 139 l 1
 952 139 l 1
 945 0 l 1
 136 0 l 1
 136 1346 l 1
 952 1346 l 1
 945 1207 l 1
 311 1207 l 1
EndSplineSet
EndChar

StartChar: T
Encoding: 84 84 125
Width: 1081
VWidth: 0
Flags: HW
LayerCount: 2
Fore
SplineSet
1036 1346 m 1
 1036 1207 l 1
 628 1207 l 1
 628 0 l 1
 453 0 l 1
 453 1207 l 1
 46 1207 l 1
 46 1346 l 1
 1036 1346 l 1
EndSplineSet
EndChar

StartChar: Tau
Encoding: 932 932 126
Width: 1147
VWidth: 0
Flags: HW
LayerCount: 2
Fore
SplineSet
1067 1346 m 1
 1067 1207 l 1
 660 1207 l 1
 660 0 l 1
 485 0 l 1
 485 1207 l 1
 77 1207 l 1
 77 1346 l 1
 1067 1346 l 1
EndSplineSet
EndChar

StartChar: Tbar
Encoding: 358 358 127
Width: 1131
VWidth: 0
Flags: HW
LayerCount: 2
Fore
SplineSet
484 595 m 1
 484 1220 l 1
 77 1220 l 1
 77 1361 l 1
 1053 1361 l 1
 1053 1220 l 1
 645 1220 l 1
 645 595 l 1
 793 595 l 1
 793 483 l 1
 645 483 l 1
 645 0 l 1
 484 0 l 1
 484 483 l 1
 330 483 l 1
 330 595 l 1
 484 595 l 1
EndSplineSet
EndChar

StartChar: Tcaron
Encoding: 356 356 128
Width: 1147
VWidth: 0
Flags: HW
LayerCount: 2
Fore
SplineSet
1067 1346 m 1
 1067 1207 l 1
 660 1207 l 1
 660 0 l 1
 485 0 l 1
 485 1207 l 1
 77 1207 l 1
 77 1346 l 1
 1067 1346 l 1
836 1865 m 1
 666 1512 l 1
 472 1512 l 1
 302 1865 l 1
 421 1865 l 1
 568 1581 l 1
 714 1865 l 1
 836 1865 l 1
EndSplineSet
EndChar

StartChar: Tcommaaccent
Encoding: 538 538 129
Width: 1261
VWidth: 0
Flags: W
LayerCount: 2
Fore
SplineSet
1173 1479 m 1
 1173 1326 l 1
 725 1326 l 1
 725 0 l 1
 572 0 l 1
 530 -411 l 1
 376 -411 l 1
 488 15 l 1
 533 15 l 1
 533 1326 l 1
 85 1326 l 1
 85 1479 l 1
 1173 1479 l 1
EndSplineSet
EndChar

StartChar: Theta
Encoding: 920 920 130
Width: 451
VWidth: 0
Flags: HW
LayerCount: 2
Fore
SplineSet
223 484 m 0
 143 484 102 544 102 604 c 0
 102 664 143 724 223 724 c 0
 304 724 344 664 344 604 c 0
 344 544 304 484 223 484 c 0
EndSplineSet
EndChar

StartChar: Thorn
Encoding: 222 222 131
Width: 1213
VWidth: 0
Flags: HW
LayerCount: 2
Fore
SplineSet
298 972 m 1
 298 449 l 1
 647 449 l 2
 873 449 949 560 949 712 c 0
 949 891 859 972 609 972 c 2
 298 972 l 1
298 1361 m 1
 298 1107 l 1
 592 1107 l 2
 920 1107 1103 1008 1103 720 c 0
 1103 478 973 311 657 311 c 0
 650 311 298 318 298 318 c 1
 298 0 l 1
 136 0 l 1
 136 1361 l 1
 298 1361 l 1
EndSplineSet
EndChar

StartChar: U
Encoding: 85 85 132
Width: 1327
VWidth: 0
Flags: HW
LayerCount: 2
Fore
SplineSet
662 -18 m 0
 304 -18 153 196 153 495 c 2
 153 1346 l 1
 328 1346 l 1
 328 492 l 2
 328 248 421 120 662 120 c 0
 897 120 997 248 997 492 c 2
 997 1346 l 1
 1172 1346 l 1
 1172 493 l 2
 1172 195 1020 -18 662 -18 c 0
EndSplineSet
EndChar

StartChar: Uacute
Encoding: 218 218 133
Width: 1282
VWidth: 0
Flags: HW
LayerCount: 2
Fore
SplineSet
642 -20 m 0
 284 -20 132 175 132 474 c 2
 132 1346 l 1
 307 1346 l 1
 307 471 l 2
 307 227 401 118 642 118 c 0
 877 118 976 227 976 471 c 2
 976 1346 l 1
 1151 1346 l 1
 1151 472 l 2
 1151 174 1000 -20 642 -20 c 0
989 1867 m 1
 693 1514 l 1
 590 1514 l 1
 759 1867 l 1
 989 1867 l 1
EndSplineSet
EndChar

StartChar: Ubreve
Encoding: 364 364 134
Width: 1282
VWidth: 0
Flags: HW
LayerCount: 2
Fore
SplineSet
642 -20 m 0
 284 -20 132 175 132 474 c 2
 132 1346 l 1
 307 1346 l 1
 307 471 l 2
 307 227 401 118 642 118 c 0
 877 118 976 227 976 471 c 2
 976 1346 l 1
 1151 1346 l 1
 1151 472 l 2
 1151 174 1000 -20 642 -20 c 0
407 1557 m 0
 295 1557 180 1635 180 1792 c 1
 286 1792 l 1
 286 1705 341 1663 407 1663 c 0
 473 1663 531 1705 531 1792 c 1
 637 1792 l 1
 637 1635 520 1557 407 1557 c 0
EndSplineSet
EndChar

StartChar: Ucircumflex
Encoding: 219 219 135
Width: 1282
VWidth: 0
Flags: HW
LayerCount: 2
Fore
SplineSet
642 -20 m 0
 284 -20 132 175 132 474 c 2
 132 1346 l 1
 307 1346 l 1
 307 471 l 2
 307 227 401 118 642 118 c 0
 877 118 976 227 976 471 c 2
 976 1346 l 1
 1151 1346 l 1
 1151 472 l 2
 1151 174 1000 -20 642 -20 c 0
641 1761 m 1
 494 1513 l 1
 375 1513 l 1
 545 1866 l 1
 739 1866 l 1
 909 1513 l 1
 787 1513 l 1
 641 1761 l 1
EndSplineSet
EndChar

StartChar: Udieresis
Encoding: 220 220 136
Width: 1282
VWidth: 0
Flags: HW
LayerCount: 2
Fore
SplineSet
642 -20 m 0
 284 -20 132 175 132 474 c 2
 132 1346 l 1
 307 1346 l 1
 307 471 l 2
 307 227 401 118 642 118 c 0
 877 118 976 227 976 471 c 2
 976 1346 l 1
 1151 1346 l 1
 1151 472 l 2
 1151 174 1000 -20 642 -20 c 0
890 1707 m 1
 890 1514 l 1
 748 1514 l 1
 748 1707 l 1
 890 1707 l 1
533 1707 m 1
 533 1514 l 1
 393 1514 l 1
 393 1707 l 1
 533 1707 l 1
EndSplineSet
EndChar

StartChar: Ugrave
Encoding: 217 217 137
Width: 1282
VWidth: 0
Flags: HW
LayerCount: 2
Fore
SplineSet
642 -20 m 0
 284 -20 132 175 132 474 c 2
 132 1346 l 1
 307 1346 l 1
 307 471 l 2
 307 227 401 118 642 118 c 0
 877 118 976 227 976 471 c 2
 976 1346 l 1
 1151 1346 l 1
 1151 472 l 2
 1151 174 1000 -20 642 -20 c 0
524 1866 m 1
 693 1514 l 1
 591 1514 l 1
 297 1866 l 1
 524 1866 l 1
EndSplineSet
EndChar

StartChar: Uhorn
Encoding: 431 431 138
Width: 1533
VWidth: 0
Flags: HW
LayerCount: 2
Fore
SplineSet
642 -20 m 0
 284 -20 132 175 132 474 c 2
 132 1346 l 1
 307 1346 l 1
 307 471 l 2
 307 227 401 118 642 118 c 0
 877 118 976 227 976 471 c 2
 976 1346 l 1
 1151 1346 l 1
 1151 472 l 2
 1151 174 1000 -20 642 -20 c 0
1309 1052 m 0
 1283 1052 1253 1054 1225 1057 c 1
 1225 1143 l 1
 1239 1143 1255 1141 1270 1141 c 0
 1323 1141 1340 1182 1340 1232 c 0
 1340 1277 1326 1329 1312 1366 c 1
 1418 1366 l 1
 1437 1321 1447 1274 1447 1229 c 0
 1447 1133 1401 1052 1309 1052 c 0
EndSplineSet
EndChar

StartChar: Uhungarumlaut
Encoding: 368 368 139
Width: 1282
VWidth: 0
Flags: HW
LayerCount: 2
Fore
SplineSet
642 -20 m 0
 284 -20 132 175 132 474 c 2
 132 1346 l 1
 307 1346 l 1
 307 471 l 2
 307 227 401 118 642 118 c 0
 877 118 976 227 976 471 c 2
 976 1346 l 1
 1151 1346 l 1
 1151 472 l 2
 1151 174 1000 -20 642 -20 c 0
1021 1819 m 1
 794 1514 l 1
 701 1514 l 1
 885 1819 l 1
 1021 1819 l 1
808 1819 m 1
 579 1514 l 1
 490 1514 l 1
 670 1819 l 1
 808 1819 l 1
EndSplineSet
EndChar

StartChar: Umacron
Encoding: 362 362 140
Width: 1282
VWidth: 0
Flags: HW
LayerCount: 2
Fore
SplineSet
642 -20 m 0
 284 -20 132 175 132 474 c 2
 132 1346 l 1
 307 1346 l 1
 307 471 l 2
 307 227 401 118 642 118 c 0
 877 118 976 227 976 471 c 2
 976 1346 l 1
 1151 1346 l 1
 1151 472 l 2
 1151 174 1000 -20 642 -20 c 0
1006 1641 m 1
 1006 1514 l 1
 278 1514 l 1
 278 1641 l 1
 1006 1641 l 1
EndSplineSet
EndChar

StartChar: Uogonek
Encoding: 370 370 141
Width: 1282
VWidth: 0
Flags: HW
LayerCount: 2
Fore
SplineSet
592 -393 m 0
 494 -393 416 -337 416 -233 c 0
 416 -140 491 -68 572 -17 c 1
 264 7 132 195 132 474 c 2
 132 1346 l 1
 307 1346 l 1
 307 471 l 2
 307 227 401 118 642 118 c 0
 877 118 976 227 976 471 c 2
 976 1346 l 1
 1151 1346 l 1
 1151 472 l 2
 1151 184 1009 -6 677 -19 c 1
 591 -85 530 -149 530 -207 c 0
 530 -255 573 -288 610 -288 c 0
 659 -288 688 -277 734 -258 c 1
 734 -364 l 1
 699 -379 641 -393 592 -393 c 0
EndSplineSet
EndChar

StartChar: Upsilon
Encoding: 933 933 142
Width: 1248
VWidth: 0
Flags: HW
LayerCount: 2
Fore
SplineSet
623 683 m 1
 1002 1346 l 1
 1177 1346 l 1
 711 537 l 1
 711 0 l 1
 536 0 l 1
 536 533 l 1
 70 1346 l 1
 245 1346 l 1
 623 683 l 1
EndSplineSet
EndChar

StartChar: Upsilondieresis
Encoding: 939 939 143
Width: 1248
VWidth: 0
Flags: HW
LayerCount: 2
Fore
SplineSet
623 683 m 1
 1002 1346 l 1
 1177 1346 l 1
 711 537 l 1
 711 0 l 1
 536 0 l 1
 536 533 l 1
 70 1346 l 1
 245 1346 l 1
 623 683 l 1
798 1692 m 1
 798 1499 l 1
 656 1499 l 1
 656 1692 l 1
 798 1692 l 1
441 1692 m 1
 441 1499 l 1
 301 1499 l 1
 301 1692 l 1
 441 1692 l 1
EndSplineSet
EndChar

StartChar: Upsilontonos
Encoding: 910 910 144
Width: 451
VWidth: 0
Flags: HW
LayerCount: 2
Fore
SplineSet
223 484 m 0
 143 484 102 544 102 604 c 0
 102 664 143 724 223 724 c 0
 304 724 344 664 344 604 c 0
 344 544 304 484 223 484 c 0
EndSplineSet
EndChar

StartChar: Uring
Encoding: 366 366 145
Width: 1282
VWidth: 0
Flags: HW
LayerCount: 2
Fore
SplineSet
642 -20 m 0
 284 -20 132 175 132 474 c 2
 132 1346 l 1
 307 1346 l 1
 307 471 l 2
 307 227 401 118 642 118 c 0
 877 118 976 227 976 471 c 2
 976 1346 l 1
 1151 1346 l 1
 1151 472 l 2
 1151 174 1000 -20 642 -20 c 0
644 1514 m 0
 549 1514 464 1578 464 1683 c 0
 464 1791 550 1861 642 1861 c 0
 737 1861 819 1785 819 1683 c 0
 819 1578 734 1514 644 1514 c 0
642 1581 m 0
 688 1581 730 1627 730 1683 c 0
 730 1739 692 1787 642 1787 c 0
 596 1787 551 1739 551 1683 c 0
 551 1622 586 1581 642 1581 c 0
EndSplineSet
EndChar

StartChar: Utilde
Encoding: 360 360 146
Width: 1282
VWidth: 0
Flags: HW
LayerCount: 2
Fore
SplineSet
642 -20 m 0
 284 -20 132 175 132 474 c 2
 132 1346 l 1
 307 1346 l 1
 307 471 l 2
 307 227 401 118 642 118 c 0
 877 118 976 227 976 471 c 2
 976 1346 l 1
 1151 1346 l 1
 1151 472 l 2
 1151 174 1000 -20 642 -20 c 0
455 1514 m 1
 359 1514 l 1
 359 1650 418 1714 515 1714 c 0
 628 1714 783 1628 783 1628 c 1
 819 1631 823 1676 826 1714 c 1
 925 1714 l 1
 925 1589 886 1514 790 1514 c 0
 708 1514 506 1603 506 1603 c 1
 476 1602 458 1564 455 1514 c 1
EndSplineSet
EndChar

StartChar: V
Encoding: 86 86 147
Width: 1172
VWidth: 0
Flags: HW
LayerCount: 2
Fore
SplineSet
668 0 m 1
 1168 1346 l 1
 988 1346 l 1
 896 1088 688 495 688 495 c 1
 673 458 586 197 586 197 c 1
 586 197 499 454 485 492 c 2
 186 1346 l 1
 4 1346 l 1
 504 0 l 1
 668 0 l 1
EndSplineSet
EndChar

StartChar: W
Encoding: 87 87 148
Width: 1906
VWidth: 0
Flags: HW
LayerCount: 2
Fore
SplineSet
865 1321 m 1
 1043 1321 l 1
 1367 221 l 1
 1696 1346 l 1
 1870 1346 l 1
 1463 0 l 1
 1281 0 l 1
 961 1116 l 1
 619 0 l 1
 440 0 l 1
 36 1346 l 1
 211 1346 l 1
 533 222 l 1
 865 1321 l 1
EndSplineSet
EndChar

StartChar: Wacute
Encoding: 7810 7810 149
Width: 2003
VWidth: 0
Flags: HW
LayerCount: 2
Fore
SplineSet
914 1321 m 1
 1091 1321 l 1
 1415 221 l 1
 1744 1346 l 1
 1918 1346 l 1
 1512 0 l 1
 1330 0 l 1
 1009 1116 l 1
 667 0 l 1
 489 0 l 1
 85 1346 l 1
 259 1346 l 1
 581 222 l 1
 914 1321 l 1
1288 1852 m 1
 991 1499 l 1
 887 1499 l 1
 1057 1852 l 1
 1288 1852 l 1
EndSplineSet
EndChar

StartChar: Wcircumflex
Encoding: 372 372 150
Width: 2003
VWidth: 0
Flags: HW
LayerCount: 2
Fore
SplineSet
914 1321 m 1
 1091 1321 l 1
 1415 221 l 1
 1744 1346 l 1
 1918 1346 l 1
 1512 0 l 1
 1330 0 l 1
 1009 1116 l 1
 667 0 l 1
 489 0 l 1
 85 1346 l 1
 259 1346 l 1
 581 222 l 1
 914 1321 l 1
995 1759 m 1
 848 1512 l 1
 729 1512 l 1
 899 1865 l 1
 1093 1865 l 1
 1263 1512 l 1
 1141 1512 l 1
 995 1759 l 1
EndSplineSet
EndChar

StartChar: Wdieresis
Encoding: 7812 7812 151
Width: 2003
VWidth: 0
Flags: HW
LayerCount: 2
Fore
SplineSet
914 1321 m 1
 1091 1321 l 1
 1415 221 l 1
 1744 1346 l 1
 1918 1346 l 1
 1512 0 l 1
 1330 0 l 1
 1009 1116 l 1
 667 0 l 1
 489 0 l 1
 85 1346 l 1
 259 1346 l 1
 581 222 l 1
 914 1321 l 1
1188 1692 m 1
 1188 1499 l 1
 1046 1499 l 1
 1046 1692 l 1
 1188 1692 l 1
832 1692 m 1
 832 1499 l 1
 692 1499 l 1
 692 1692 l 1
 832 1692 l 1
EndSplineSet
EndChar

StartChar: Wgrave
Encoding: 7808 7808 152
Width: 2003
VWidth: 0
Flags: HW
LayerCount: 2
Fore
SplineSet
914 1321 m 1
 1091 1321 l 1
 1415 221 l 1
 1744 1346 l 1
 1918 1346 l 1
 1512 0 l 1
 1330 0 l 1
 1009 1116 l 1
 667 0 l 1
 489 0 l 1
 85 1346 l 1
 259 1346 l 1
 581 222 l 1
 914 1321 l 1
822 1851 m 1
 991 1499 l 1
 889 1499 l 1
 594 1851 l 1
 822 1851 l 1
EndSplineSet
EndChar

StartChar: X
Encoding: 88 88 153
Width: 1124
VWidth: 0
Flags: HW
LayerCount: 2
Fore
SplineSet
653 679 m 1
 1101 1346 l 1
 919 1346 l 1
 562 816 l 1
 206 1346 l 1
 24 1346 l 1
 471 679 l 1
 24 0 l 1
 206 0 l 1
 562 542 l 1
 919 0 l 1
 1101 0 l 1
 653 679 l 1
EndSplineSet
EndChar

StartChar: Xi
Encoding: 926 926 154
Width: 451
VWidth: 0
Flags: HW
LayerCount: 2
Fore
SplineSet
223 484 m 0
 143 484 102 544 102 604 c 0
 102 664 143 724 223 724 c 0
 304 724 344 664 344 604 c 0
 344 544 304 484 223 484 c 0
EndSplineSet
EndChar

StartChar: Y
Encoding: 89 89 155
Width: 1106
VWidth: 0
Flags: HW
LayerCount: 2
Fore
SplineSet
553 683 m 1
 932 1346 l 1
 1107 1346 l 1
 641 537 l 1
 641 0 l 1
 466 0 l 1
 466 533 l 1
 0 1346 l 1
 175 1346 l 1
 553 683 l 1
EndSplineSet
EndChar

StartChar: Yacute
Encoding: 221 221 156
Width: 1248
VWidth: 0
Flags: HW
LayerCount: 2
Fore
SplineSet
623 683 m 1
 1002 1346 l 1
 1177 1346 l 1
 711 537 l 1
 711 0 l 1
 536 0 l 1
 536 533 l 1
 70 1346 l 1
 245 1346 l 1
 623 683 l 1
971 1867 m 1
 675 1514 l 1
 571 1514 l 1
 741 1867 l 1
 971 1867 l 1
EndSplineSet
EndChar

StartChar: Ycircumflex
Encoding: 374 374 157
Width: 1248
VWidth: 0
Flags: HW
LayerCount: 2
Fore
SplineSet
623 683 m 1
 1002 1346 l 1
 1177 1346 l 1
 711 537 l 1
 711 0 l 1
 536 0 l 1
 536 533 l 1
 70 1346 l 1
 245 1346 l 1
 623 683 l 1
622 1760 m 1
 475 1512 l 1
 356 1512 l 1
 526 1866 l 1
 720 1866 l 1
 890 1512 l 1
 768 1512 l 1
 622 1760 l 1
EndSplineSet
EndChar

StartChar: Ydieresis
Encoding: 376 376 158
Width: 1248
VWidth: 0
Flags: HW
LayerCount: 2
Fore
SplineSet
623 683 m 1
 1002 1346 l 1
 1177 1346 l 1
 711 537 l 1
 711 0 l 1
 536 0 l 1
 536 533 l 1
 70 1346 l 1
 245 1346 l 1
 623 683 l 1
871 1707 m 1
 871 1514 l 1
 731 1514 l 1
 731 1707 l 1
 871 1707 l 1
516 1707 m 1
 516 1514 l 1
 376 1514 l 1
 376 1707 l 1
 516 1707 l 1
EndSplineSet
EndChar

StartChar: Ygrave
Encoding: 7922 7922 159
Width: 1248
VWidth: 0
Flags: HW
LayerCount: 2
Fore
SplineSet
623 683 m 1
 1002 1346 l 1
 1177 1346 l 1
 711 537 l 1
 711 0 l 1
 536 0 l 1
 536 533 l 1
 70 1346 l 1
 245 1346 l 1
 623 683 l 1
432 1851 m 1
 601 1499 l 1
 499 1499 l 1
 205 1851 l 1
 432 1851 l 1
EndSplineSet
EndChar

StartChar: Z
Encoding: 90 90 160
Width: 1088
VWidth: 0
Flags: HW
LayerCount: 2
Fore
SplineSet
103 1346 m 1
 1009 1346 l 1
 1009 1228 l 1
 273 140 l 1
 1016 140 l 1
 1010 0 l 1
 76 0 l 1
 76 124 l 1
 808 1206 l 1
 103 1206 l 1
 103 1346 l 1
EndSplineSet
EndChar

StartChar: Zacute
Encoding: 377 377 161
Width: 1160
VWidth: 0
Flags: HW
LayerCount: 2
Fore
SplineSet
137 1346 m 1
 1044 1346 l 1
 1044 1228 l 1
 308 140 l 1
 1050 140 l 1
 1045 0 l 1
 111 0 l 1
 111 124 l 1
 843 1206 l 1
 137 1206 l 1
 137 1346 l 1
928 1867 m 1
 632 1514 l 1
 529 1514 l 1
 698 1867 l 1
 928 1867 l 1
EndSplineSet
EndChar

StartChar: Zcaron
Encoding: 381 381 162
Width: 1159
VWidth: 0
Flags: HW
LayerCount: 2
Fore
SplineSet
137 1346 m 1
 1044 1346 l 1
 1044 1228 l 1
 308 140 l 1
 1050 140 l 1
 1045 0 l 1
 111 0 l 1
 111 124 l 1
 843 1206 l 1
 137 1206 l 1
 137 1346 l 1
893 1865 m 1
 723 1512 l 1
 529 1512 l 1
 359 1865 l 1
 478 1865 l 1
 624 1581 l 1
 771 1865 l 1
 893 1865 l 1
EndSplineSet
EndChar

StartChar: Zdotaccent
Encoding: 379 379 163
Width: 1159
VWidth: 0
Flags: HW
LayerCount: 2
Fore
SplineSet
137 1346 m 1
 1044 1346 l 1
 1044 1228 l 1
 308 140 l 1
 1050 140 l 1
 1045 0 l 1
 111 0 l 1
 111 124 l 1
 843 1206 l 1
 137 1206 l 1
 137 1346 l 1
504 1514 m 1
 504 1694 l 1
 657 1694 l 1
 657 1514 l 1
 504 1514 l 1
EndSplineSet
EndChar

StartChar: Zeta
Encoding: 918 918 164
Width: 1159
VWidth: 0
Flags: HW
LayerCount: 2
Fore
SplineSet
137 1346 m 1
 1044 1346 l 1
 1044 1228 l 1
 308 140 l 1
 1050 140 l 1
 1045 0 l 1
 111 0 l 1
 111 124 l 1
 843 1206 l 1
 137 1206 l 1
 137 1346 l 1
EndSplineSet
EndChar

StartChar: a
Encoding: 97 97 165
Width: 1053
VWidth: 0
Flags: HW
LayerCount: 2
Fore
SplineSet
780 0 m 1
 921 0 l 1
 921 616 l 2
 921 915.43575419 791 1019 547 1019 c 0
 418 1019 267 981.048192771 181 929 c 1
 228 806 l 1
 322 856.410958904 455 886 551 886 c 0
 694 886 746 808.895522388 746 640 c 2
 746 597 l 1
 746 597 617 587 571 583 c 0
 286 562 106 478 106 263 c 0
 106 75 246 -21 427 -21 c 0
 556 -21 687 21 753 139 c 1
 758 115 775 24 780 0 c 1
280 262 m 0
 280 402 369 447 630 478 c 0
 653 481 746 490 746 490 c 1
 746 322 l 1
 714 185 581 102 440 102 c 0
 357 102 280 152 280 262 c 0
EndSplineSet
EndChar

StartChar: aacute
Encoding: 225 225 166
Width: 1047
VWidth: 0
Flags: HW
LayerCount: 2
Fore
SplineSet
753 139 m 1
 687 21 556 -21 427 -21 c 0
 246 -21 106 75 106 263 c 0
 106 478 286 562 571 583 c 0
 617 587 746 597 746 597 c 1
 746 685 l 2
 746 823 694 886 551 886 c 0
 455 886 322 859 228 813 c 1
 220 832 188 917 181 936 c 1
 267 984 418 1019 547 1019 c 0
 791 1019 921 927 921 661 c 2
 921 0 l 1
 780 0 l 1
 775 24 758 115 753 139 c 1
440 102 m 0
 581 102 714 185 746 322 c 1
 746 490 l 1
 746 490 653 481 630 478 c 0
 369 447 280 402 280 262 c 0
 280 152 357 102 440 102 c 0
861 1521 m 1
 565 1168 l 1
 461 1168 l 1
 631 1521 l 1
 861 1521 l 1
EndSplineSet
EndChar

StartChar: abreve
Encoding: 259 259 167
Width: 1052
VWidth: 0
Flags: HW
LayerCount: 2
Fore
SplineSet
760 139 m 1
 694 21 562 -21 433 -21 c 0
 252 -21 112 75 112 263 c 0
 112 478 293 562 578 583 c 0
 624 587 753 597 753 597 c 1
 753 685 l 2
 753 823 701 886 558 886 c 0
 462 886 329 859 235 813 c 1
 227 832 194 917 187 936 c 1
 273 984 424 1019 553 1019 c 0
 797 1019 927 927 927 661 c 2
 927 0 l 1
 786 0 l 1
 781 24 765 115 760 139 c 1
447 102 m 0
 588 102 721 185 753 322 c 1
 753 490 l 1
 753 490 659 481 636 478 c 0
 375 447 287 402 287 262 c 0
 287 152 364 102 447 102 c 0
518 1168 m 0
 406 1168 291 1245 291 1402 c 1
 397 1402 l 1
 397 1315 452 1274 518 1274 c 0
 584 1274 642 1315 642 1402 c 1
 748 1402 l 1
 748 1245 631 1168 518 1168 c 0
EndSplineSet
EndChar

StartChar: acircumflex
Encoding: 226 226 168
Width: 1047
VWidth: 0
Flags: HW
LayerCount: 2
Fore
SplineSet
753 139 m 1
 687 21 556 -21 427 -21 c 0
 246 -21 106 75 106 263 c 0
 106 478 286 562 571 583 c 0
 617 587 746 597 746 597 c 1
 746 685 l 2
 746 823 694 886 551 886 c 0
 455 886 322 859 228 813 c 1
 220 832 188 917 181 936 c 1
 267 984 418 1019 547 1019 c 0
 791 1019 921 927 921 661 c 2
 921 0 l 1
 780 0 l 1
 775 24 758 115 753 139 c 1
440 102 m 0
 581 102 714 185 746 322 c 1
 746 490 l 1
 746 490 653 481 630 478 c 0
 369 447 280 402 280 262 c 0
 280 152 357 102 440 102 c 0
511 1415 m 1
 366 1168 l 1
 246 1168 l 1
 417 1521 l 1
 610 1521 l 1
 781 1168 l 1
 659 1168 l 1
 511 1415 l 1
EndSplineSet
EndChar

StartChar: acute
Encoding: 180 180 169
Width: 581
VWidth: 0
Flags: HW
LayerCount: 2
Fore
SplineSet
116 1138 m 1
 286 1491 l 1
 516 1491 l 1
 220 1138 l 1
 116 1138 l 1
EndSplineSet
EndChar

StartChar: adieresis
Encoding: 228 228 170
Width: 1054
VWidth: 0
Flags: HW
LayerCount: 2
Fore
SplineSet
761 139 m 1
 695 21 563 -21 434 -21 c 0
 253 -21 113 75 113 263 c 0
 113 478 294 562 579 583 c 0
 625 587 753 597 753 597 c 1
 753 685 l 2
 753 823 702 886 559 886 c 0
 463 886 330 859 236 813 c 1
 228 832 195 917 188 936 c 1
 274 984 425 1019 554 1019 c 0
 798 1019 928 927 928 661 c 2
 928 0 l 1
 787 0 l 1
 782 24 766 115 761 139 c 1
448 102 m 0
 589 102 721 185 753 322 c 1
 753 490 l 1
 753 490 660 481 637 478 c 0
 376 447 288 402 288 262 c 0
 288 152 365 102 448 102 c 0
768 1360 m 1
 768 1168 l 1
 628 1168 l 1
 628 1360 l 1
 768 1360 l 1
413 1360 m 1
 413 1168 l 1
 273 1168 l 1
 273 1360 l 1
 413 1360 l 1
EndSplineSet
EndChar

StartChar: ae
Encoding: 230 230 171
Width: 1587
VWidth: 0
Flags: HW
LayerCount: 2
Fore
SplineSet
848 560 m 1
 1318 586 l 1
 1318 595 l 1
 1316 802 1256 895 1122 895 c 0
 939 895 858 747 848 560 c 1
419 103 m 0
 520 103 652 154 756 189 c 1
 715 264 692 351 687 454 c 1
 667 453 647 452 629 450 c 0
 337 428 266 373 266 265 c 0
 266 144 332 103 419 103 c 0
408 -24 m 0
 250 -24 113 54 113 273 c 0
 113 513 356 543 632 558 c 2
 690 561 l 1
 690 711 l 2
 690 832 645 888 517 888 c 0
 392 888 269 854 193 814 c 1
 160 939 l 1
 233 981 377 1023 513 1023 c 0
 658 1023 775 966 802 848 c 1
 868 967 993 1023 1125 1023 c 0
 1373 1023 1465 827 1465 622 c 0
 1465 535 1442 493 1295 486 c 2
 843 463 l 1
 858 250 933 108 1127 108 c 0
 1244 108 1357 163 1421 208 c 1
 1468 98 l 1
 1394 34 1277 -23 1117 -23 c 0
 986 -23 892 22 819 102 c 1
 712 36 550 -24 408 -24 c 0
EndSplineSet
EndChar

StartChar: aeacute
Encoding: 509 509 172
Width: 1587
VWidth: 0
Flags: HW
LayerCount: 2
Fore
SplineSet
848 560 m 1
 1318 586 l 1
 1318 595 l 1
 1316 802 1256 895 1122 895 c 0
 939 895 858 747 848 560 c 1
419 103 m 0
 520 103 652 154 756 189 c 1
 715 264 692 351 687 454 c 1
 667 453 647 452 629 450 c 0
 337 428 266 373 266 265 c 0
 266 144 332 103 419 103 c 0
408 -24 m 0
 250 -24 113 54 113 273 c 0
 113 513 356 543 632 558 c 2
 690 561 l 1
 690 711 l 2
 690 832 645 888 517 888 c 0
 392 888 269 854 193 814 c 1
 160 939 l 1
 233 981 377 1023 513 1023 c 0
 658 1023 775 966 802 848 c 1
 868 967 993 1023 1125 1023 c 0
 1373 1023 1465 827 1465 622 c 0
 1465 535 1442 493 1295 486 c 2
 843 463 l 1
 858 250 933 108 1127 108 c 0
 1244 108 1357 163 1421 208 c 1
 1468 98 l 1
 1394 34 1277 -23 1117 -23 c 0
 986 -23 892 22 819 102 c 1
 712 36 550 -24 408 -24 c 0
1065 1487 m 1
 770 1134 l 1
 666 1134 l 1
 835 1487 l 1
 1065 1487 l 1
EndSplineSet
EndChar

StartChar: afii10018
Encoding: 1041 1041 174
Width: 1174
VWidth: 0
Flags: HW
LayerCount: 2
Fore
SplineSet
1088 393 m 0
 1088 155 960 0 630 0 c 2
 160 0 l 1
 160 1346 l 1
 974 1346 l 1
 974 1213 l 1
 334 1213 l 1
 334 779 l 1
 636 779 l 2
 960 779 1088 628 1088 393 c 0
334 653 m 1
 334 129 l 1
 639 129 l 2
 825 129 914 212 914 392 c 0
 914 573 823 653 631 653 c 2
 334 653 l 1
EndSplineSet
EndChar

StartChar: afii10020
Encoding: 1043 1043 176
Width: 1047
VWidth: 0
Flags: HW
LayerCount: 2
Fore
SplineSet
995 1205 m 1
 1008 1346 l 1
 160 1346 l 1
 160 0 l 1
 334 0 l 1
 334 1205 l 1
 995 1205 l 1
EndSplineSet
EndChar

StartChar: afii10021
Encoding: 1044 1044 177
Width: 1368
VWidth: 0
Flags: HW
LayerCount: 2
Fore
SplineSet
126 -275 m 1
 126 0 l 1
 1145 0 l 1
 1145 -275 l 1
 1306 -275 l 1
 1306 138 l 1
 1152 138 l 1
 1152 1346 l 1
 321 1346 l 1
 311 1238 298 1109 289 1019 c 0
 223 353 198 199 112 138 c 1
 -38 138 l 1
 -38 -275 l 1
 126 -275 l 1
482 1205 m 1
 978 1205 l 1
 978 138 l 1
 317 138 l 1
 391 257 410 471 456 938 c 1
 460 989 476 1142 482 1202 c 1
 482 1205 l 1
EndSplineSet
EndChar

StartChar: afii10023
Encoding: 1025 1025 179
Width: 1074
VWidth: 0
Flags: HW
LayerCount: 2
Fore
SplineSet
747 1673 m 1
 747 1481 l 1
 606 1481 l 1
 606 1673 l 1
 747 1673 l 1
391 1673 m 1
 391 1481 l 1
 251 1481 l 1
 251 1673 l 1
 391 1673 l 1
EndSplineSet
Refer: 29 69 N 1 0 0 1 0 0 2
EndChar

StartChar: afii10024
Encoding: 1046 1046 180
Width: 1851
VWidth: 0
Flags: HW
LayerCount: 2
Fore
SplineSet
832 0 m 1
 1006 0 l 1
 1006 600.46 l 1
 1535 0 l 1
 1744 0 l 1
 1147 668 l 1
 1673 1346 l 1
 1477 1346 l 1
 1006 733.204 l 1
 1006 1346 l 1
 832 1346 l 1
 832 734.505 l 1
 362 1346 l 1
 166 1346 l 1
 692 668 l 1
 95 0 l 1
 304 0 l 1
 832 599.325 l 1
 832 0 l 1
EndSplineSet
EndChar

StartChar: afii10025
Encoding: 1047 1047 181
Width: 1111
VWidth: 0
Flags: HW
LayerCount: 2
Fore
SplineSet
991 363 m 0
 991 579 842 678 719 706 c 1
 866 750 959 865 959 1026 c 0
 959 1170 864 1366 556 1366 c 0
 371 1366 266 1322 159 1259 c 1
 218 1134 l 1
 307 1187 431 1228 546 1228 c 0
 681 1228 785 1158 785 999 c 0
 785 896 714 770 545 770 c 2
 425 770 l 1
 425 627 l 1
 550 627 l 2
 725 627 817 502 817 377 c 0
 817 203 693 120 527 120 c 0
 393 120 253 174 183 223 c 1
 127 95 l 1
 216 33 365 -18 540 -18 c 0
 832 -18 991 135 991 363 c 0
EndSplineSet
EndChar

StartChar: afii10026
Encoding: 1048 1048 182
Width: 1426
VWidth: 0
Flags: HW
LayerCount: 2
Fore
SplineSet
308 219 m 1
 308 219 313 509 313 555 c 2
 313 1346 l 1
 160 1346 l 1
 160 0 l 1
 339 0 l 1
 598 377 863 747 1119 1127 c 1
 1119 1127 1114 894 1114 786 c 2
 1114 0 l 1
 1267 0 l 1
 1267 1346 l 1
 1091 1346 l 1
 831 970 566 598 308 219 c 1
EndSplineSet
EndChar

StartChar: afii10027
Encoding: 1049 1049 183
Width: 1359
VWidth: 0
Flags: HW
LayerCount: 2
Fore
SplineSet
636 1530 m 0
 524 1530 410 1607 410 1764 c 1
 515 1764 l 1
 515 1677 570 1636 636 1636 c 0
 702 1636 760 1677 760 1764 c 1
 866 1764 l 1
 866 1607 749 1530 636 1530 c 0
EndSplineSet
Refer: 182 1048 N 1 0 0 1 0 0 2
EndChar

StartChar: afii10028
Encoding: 1050 1050 184
Width: 1243
VWidth: 0
Flags: HW
LayerCount: 2
Fore
SplineSet
334 0 m 1
 334 607 l 1
 895 0 l 1
 1130 0 l 1
 496 672 l 1
 1101 1346 l 1
 881 1346 l 1
 334 739 l 1
 334 1346 l 1
 160 1346 l 1
 160 0 l 1
 334 0 l 1
EndSplineSet
EndChar

StartChar: afii10029
Encoding: 1051 1051 185
Width: 1248
VWidth: 0
Flags: HW
LayerCount: 2
Fore
SplineSet
914 0 m 1
 914 1205 l 1
 391 1205 l 1
 389 1148 380 991 378 939 c 0
 337 123 323 -10 -30 -46 c 1
 -60 91 l 1
 145 144 160 94 207 1019 c 0
 212 1109 219 1238 224 1346 c 1
 1088 1346 l 1
 1088 0 l 1
 914 0 l 1
EndSplineSet
EndChar

StartChar: afii10033
Encoding: 1055 1055 189
Width: 1368
VWidth: 0
Flags: HW
LayerCount: 2
Fore
SplineSet
334 1208 m 1
 1034 1208 l 1
 1034 0 l 1
 1208 0 l 1
 1208 1346 l 1
 160 1346 l 1
 160 0 l 1
 334 0 l 1
 334 1208 l 1
EndSplineSet
EndChar

StartChar: afii10037
Encoding: 1059 1059 193
Width: 1248
VWidth: 0
Flags: HW
LayerCount: 2
Fore
SplineSet
255 1346 m 1
 64 1346 l 1
 567 424 l 1
 390 0 l 1
 577 0 l 1
 1217 1346 l 1
 1029 1346 l 1
 670 580 l 1
 255 1346 l 1
EndSplineSet
EndChar

StartChar: afii10038
Encoding: 1060 1060 194
Width: 1566
VWidth: 0
Flags: HW
LayerCount: 2
Fore
SplineSet
850 1098 m 1
 850 258 l 1
 1165 287 1305 445 1305 678 c 0
 1305 911 1165 1069 850 1098 c 1
702 259 m 1
 702 1097 l 1
 401 1065 261 910 261 678 c 0
 261 445 401 291 702 259 c 1
850 0 m 1
 702 0 l 1
 702 116 l 1
 309 150 89 356 89 678 c 0
 89 1000 309 1205 702 1239 c 1
 702 1361 l 1
 850 1361 l 1
 850 1241 l 1
 1238 1215 1477 1019 1477 678 c 0
 1477 337 1238 141 850 115 c 1
 850 0 l 1
EndSplineSet
EndChar

StartChar: afii10040
Encoding: 1062 1062 196
Width: 1386
VWidth: 0
Flags: HW
LayerCount: 2
Fore
SplineSet
1280 -275 m 1
 1280 141 l 1
 1141 141 l 1
 1141 1346 l 1
 967 1346 l 1
 967 138 l 1
 334 138 l 1
 334 1346 l 1
 160 1346 l 1
 160 0 l 1
 1120 0 l 1
 1120 -275 l 1
 1280 -275 l 1
EndSplineSet
EndChar

StartChar: afii10041
Encoding: 1063 1063 197
Width: 1139
VWidth: 0
Flags: HW
LayerCount: 2
Fore
SplineSet
1017 0 m 1
 843 0 l 1
 843 461 l 1
 843 461 626 461 500 461 c 0
 247 461 109 595 109 834 c 2
 109 1346 l 1
 283 1346 l 1
 283 866 l 2
 283 649 365 612 533 612 c 2
 843 612 l 1
 843 1346 l 1
 1017 1346 l 1
 1017 0 l 1
EndSplineSet
EndChar

StartChar: afii10042
Encoding: 1064 1064 198
Width: 1525
VWidth: 0
Flags: HW
LayerCount: 2
Fore
SplineSet
682 141 m 1
 682 1346 l 1
 843 1346 l 1
 843 141 l 1
 1228 141 l 1
 1228 1346 l 1
 1390 1346 l 1
 1390 0 l 1
 136 0 l 1
 136 1346 l 1
 298 1346 l 1
 298 141 l 1
 682 141 l 1
EndSplineSet
EndChar

StartChar: afii10043
Encoding: 1065 1065 199
Width: 1591
VWidth: 0
Flags: HW
LayerCount: 2
Fore
SplineSet
706 141 m 1
 706 1346 l 1
 867 1346 l 1
 867 141 l 1
 1252 141 l 1
 1252 1346 l 1
 1414 1346 l 1
 1414 141 l 1
 1515 141 l 1
 1515 -275 l 1
 1356 -275 l 1
 1356 0 l 1
 160 0 l 1
 160 1346 l 1
 322 1346 l 1
 322 141 l 1
 706 141 l 1
EndSplineSet
EndChar

StartChar: afii10044
Encoding: 1066 1066 200
Width: 1395
VWidth: 0
Flags: HW
LayerCount: 2
Fore
SplineSet
623 633 m 1
 623 142 l 1
 836 142 l 2
 1076 142 1137 232 1137 392 c 0
 1137 539 1062 633 833 633 c 2
 623 633 l 1
623 1346 m 1
 623 773 l 1
 814 773 l 2
 1128 773 1312 652 1312 389 c 0
 1312 126 1145 0 817 0 c 2
 448 0 l 1
 448 1205 l 1
 128 1205 l 1
 128 1346 l 1
 623 1346 l 1
EndSplineSet
EndChar

StartChar: afii10045
Encoding: 1067 1067 201
Width: 1032
VWidth: 0
Flags: HW
LayerCount: 2
Fore
SplineSet
324 633 m 1
 324 141 l 1
 459 141 l 2
 689 141 774 223 774 383 c 0
 774 537 692 633 453 633 c 2
 324 633 l 1
324 1346 m 1
 324 773 l 1
 454 773 l 2
 776 773 949 634 949 387 c 0
 949 149 781 0 441 0 c 2
 149 0 l 1
 149 1346 l 1
 324 1346 l 1
EndSplineSet
EndChar

StartChar: afii10046
Encoding: 1068 1068 202
Width: 1431
VWidth: 0
Flags: HW
LayerCount: 2
Fore
SplineSet
149 1346 m 1
 324 1346 l 1
 324 0 l 1
 149 0 l 1
 149 1346 l 1
723 633 m 1
 723 141 l 1
 871 141 l 2
 1111 141 1173 232 1173 392 c 0
 1173 546 1104 633 874 633 c 2
 723 633 l 1
723 1346 m 1
 723 773 l 1
 862 773 l 2
 1181 773 1348 643 1348 396 c 0
 1348 158 1187 0 864 0 c 2
 548 0 l 1
 548 1346 l 1
 723 1346 l 1
EndSplineSet
EndChar

StartChar: afii10047
Encoding: 1069 1069 203
Width: 1275
VWidth: 0
Flags: HW
LayerCount: 2
Fore
SplineSet
519 -21 m 0
 340 -21 205 27 111 103 c 1
 169 226 l 1
 245 168 372 117 511 117 c 0
 802 117 958 336 984 604 c 1
 357 604 l 1
 357 744 l 1
 986 744 l 1
 970 1011 835 1249 500 1249 c 0
 364 1249 243 1198 168 1138 c 1
 116 1269 l 1
 208 1349 341 1388 521 1388 c 0
 943 1388 1159 1074 1159 689 c 0
 1159 287 939 -21 519 -21 c 0
EndSplineSet
EndChar

StartChar: afii10048
Encoding: 1070 1070 204
Width: 1885
VWidth: 0
Flags: HW
LayerCount: 2
Fore
SplineSet
1178 117 m 0
 1459 117 1597 378 1597 681 c 0
 1597 969 1458 1249 1169 1249 c 0
 889 1249 753 977 753 679 c 0
 753 382 896 117 1178 117 c 0
1176 -21 m 0
 816 -21 608 268 582 624 c 1
 298 624 l 1
 298 0 l 1
 136 0 l 1
 136 1360 l 1
 298 1360 l 1
 298 762 l 1
 585 762 l 1
 614 1129 816 1388 1168 1388 c 0
 1549 1388 1769 1082 1769 675 c 0
 1769 293 1558 -21 1176 -21 c 0
EndSplineSet
EndChar

StartChar: afii10049
Encoding: 1071 1071 205
Width: 1262
VWidth: 0
Flags: HW
LayerCount: 2
Fore
SplineSet
978 706 m 1
 978 1205 l 1
 693 1205 l 2
 463 1205 366 1121 366 961 c 0
 366 807 437 706 693 706 c 2
 978 706 l 1
328 0 m 1
 133 0 l 1
 183 106 382 486 440 602 c 1
 286 660 192 779 192 954 c 0
 192 1217 374 1346 710 1346 c 2
 1152 1346 l 1
 1152 0 l 1
 978 0 l 1
 978 566 l 1
 823 566 l 2
 685 566 637 569 602 572 c 1
 507 375 423 197 328 0 c 1
EndSplineSet
EndChar

StartChar: afii10052
Encoding: 1027 1027 207
Width: 1047
VWidth: 0
Flags: HW
LayerCount: 2
Fore
SplineSet
995 1205 m 1
 1008 1346 l 1
 160 1346 l 1
 160 0 l 1
 334 0 l 1
 334 1205 l 1
 995 1205 l 1
EndSplineSet
EndChar

StartChar: afii10053
Encoding: 1028 1028 208
Width: 1268
VWidth: 0
Flags: HW
LayerCount: 2
Fore
SplineSet
754 -21 m 0
 334 -21 114 287 114 689 c 0
 114 1074 332 1388 760 1388 c 0
 937 1388 1068 1349 1158 1269 c 1
 1105 1138 l 1
 1030 1198 909 1249 773 1249 c 0
 438 1249 304 1011 288 744 c 1
 916 744 l 1
 916 604 l 1
 289 604 l 1
 315 336 472 117 763 117 c 0
 902 117 1028 168 1104 226 c 1
 1162 103 l 1
 1068 27 933 -21 754 -21 c 0
EndSplineSet
EndChar

StartChar: afii10054
Encoding: 1029 1029 209
Width: 1200
VWidth: 0
Flags: HW
LayerCount: 2
Fore
SplineSet
607 -20 m 0
 370 -20 202 40 119 91 c 1
 167 222 l 1
 289 162 443 118 617 118 c 0
 810 118 915 204 915 388 c 0
 915 497 868 570 695 614 c 2
 428 682 l 2
 241 729 121 829 121 1009 c 0
 121 1274 320 1366 618 1366 c 0
 785 1366 932 1336 1025 1278 c 1
 979 1155 l 1
 884 1201 770 1228 623 1228 c 0
 406 1228 288 1173 288 1020 c 0
 288 914 356 856 487 824 c 2
 743 763 l 2
 947 714 1082 615 1082 393 c 0
 1082 110 885 -20 607 -20 c 0
EndSplineSet
EndChar

StartChar: afii10055
Encoding: 1030 1030 210
Width: 432
VWidth: 0
Flags: HW
LayerCount: 2
Fore
SplineSet
136 0 m 1
 136 1362 l 1
 297 1362 l 1
 297 0 l 1
 136 0 l 1
EndSplineSet
EndChar

StartChar: afii10056
Encoding: 1031 1031 211
Width: 657
VWidth: 0
Flags: HW
LayerCount: 2
Fore
SplineSet
272 0 m 1
 272 1362 l 1
 432 1362 l 1
 432 0 l 1
 272 0 l 1
567 1654 m 1
 567 1461 l 1
 426 1461 l 1
 426 1654 l 1
 567 1654 l 1
211 1654 m 1
 211 1461 l 1
 71 1461 l 1
 71 1654 l 1
 211 1654 l 1
EndSplineSet
EndChar

StartChar: afii10057
Encoding: 1032 1032 212
Width: 632
VWidth: 0
Flags: HW
LayerCount: 2
Fore
SplineSet
100 -195 m 1
 81 -45 l 1
 148 -45 l 2
 314 -45 323 51 323 186 c 2
 323 1346 l 1
 498 1346 l 1
 498 219 l 2
 498 -61 452 -195 132 -195 c 2
 100 -195 l 1
EndSplineSet
EndChar

StartChar: afii10058
Encoding: 1033 1033 213
Width: 1755
VWidth: 0
Flags: HW
LayerCount: 2
Fore
SplineSet
992 652 m 1
 992 141 l 1
 1227 141 l 2
 1377 141 1479 232 1479 392 c 0
 1479 552 1381 652 1227 652 c 2
 992 652 l 1
78 -24 m 1
 78 119 l 1
 120 119 l 2
 285 119 294 214 294 349 c 2
 294 1346 l 1
 992 1346 l 1
 992 793 l 1
 1227 793 l 2
 1478 793 1653 676 1653 389 c 0
 1653 126 1485 0 1227 0 c 2
 818 0 l 1
 818 1205 l 1
 468 1205 l 1
 468 394 l 2
 468 114 424 -24 104 -24 c 2
 78 -24 l 1
EndSplineSet
EndChar

StartChar: afii10059
Encoding: 1034 1034 214
Width: 1853
VWidth: 0
Flags: HW
LayerCount: 2
Fore
SplineSet
334 630 m 1
 946 630 l 1
 946 0 l 1
 1334 0 l 2
 1664 0 1792 155 1792 393 c 0
 1792 628 1664 779 1340 779 c 2
 1120 779 l 1
 1120 1346 l 1
 946 1346 l 1
 946 768 l 1
 334 768 l 1
 334 1346 l 1
 160 1346 l 1
 160 0 l 1
 334 0 l 1
 334 630 l 1
1335 653 m 2
 1527 653 1627 573 1627 392 c 0
 1627 212 1529 129 1343 129 c 2
 1120 129 l 1
 1120 653 l 1
 1335 653 l 2
EndSplineSet
EndChar

StartChar: afii10061
Encoding: 1036 1036 216
Width: 1221
VWidth: 0
Flags: HW
LayerCount: 2
Fore
SplineSet
948 1852 m 1
 653 1499 l 1
 550 1499 l 1
 719 1852 l 1
 948 1852 l 1
EndSplineSet
Refer: 184 1050 N 1 0 0 1 0 0 2
EndChar

StartChar: afii10062
Encoding: 1038 1038 217
Width: 1248
VWidth: 0
Flags: HW
LayerCount: 2
Fore
SplineSet
535 1530 m 0
 423 1530 308 1607 308 1764 c 1
 414 1764 l 1
 414 1677 469 1636 535 1636 c 0
 601 1636 659 1677 659 1764 c 1
 765 1764 l 1
 765 1607 648 1530 535 1530 c 0
EndSplineSet
Refer: 193 1059 N 1 0 0 1 0 0 2
EndChar

StartChar: afii10066
Encoding: 1073 1073 220
Width: 983
VWidth: 0
Flags: HW
LayerCount: 2
Fore
SplineSet
264 528 m 1
 236 242 371 112 516 112 c 0
 695 112 776 208 776 399 c 0
 776 550 681 653 547 653 c 0
 489 653 358 625 264 528 c 1
274 680 m 1
 364 733 450 778 562 778 c 0
 794 778 924 583 924 396 c 0
 924 163 766 -18 521 -18 c 0
 137 -18 89 354 89 484 c 0
 89 886 300 1145 803 1165 c 1
 824 1036 l 1
 526 1027 322 915 274 680 c 1
EndSplineSet
EndChar

StartChar: afii10067
Encoding: 1074 1074 221
Width: 1041
VWidth: 0
Flags: HW
LayerCount: 2
Fore
SplineSet
324 870 m 1
 324 580 l 1
 599 580 l 2
 720 580 753 654 753 724 c 0
 753 807 708 870 587 870 c 2
 324 870 l 1
324 455 m 1
 324 122 l 1
 590 122 l 2
 748 122 785 189 785 293 c 0
 785 369 760 455 605 455 c 2
 324 455 l 1
149 0 m 1
 149 999 l 1
 595 999 l 2
 831 999 928 883 928 748 c 0
 928 645 883 574 756 533 c 1
 908 497 960 376 960 288 c 0
 960 137 861 0 595 0 c 2
 149 0 l 1
EndSplineSet
EndChar

StartChar: afii10068
Encoding: 1075 1075 222
Width: 846
VWidth: 0
Flags: HW
LayerCount: 2
Fore
SplineSet
779 878 m 1
 790 999 l 1
 149 999 l 1
 149 0 l 1
 324 0 l 1
 324 878 l 1
 779 878 l 1
EndSplineSet
EndChar

StartChar: afii10069
Encoding: 1076 1076 223
Width: 1119
VWidth: 0
Flags: HW
LayerCount: 2
Fore
SplineSet
795 878 m 1
 489 878 l 1
 434 478 l 2
 408 292 357 153 322 120 c 1
 795 120 l 1
 795 878 l 1
45 -275 m 1
 45 120 l 1
 133 120 l 1
 202 175 238 306 259 451 c 2
 337 999 l 1
 970 999 l 1
 970 120 l 1
 1049 120 l 1
 1049 -275 l 1
 901 -275 l 1
 901 0 l 1
 189 0 l 1
 189 -275 l 1
 45 -275 l 1
EndSplineSet
EndChar

StartChar: afii10069.copy_1
Encoding: 65538 -1 224
Width: 1108
VWidth: 0
Flags: HW
LayerCount: 2
Fore
SplineSet
795 878 m 1
 483 878 l 1
 428 478 l 2
 402 292 351 153 316 120 c 1
 795 120 l 1
 795 878 l 1
39 -275 m 1
 39 120 l 1
 127 120 l 1
 196 175 232 306 253 451 c 2
 331 999 l 1
 970 999 l 1
 970 120 l 1
 1049 120 l 1
 1049 -275 l 1
 901 -275 l 1
 901 0 l 1
 183 0 l 1
 183 -275 l 1
 39 -275 l 1
EndSplineSet
EndChar

StartChar: afii10072
Encoding: 1078 1078 228
Width: 1415
VWidth: 0
Flags: HW
LayerCount: 2
Fore
SplineSet
623 550 m 1
 623 999 l 1
 791 999 l 1
 791 550 l 1
 1188 999 l 1
 1369 999 l 1
 921 511 l 1
 1378 0 l 1
 1193 0 l 1
 791 460 l 1
 791 0 l 1
 623 0 l 1
 623 460 l 1
 222 0 l 1
 37 0 l 1
 494 511 l 1
 46 999 l 1
 228 999 l 1
 623 550 l 1
EndSplineSet
EndChar

StartChar: afii10073
Encoding: 1079 1079 229
Width: 865
VWidth: 0
Flags: HW
LayerCount: 2
Fore
SplineSet
780 270 m 0
 780 281 779 291 778 302 c 0
 773 400 709 484 597 522 c 1
 723 566 748 660 748 745 c 0
 748 884 653 1019 402 1019 c 0
 295 1019 172 995 88 925 c 1
 101 893 132 807 132 807 c 1
 193 851 288 886 386 886 c 0
 517 886 582 833 590 740 c 0
 590 735 591 731 591 726 c 0
 591 648 529 576 395 576 c 2
 268 576 l 1
 268 457 l 1
 395 457 l 2
 546 457 604 380 610 297 c 0
 610 292 611 288 611 283 c 0
 611 183 529 112 401 112 c 0
 301 112 190 149 133 193 c 1
 98 70 l 1
 182 3 293 -18 401 -18 c 0
 627 -18 780 112 780 270 c 0
EndSplineSet
EndChar

StartChar: afii10074
Encoding: 1080 1080 230
Width: 1066
VWidth: 0
Flags: HW
LayerCount: 2
Fore
SplineSet
283 238 m 1
 283 999 l 1
 130 999 l 1
 130 0 l 1
 274 0 l 1
 784 679 l 1
 784 0 l 1
 937 0 l 1
 937 999 l 1
 784 999 l 1
 784 905 l 1
 283 238 l 1
EndSplineSet
EndChar

StartChar: afii10076
Encoding: 1082 1082 232
Width: 1064
VWidth: 0
Flags: HW
LayerCount: 2
Fore
SplineSet
149 999 m 1
 149 0 l 1
 324 0 l 1
 324 439 l 1
 774 0 l 1
 990 0 l 1
 473 502 l 1
 940 998 l 1
 725 998 l 1
 324 560 l 1
 324 999 l 1
 149 999 l 1
EndSplineSet
EndChar

StartChar: afii10077
Encoding: 1083 1083 233
Width: 1128
VWidth: 0
Flags: HW
LayerCount: 2
Fore
SplineSet
804 0 m 1
 804 870 l 1
 493 870 l 1
 434 454 l 2
 393 167 333 -14 62 -14 c 1
 48 118 l 1
 192 118 227 187 268 480 c 2
 341 999 l 1
 979 999 l 1
 979 0 l 1
 804 0 l 1
EndSplineSet
EndChar

StartChar: afii10077.copy_1
Encoding: 65540 -1 234
Width: 1128
VWidth: 0
Flags: HW
LayerCount: 2
Fore
SplineSet
804 0 m 1
 804 870 l 1
 493 870 l 1
 434 454 l 2
 393 167 333 -14 62 -14 c 1
 48 118 l 1
 192 118 227 187 268 480 c 2
 341 999 l 1
 979 999 l 1
 979 0 l 1
 804 0 l 1
EndSplineSet
EndChar

StartChar: afii10078
Encoding: 1084 1084 235
Width: 1171
VWidth: 0
Flags: HW
LayerCount: 2
Fore
SplineSet
870 999 m 1
 1022 999 l 1
 1022 0 l 1
 869 0 l 1
 869 711 l 1
 640 205 l 1
 543 205 l 1
 302 711 l 1
 302 0 l 1
 149 0 l 1
 149 999 l 1
 302 999 l 1
 585 385 l 1
 870 999 l 1
EndSplineSet
EndChar

StartChar: afii10078.copy_1
Encoding: 65541 -1 236
Width: 1171
VWidth: 0
Flags: HW
LayerCount: 2
Fore
SplineSet
870 999 m 1
 1022 999 l 1
 1022 0 l 1
 869 0 l 1
 869 711 l 1
 640 205 l 1
 543 205 l 1
 302 711 l 1
 302 0 l 1
 149 0 l 1
 149 999 l 1
 302 999 l 1
 585 385 l 1
 870 999 l 1
EndSplineSet
EndChar

StartChar: afii10079
Encoding: 1085 1085 237
Width: 1143
VWidth: 0
Flags: HW
LayerCount: 2
Fore
SplineSet
819 594 m 1
 819 999 l 1
 994 999 l 1
 994 0 l 1
 819 0 l 1
 819 471 l 1
 324 471 l 1
 324 0 l 1
 149 0 l 1
 149 999 l 1
 324 999 l 1
 324 594 l 1
 819 594 l 1
EndSplineSet
EndChar

StartChar: afii10079.copy_1
Encoding: 65542 -1 238
Width: 1104
VWidth: 0
Flags: HW
LayerCount: 2
Fore
SplineSet
800 594 m 1
 800 999 l 1
 975 999 l 1
 975 0 l 1
 800 0 l 1
 800 471 l 1
 305 471 l 1
 305 0 l 1
 130 0 l 1
 130 999 l 1
 305 999 l 1
 305 594 l 1
 800 594 l 1
EndSplineSet
EndChar

StartChar: afii10081
Encoding: 1087 1087 241
Width: 1066
VWidth: 0
Flags: HW
LayerCount: 2
Fore
SplineSet
784 0 m 1
 784 870 l 1
 283 870 l 1
 283 0 l 1
 130 0 l 1
 130 999 l 1
 937 999 l 1
 937 0 l 1
 784 0 l 1
EndSplineSet
EndChar

StartChar: afii10082
Encoding: 1088 1088 242
Width: 1177
VWidth: 0
Flags: HW
LayerCount: 2
Fore
SplineSet
599 107 m 0
 790 107 890 261 890 500 c 0
 890 734 794 890 600 890 c 0
 394 890 308 746 308 516 c 0
 308 257 384 107 599 107 c 0
133 998 m 1
 291 998 l 1
 308 835 l 1
 363 953 489 1019 626 1019 c 0
 905 1019 1065 800 1065 494 c 0
 1065 196 887 -21 627 -21 c 0
 495 -21 369 43 303 136 c 1
 307 70 308 7 308 -55 c 2
 308 -423 l 1
 133 -433 l 1
 133 998 l 1
EndSplineSet
EndChar

StartChar: afii10084
Encoding: 1090 1090 244
Width: 883
VWidth: 0
Flags: HW
LayerCount: 2
Fore
SplineSet
809 999 m 1
 809 870 l 1
 529 870 l 1
 529 0 l 1
 354 0 l 1
 354 870 l 1
 74 870 l 1
 74 999 l 1
 809 999 l 1
EndSplineSet
EndChar

StartChar: afii10085
Encoding: 1091 1091 245
Width: 1013
VWidth: 0
Flags: HW
LayerCount: 2
Fore
SplineSet
92 -292 m 1
 86 -153 l 1
 416 -180 466 44 491 111 c 1
 52 998 l 1
 240 998 l 1
 565 277 l 1
 808 998 l 1
 992 998 l 1
 628 40 l 2
 566 -125 436 -310 92 -292 c 1
EndSplineSet
EndChar

StartChar: afii10086
Encoding: 1092 1092 246
Width: 1345
VWidth: 0
Flags: HW
LayerCount: 2
Fore
SplineSet
885 153 m 0
 1013 153 1088 327 1088 506 c 0
 1088 687 1016 850 888 850 c 0
 847 850 782 844 736 821 c 1
 736 180 l 1
 780 157 846 153 885 153 c 0
426 153 m 0
 465 153 532 158 576 178 c 1
 576 824 l 1
 530 847 462 850 423 850 c 0
 294 850 224 687 224 506 c 0
 224 327 297 153 426 153 c 0
736 -280 m 1
 576 -280 l 1
 576 52 l 1
 533 35 462 29 421 29 c 0
 209 29 64 249 64 508 c 0
 64 768 206 974 423 974 c 0
 462 974 533 962 576 945 c 1
 576 1194 l 1
 736 1194 l 1
 736 945 l 1
 779 962 847 974 888 974 c 0
 1104 974 1248 768 1248 508 c 0
 1248 250 1102 29 889 29 c 0
 848 29 779 35 736 52 c 1
 736 -280 l 1
EndSplineSet
EndChar

StartChar: afii10088
Encoding: 1094 1094 248
Width: 1094
VWidth: 0
Flags: HW
LayerCount: 2
Fore
SplineSet
1046 -275 m 1
 1046 121 l 1
 948 121 l 1
 948 999 l 1
 774 999 l 1
 774 120 l 1
 324 120 l 1
 324 999 l 1
 150 999 l 1
 150 0 l 1
 871 0 l 1
 871 -275 l 1
 1046 -275 l 1
EndSplineSet
EndChar

StartChar: afii10089
Encoding: 1095 1095 249
Width: 1013
VWidth: 0
Flags: HW
LayerCount: 2
Fore
SplineSet
864 0 m 1
 689 0 l 1
 689 368 l 1
 689 368 586 359 470 359 c 0
 238 359 113 499 113 750 c 2
 113 999 l 1
 288 999 l 1
 288 766 l 2
 288 548 347 490 498 490 c 0
 601 490 689 498 689 498 c 1
 689 999 l 1
 864 999 l 1
 864 0 l 1
EndSplineSet
EndChar

StartChar: afii10090
Encoding: 1096 1096 250
Width: 1354
VWidth: 0
Flags: HW
LayerCount: 2
Fore
SplineSet
621 120 m 1
 621 999 l 1
 787 999 l 1
 787 120 l 1
 1050 120 l 1
 1050 999 l 1
 1216 999 l 1
 1216 0 l 1
 192 0 l 1
 192 999 l 1
 358 999 l 1
 358 120 l 1
 621 120 l 1
EndSplineSet
EndChar

StartChar: afii10091
Encoding: 1097 1097 251
Width: 1354
VWidth: 0
Flags: HW
LayerCount: 2
Fore
SplineSet
1127 -275 m 1
 1302 -275 l 1
 1302 120 l 1
 1204 120 l 1
 1204 999 l 1
 1030 999 l 1
 1030 120 l 1
 780 120 l 1
 780 999 l 1
 606 999 l 1
 606 120 l 1
 324 120 l 1
 324 999 l 1
 150 999 l 1
 150 0 l 1
 1127 0 l 1
 1127 -275 l 1
EndSplineSet
EndChar

StartChar: afii10092
Encoding: 1098 1098 252
Width: 996
VWidth: 0
Flags: HW
LayerCount: 2
Fore
SplineSet
377 999 m 1
 377 635 l 1
 579 635 l 2
 823 635 924 490 924 326 c 0
 924 162 829 0 585 0 c 2
 203 0 l 1
 203 878 l 1
 43 878 l 1
 43 999 l 1
 203 999 l 1
 346 999 l 1
 377 999 l 1
377 511 m 1
 377 122 l 1
 587 122 l 2
 707 122 750 239 750 329 c 0
 750 419 701 511 581 511 c 2
 377 511 l 1
EndSplineSet
EndChar

StartChar: afii10093
Encoding: 1099 1099 253
Width: 1397
VWidth: 0
Flags: HW
LayerCount: 2
Fore
SplineSet
323 511 m 1
 323 122 l 1
 533 122 l 2
 653 122 696 239 696 329 c 0
 696 419 647 511 527 511 c 2
 323 511 l 1
323 999 m 1
 323 635 l 1
 525 635 l 2
 769 635 870 490 870 326 c 0
 870 162 775 0 531 0 c 2
 149 0 l 1
 149 999 l 1
 323 999 l 1
1074 0 m 1
 1074 998 l 1
 1248 998 l 1
 1248 0 l 1
 1074 0 l 1
EndSplineSet
EndChar

StartChar: afii10094
Encoding: 1100 1100 254
Width: 942
VWidth: 0
Flags: HW
LayerCount: 2
Fore
SplineSet
323 511 m 1
 323 122 l 1
 533 122 l 2
 653 122 696 239 696 329 c 0
 696 419 647 511 527 511 c 2
 323 511 l 1
323 999 m 1
 323 635 l 1
 525 635 l 2
 769 635 870 490 870 326 c 0
 870 162 775 0 531 0 c 2
 149 0 l 1
 149 999 l 1
 323 999 l 1
EndSplineSet
EndChar

StartChar: afii10094.copy_1
Encoding: 65544 -1 255
Width: 940
VWidth: 0
Flags: HW
LayerCount: 2
Fore
SplineSet
302 511 m 1
 302 122 l 1
 512 122 l 2
 632 122 675 239 675 329 c 0
 675 419 626 511 506 511 c 2
 302 511 l 1
302 999 m 1
 302 635 l 1
 504 635 l 2
 748 635 849 490 849 326 c 0
 849 162 754 0 510 0 c 2
 128 0 l 1
 128 999 l 1
 302 999 l 1
EndSplineSet
EndChar

StartChar: afii10095
Encoding: 1101 1101 256
Width: 1010
VWidth: 0
Flags: HW
LayerCount: 2
Fore
SplineSet
411 -23 m 0
 285 -23 178 10 116 64 c 1
 157 177 l 1
 241 126 322 103 402 103 c 0
 591 103 716 234 737 434 c 1
 316 434 l 1
 316 563 l 1
 737 563 l 1
 717 764 608 897 401 897 c 0
 303 897 218 860 157 821 c 1
 115 932 l 1
 186 993 302 1023 409 1023 c 0
 741 1023 898 776 898 496 c 0
 898 227 735 -23 411 -23 c 0
EndSplineSet
EndChar

StartChar: afii10096
Encoding: 1102 1102 257
Width: 1395
VWidth: 0
Flags: HW
LayerCount: 2
Fore
SplineSet
868 103 m 0
 1065 103 1124 294 1124 498 c 0
 1124 710 1072 897 865 897 c 0
 668 897 598 699 598 495 c 0
 598 294 668 103 868 103 c 0
865 -23 m 0
 586 -23 459 177 442 435 c 1
 283 435 l 1
 283 0 l 1
 130 0 l 1
 130 999 l 1
 283 999 l 1
 283 562 l 1
 442 562 l 1
 460 819 589 1023 868 1023 c 0
 1174 1023 1282 788 1282 500 c 0
 1282 223 1164 -23 865 -23 c 0
EndSplineSet
EndChar

StartChar: afii10097
Encoding: 1103 1103 258
Width: 1055
VWidth: 0
Flags: HW
LayerCount: 2
Fore
SplineSet
733 527 m 1
 733 870 l 1
 444 870 l 2
 323 870 280 776 280 693 c 0
 280 617 323 527 444 527 c 2
 733 527 l 1
302 0 m 1
 107 0 l 1
 315 418 l 1
 174 462 106 577 106 693 c 0
 106 849 209 999 454 999 c 2
 906 999 l 1
 906 0 l 1
 733 0 l 1
 733 399 l 1
 485 399 l 1
 302 0 l 1
EndSplineSet
EndChar

StartChar: afii10099
Encoding: 1106 1106 259
Width: 1130
VWidth: 0
Flags: HW
LayerCount: 2
Fore
SplineSet
655 -258 m 1
 644 -128 l 1
 683 -128 l 2
 840 -128 858 -100 858 95 c 2
 858 335 l 2
 858 561 828 672 658 672 c 0
 502 672 376 545 351 450 c 1
 351 0 l 1
 198 0 l 1
 198 999 l 1
 113 999 l 1
 113 1105 l 1
 198 1105 l 1
 198 1374 l 1
 351 1374 l 1
 351 1105 l 1
 729 1105 l 1
 729 999 l 1
 351 999 l 1
 351 649 l 1
 431 750 536 812 672 812 c 0
 906 812 1011 667 1011 405 c 2
 1011 144 l 2
 1011 -134 990 -258 720 -258 c 2
 655 -258 l 1
EndSplineSet
EndChar

StartChar: afii10101
Encoding: 1108 1108 261
Width: 1004
VWidth: 0
Flags: HW
LayerCount: 2
Fore
SplineSet
595 -23 m 0
 271 -23 108 227 108 496 c 0
 108 776 266 1023 598 1023 c 0
 705 1023 821 993 892 932 c 1
 850 821 l 1
 789 860 703 897 605 897 c 0
 398 897 289 764 269 563 c 1
 691 563 l 1
 691 434 l 1
 269 434 l 1
 290 234 415 103 604 103 c 0
 684 103 765 126 849 177 c 1
 891 64 l 1
 829 10 721 -23 595 -23 c 0
EndSplineSet
EndChar

StartChar: afii10104
Encoding: 1111 1111 264
Width: 579
VWidth: 0
Flags: HW
LayerCount: 2
Fore
SplineSet
213 0 m 1
 213 999 l 1
 367 999 l 1
 367 0 l 1
 213 0 l 1
538 1360 m 1
 538 1168 l 1
 397 1168 l 1
 397 1360 l 1
 538 1360 l 1
182 1360 m 1
 182 1168 l 1
 42 1168 l 1
 42 1360 l 1
 182 1360 l 1
EndSplineSet
EndChar

StartChar: afii10106
Encoding: 1113 1113 266
Width: 1648
VWidth: 0
Flags: HW
LayerCount: 2
Fore
SplineSet
1004 511 m 1
 1004 120 l 1
 1224 120 l 2
 1344 120 1393 239 1393 329 c 0
 1393 419 1338 511 1218 511 c 2
 1004 511 l 1
107 -23 m 1
 98 116 l 1
 141 116 l 2
 267 116 269 168 269 372 c 2
 269 999 l 1
 1004 999 l 1
 1004 635 l 1
 1196 635 l 2
 1440 635 1541 490 1541 326 c 0
 1541 162 1446 0 1202 0 c 2
 851 0 l 1
 851 870 l 1
 422 870 l 1
 422 381 l 2
 422 83 419 -23 141 -23 c 2
 107 -23 l 1
EndSplineSet
EndChar

StartChar: afii10107
Encoding: 1114 1114 267
Width: 1515
VWidth: 0
Flags: HW
LayerCount: 2
Fore
SplineSet
875 511 m 1
 875 120 l 1
 1091 120 l 2
 1211 120 1260 239 1260 329 c 0
 1260 419 1205 511 1085 511 c 2
 875 511 l 1
722 594 m 1
 722 999 l 1
 875 999 l 1
 875 635 l 1
 1063 635 l 2
 1307 635 1408 490 1408 326 c 0
 1408 162 1313 0 1069 0 c 2
 722 0 l 1
 722 471 l 1
 283 471 l 1
 283 0 l 1
 130 0 l 1
 130 999 l 1
 283 999 l 1
 283 594 l 1
 722 594 l 1
EndSplineSet
EndChar

StartChar: afii10108
Encoding: 1115 1115 268
Width: 1128
VWidth: 0
Flags: HW
LayerCount: 2
Fore
SplineSet
366 0 m 1
 366 502 l 1
 395 504 470 519 576 519 c 0
 727 519 754 451 754 233 c 2
 754 0 l 1
 928 0 l 1
 928 269 l 2
 928 520 830 650 598 650 c 0
 473 650 398 633 366 630 c 1
 366 954 l 1
 704 954 l 1
 704 1060 l 1
 345 1060 l 1
 345 1347 l 1
 192 1347 l 1
 192 1060 l 1
 64 1060 l 1
 64 954 l 1
 192 954 l 1
 192 0 l 1
 366 0 l 1
EndSplineSet
EndChar

StartChar: afii10108.copy_1
Encoding: 65545 -1 269
Width: 1128
VWidth: 0
Flags: HW
LayerCount: 2
Fore
SplineSet
366 0 m 1
 366 502 l 1
 395 504 470 519 576 519 c 0
 727 519 754 451 754 233 c 2
 754 0 l 1
 928 0 l 1
 928 269 l 2
 928 520 830 650 598 650 c 0
 473 650 398 633 366 630 c 1
 366 954 l 1
 704 954 l 1
 704 1060 l 1
 345 1060 l 1
 345 1347 l 1
 192 1347 l 1
 192 1060 l 1
 64 1060 l 1
 64 954 l 1
 192 954 l 1
 192 0 l 1
 366 0 l 1
EndSplineSet
EndChar

StartChar: afii10145
Encoding: 1039 1039 272
Width: 1327
VWidth: 0
Flags: HW
LayerCount: 2
Fore
SplineSet
760 0 m 1
 1167 0 l 1
 1167 1346 l 1
 993 1346 l 1
 993 138 l 1
 334 138 l 1
 334 1346 l 1
 160 1346 l 1
 160 0 l 1
 601 0 l 1
 601 -275 l 1
 760 -275 l 1
 760 0 l 1
EndSplineSet
EndChar

StartChar: afii10193
Encoding: 1119 1119 273
Width: 1025
VWidth: 0
Flags: HW
LayerCount: 2
Fore
SplineSet
283 999 m 1
 283 120 l 1
 743 120 l 1
 743 999 l 1
 896 999 l 1
 896 0 l 1
 604 0 l 1
 598 -253 l 1
 474 -253 l 1
 470 0 l 1
 130 0 l 1
 130 999 l 1
 283 999 l 1
EndSplineSet
EndChar

StartChar: afii57929
Encoding: 700 700 274
Width: 458
VWidth: 0
Flags: HW
LayerCount: 2
Fore
SplineSet
121 1003 m 1
 206 1432 l 1
 349 1432 l 1
 227 1003 l 1
 121 1003 l 1
EndSplineSet
EndChar

StartChar: afii61352
Encoding: 8470 8470 275
Width: 2487
VWidth: 0
Flags: HW
LayerCount: 2
Fore
SplineSet
2204 219 m 1
 2204 219 2199 509 2199 555 c 2
 2199 1346 l 1
 2351 1346 l 1
 2351 0 l 1
 2173 0 l 1
 1914 377 1648 747 1392 1127 c 1
 1392 1127 1398 894 1398 786 c 2
 1398 0 l 1
 1245 0 l 1
 1245 1346 l 1
 1421 1346 l 1
 1681 970 1946 598 2204 219 c 1
576 886 m 0
 782 886 867 719 867 497 c 0
 867 279 783 112 576 112 c 0
 369 112 285 279 285 497 c 0
 285 719 370 886 576 886 c 0
576 -21 m 0
 861 -21 1042 200 1042 499 c 0
 1042 804 871 1019 576 1019 c 0
 281 1019 110 804 110 499 c 0
 110 200 291 -21 576 -21 c 0
EndSplineSet
EndChar

StartChar: agrave
Encoding: 224 224 276
Width: 1054
VWidth: 0
Flags: HW
LayerCount: 2
Fore
SplineSet
763 139 m 1
 697 21 566 -21 437 -21 c 0
 256 -21 116 75 116 263 c 0
 116 478 296 562 581 583 c 0
 627 587 756 597 756 597 c 1
 756 685 l 2
 756 823 704 886 561 886 c 0
 465 886 332 859 238 813 c 1
 230 832 198 917 191 936 c 1
 277 984 428 1019 557 1019 c 0
 801 1019 931 927 931 661 c 2
 931 0 l 1
 790 0 l 1
 785 24 768 115 763 139 c 1
450 102 m 0
 591 102 724 185 756 322 c 1
 756 490 l 1
 756 490 663 481 640 478 c 0
 379 447 290 402 290 262 c 0
 290 152 367 102 450 102 c 0
406 1520 m 1
 574 1168 l 1
 472 1168 l 1
 178 1520 l 1
 406 1520 l 1
EndSplineSet
EndChar

StartChar: alpha
Encoding: 945 945 277
Width: 451
VWidth: 0
Flags: HW
LayerCount: 2
Fore
SplineSet
223 484 m 0
 143 484 102 544 102 604 c 0
 102 664 143 724 223 724 c 0
 304 724 344 664 344 604 c 0
 344 544 304 484 223 484 c 0
EndSplineSet
EndChar

StartChar: alphatonos
Encoding: 940 940 278
Width: 451
VWidth: 0
Flags: HW
LayerCount: 2
Fore
SplineSet
223 484 m 0
 143 484 102 544 102 604 c 0
 102 664 143 724 223 724 c 0
 304 724 344 664 344 604 c 0
 344 544 304 484 223 484 c 0
EndSplineSet
EndChar

StartChar: amacron
Encoding: 257 257 279
Width: 1065
VWidth: 0
Flags: HW
LayerCount: 2
Fore
SplineSet
767 139 m 1
 701 21 569 -21 440 -21 c 0
 259 -21 119 75 119 263 c 0
 119 478 300 562 585 583 c 0
 631 587 760 597 760 597 c 1
 760 685 l 2
 760 823 708 886 565 886 c 0
 469 886 336 859 242 813 c 1
 234 832 202 917 195 936 c 1
 281 984 432 1019 561 1019 c 0
 805 1019 935 927 935 661 c 2
 935 0 l 1
 794 0 l 1
 789 24 772 115 767 139 c 1
454 102 m 0
 595 102 728 185 760 322 c 1
 760 490 l 1
 760 490 666 481 643 478 c 0
 382 447 294 402 294 262 c 0
 294 152 371 102 454 102 c 0
891 1294 m 1
 891 1168 l 1
 163 1168 l 1
 163 1294 l 1
 891 1294 l 1
EndSplineSet
EndChar

StartChar: ampersand
Encoding: 38 38 280
Width: 1258
VWidth: 0
Flags: HW
LayerCount: 2
Fore
SplineSet
514 828 m 1
 638 889 744 950 744 1066 c 0
 744 1172 660 1224 564 1224 c 0
 453 1224 378 1165 378 1060 c 0
 378 970 434 905 514 828 c 1
536 120 m 0
 666 120 772 166 860 236 c 1
 724 381 595 516 459 661 c 1
 321 591 219 504 219 369 c 0
 219 213 337 120 536 120 c 0
528 -21 m 0
 216 -21 58 125 58 359 c 0
 58 556 183 671 365 763 c 1
 271 866 207 941 207 1060 c 0
 207 1242 346 1355 561 1355 c 0
 747 1355 915 1264 915 1076 c 0
 915 916 779 812 607 732 c 1
 972 341 l 1
 1024 396 1068 471 1101 545 c 1
 1211 461 l 1
 1175 381 1125 302 1067 234 c 1
 1231 37 l 1
 1185 20 1134 4 1088 -10 c 1
 965 130 l 1
 852 39 710 -21 528 -21 c 0
EndSplineSet
EndChar

StartChar: aogonek
Encoding: 261 261 281
Width: 1049
VWidth: 0
Flags: HW
LayerCount: 2
Fore
SplineSet
445 102 m 0
 586 102 719 185 751 322 c 1
 751 490 l 1
 751 490 657 481 634 478 c 0
 373 447 285 402 285 262 c 0
 285 152 362 102 445 102 c 0
520 -394 m 0
 422 -394 344 -338 344 -234 c 0
 344 -140 421 -67 504 -16 c 1
 480 -20 456 -21 431 -21 c 0
 250 -21 110 75 110 263 c 0
 110 478 291 562 576 583 c 0
 622 587 751 597 751 597 c 1
 751 685 l 2
 751 823 699 886 556 886 c 0
 460 886 327 859 233 813 c 1
 225 832 193 917 186 936 c 1
 272 984 422 1019 551 1019 c 0
 795 1019 925 927 925 661 c 2
 925 0 l 1
 784 0 l 1
 779 24 763 115 758 139 c 1
 712 57 635 12 549 -8 c 1
 622 -8 l 1
 527 -78 458 -145 458 -207 c 0
 458 -255 501 -288 538 -288 c 0
 587 -288 616 -277 662 -258 c 1
 662 -365 l 1
 627 -380 569 -394 520 -394 c 0
EndSplineSet
EndChar

StartChar: approxequal
Encoding: 8776 8776 282
Width: 1177
VWidth: 0
Flags: HW
LayerCount: 2
Fore
SplineSet
207 622 m 1
 114 648 l 1
 143 803 235 899 379 899 c 0
 459 899 531 865 617 813 c 0
 701 762 753 737 805 737 c 0
 885 737 935 794 970 899 c 1
 1060 873 l 1
 1031 722 956 622 802 622 c 0
 723 622 649 653 548 716 c 0
 486 755 431 783 376 783 c 0
 284 783 233 720 207 622 c 1
207 255 m 1
 116 284 l 1
 146 441 234 536 379 536 c 0
 464 536 543 496 615 455 c 0
 687 415 751 374 807 374 c 0
 887 374 937 433 973 536 c 1
 1062 508 l 1
 1033 358 961 257 804 257 c 0
 728 257 653 288 550 350 c 1
 488 389 434 418 379 418 c 0
 287 418 236 353 207 255 c 1
EndSplineSet
EndChar

StartChar: aring
Encoding: 229 229 283
Width: 1051
VWidth: 0
Flags: HW
LayerCount: 2
Fore
SplineSet
759 139 m 1
 693 21 561 -21 432 -21 c 0
 251 -21 111 75 111 263 c 0
 111 478 292 562 577 583 c 0
 623 587 752 597 752 597 c 1
 752 685 l 2
 752 823 700 886 557 886 c 0
 461 886 328 859 234 813 c 1
 226 832 194 917 187 936 c 1
 273 984 423 1019 552 1019 c 0
 796 1019 926 927 926 661 c 2
 926 0 l 1
 785 0 l 1
 780 24 764 115 759 139 c 1
446 102 m 0
 587 102 720 185 752 322 c 1
 752 490 l 1
 752 490 658 481 635 478 c 0
 374 447 286 402 286 262 c 0
 286 152 363 102 446 102 c 0
521 1168 m 0
 426 1168 342 1231 342 1336 c 0
 342 1444 427 1514 519 1514 c 0
 614 1514 695 1438 695 1336 c 0
 695 1231 611 1168 521 1168 c 0
519 1234 m 0
 565 1234 606 1280 606 1336 c 0
 606 1392 569 1441 519 1441 c 0
 473 1441 430 1392 430 1336 c 0
 430 1275 463 1234 519 1234 c 0
EndSplineSet
EndChar

StartChar: aringacute
Encoding: 507 507 284
Width: 1051
VWidth: 0
Flags: HW
LayerCount: 2
Fore
SplineSet
759 139 m 1
 693 21 561 -21 432 -21 c 0
 251 -21 111 75 111 263 c 0
 111 478 292 562 577 583 c 0
 623 587 752 597 752 597 c 1
 752 685 l 2
 752 823 700 886 557 886 c 0
 461 886 328 859 234 813 c 1
 226 832 194 917 187 936 c 1
 273 984 423 1019 552 1019 c 0
 796 1019 926 927 926 661 c 2
 926 0 l 1
 785 0 l 1
 780 24 764 115 759 139 c 1
446 102 m 0
 587 102 720 185 752 322 c 1
 752 490 l 1
 752 490 658 481 635 478 c 0
 374 447 286 402 286 262 c 0
 286 152 363 102 446 102 c 0
521 1168 m 0
 426 1168 342 1231 342 1336 c 0
 342 1444 427 1514 519 1514 c 0
 614 1514 695 1438 695 1336 c 0
 695 1231 611 1168 521 1168 c 0
519 1234 m 0
 565 1234 606 1280 606 1336 c 0
 606 1392 569 1441 519 1441 c 0
 473 1441 430 1392 430 1336 c 0
 430 1275 463 1234 519 1234 c 0
866 2016 m 1
 571 1663 l 1
 467 1663 l 1
 636 2016 l 1
 866 2016 l 1
EndSplineSet
EndChar

StartChar: asciicircum
Encoding: 94 94 285
Width: 1143
VWidth: 0
Flags: HW
LayerCount: 2
Fore
SplineSet
109 536 m 1
 514 1380 l 1
 607 1380 l 1
 1035 536 l 1
 905 536 l 1
 561 1215 l 1
 241 536 l 1
 109 536 l 1
EndSplineSet
EndChar

StartChar: asciitilde
Encoding: 126 126 286
Width: 1132
VWidth: 0
Flags: HW
LayerCount: 2
Fore
SplineSet
147 458 m 1
 100 553 l 1
 143 654 224 733 347 733 c 0
 422 733 481 712 571 672 c 0
 658 634 730 600 785 600 c 0
 860 600 932 663 975 742 c 1
 1026 654 l 1
 980 543 899 470 781 470 c 0
 712 470 645 496 567 531 c 0
 475 573 408 603 343 603 c 0
 261 603 189 537 147 458 c 1
EndSplineSet
EndChar

StartChar: asterisk
Encoding: 42 42 287
Width: 1055
VWidth: 0
Flags: HW
LayerCount: 2
Fore
SplineSet
148 1148 m 1
 473 1011 l 1
 440 1385 l 1
 609 1385 l 1
 576 1011 l 1
 903 1148 l 1
 948 993 l 1
 614 917 l 1
 651 867 769 715 844 614 c 1
 798 584 749 559 703 529 c 1
 521 858 l 1
 349 529 l 1
 207 614 l 1
 433 917 l 1
 103 993 l 1
 148 1148 l 1
EndSplineSet
EndChar

StartChar: at
Encoding: 64 64 288
Width: 1634
VWidth: 0
Flags: HW
LayerCount: 2
Fore
SplineSet
757 360 m 0
 893 360 950 487 972 664 c 0
 981 732 989 803 996 872 c 1
 962 884 907 890 863 890 c 0
 690 890 611 737 611 554 c 0
 611 438 656 360 757 360 c 0
797 -119 m 0
 376 -119 93 148 93 587 c 0
 93 1025 408 1358 857 1358 c 0
 1246 1358 1542 1106 1542 713 c 0
 1542 418 1353 236 1166 236 c 0
 1069 236 998 292 984 391 c 1
 943 333 858 244 740 244 c 0
 583 244 481 365 481 561 c 0
 481 802 616 1000 862 1000 c 0
 948 1000 1061 976 1138 950 c 1
 1113 770 1079 586 1079 476 c 0
 1079 388 1114 347 1180 347 c 0
 1297 347 1422 508 1422 720 c 0
 1422 1048 1181 1245 849 1245 c 0
 477 1245 215 969 215 591 c 0
 215 215 449 -5 798 -5 c 0
 945 -5 1085 30 1204 98 c 1
 1236 -3 l 1
 1121 -80 968 -119 797 -119 c 0
EndSplineSet
EndChar

StartChar: atilde
Encoding: 227 227 289
Width: 1047
VWidth: 0
Flags: HW
LayerCount: 2
Fore
SplineSet
753 139 m 1
 687 21 556 -21 427 -21 c 0
 246 -21 106 75 106 263 c 0
 106 478 286 562 571 583 c 0
 617 587 746 597 746 597 c 1
 746 685 l 2
 746 823 694 886 551 886 c 0
 455 886 322 859 228 813 c 1
 220 832 188 917 181 936 c 1
 267 984 418 1019 547 1019 c 0
 791 1019 921 927 921 661 c 2
 921 0 l 1
 780 0 l 1
 775 24 758 115 753 139 c 1
440 102 m 0
 581 102 714 185 746 322 c 1
 746 490 l 1
 746 490 653 481 630 478 c 0
 369 447 280 402 280 262 c 0
 280 152 357 102 440 102 c 0
328 1168 m 1
 229 1168 l 1
 229 1304 289 1367 386 1367 c 0
 499 1367 655 1281 655 1281 c 1
 691 1284 694 1329 697 1367 c 1
 797 1367 l 1
 797 1242 757 1168 661 1168 c 0
 579 1168 377 1256 377 1256 c 1
 347 1255 331 1218 328 1168 c 1
EndSplineSet
EndChar

StartChar: b
Encoding: 98 98 290
Width: 1168
VWidth: 0
Flags: HW
LayerCount: 2
Fore
SplineSet
615 891 m 0
 806 891 906 738 906 499 c 0
 906 265 810 108 616 108 c 0
 410 108 324 252 324 482 c 0
 324 741 400 891 615 891 c 0
149 0 m 1
 307 0 l 1
 324 163 l 1
 379 45 505 -21 642 -21 c 0
 921 -21 1081 198 1081 504 c 0
 1081 802 903 1019 643 1019 c 0
 511 1019 385 955 319 862 c 1
 323 928 324 991 324 1053 c 2
 324 1431 l 1
 149 1417 l 1
 149 0 l 1
EndSplineSet
EndChar

StartChar: backslash
Encoding: 92 92 291
Width: 850
VWidth: 0
Flags: HW
LayerCount: 2
Fore
SplineSet
625 -55 m 1
 80 1332 l 1
 222 1332 l 1
 767 -55 l 1
 625 -55 l 1
EndSplineSet
EndChar

StartChar: bar
Encoding: 124 124 292
Width: 406
VWidth: 0
Flags: HW
LayerCount: 2
Fore
SplineSet
142 -322 m 5
 142 1437 l 1
 280 1437 l 1
 280 -322 l 5
 142 -322 l 5
EndSplineSet
EndChar

StartChar: beta
Encoding: 946 946 293
Width: 451
VWidth: 0
Flags: HW
LayerCount: 2
Fore
SplineSet
223 484 m 0
 143 484 102 544 102 604 c 0
 102 664 143 724 223 724 c 0
 304 724 344 664 344 604 c 0
 344 544 304 484 223 484 c 0
EndSplineSet
EndChar

StartChar: braceleft
Encoding: 123 123 294
Width: 717
VWidth: 0
Flags: HW
LayerCount: 2
Fore
SplineSet
619 -130 m 1
 619 -256 l 1
 390 -255 298 -155 298 56 c 2
 298 245 l 2
 298 401 273 506 104 506 c 1
 104 638 l 1
 296 641 298 729 298 898 c 2
 298 1119 l 2
 298 1308 412 1400 619 1400 c 1
 619 1275 l 1
 484 1273 449 1217 449 1067 c 2
 449 826 l 2
 449 715 396 639 280 570 c 1
 402 531 449 427 449 318 c 2
 449 76 l 2
 449 -78 485 -128 619 -130 c 1
EndSplineSet
EndChar

StartChar: braceright
Encoding: 125 125 295
Width: 726
VWidth: 0
Flags: HW
LayerCount: 2
Fore
SplineSet
101 -256 m 1
 101 -130 l 1
 233 -128 271 -78 271 76 c 2
 271 318 l 2
 271 434 313 490 439 575 c 1
 317 613 271 718 271 826 c 2
 271 1067 l 2
 271 1217 235 1273 101 1275 c 1
 101 1400 l 1
 328 1400 421 1297 421 1087 c 2
 421 898 l 2
 421 741 441 640 617 638 c 1
 617 506 l 1
 447 506 421 401 421 245 c 2
 421 25 l 2
 421 -162 314 -255 101 -256 c 1
EndSplineSet
EndChar

StartChar: bracketleft
Encoding: 91 91 296
Width: 643
VWidth: 0
Flags: HW
LayerCount: 2
Fore
SplineSet
294 1229 m 1
 294 -147 l 1
 549 -147 l 1
 549 -267 l 1
 136 -267 l 1
 136 1350 l 1
 549 1350 l 1
 549 1229 l 1
 294 1229 l 1
EndSplineSet
EndChar

StartChar: bracketright
Encoding: 93 93 297
Width: 645
VWidth: 0
Flags: HW
LayerCount: 2
Fore
SplineSet
96 1229 m 1
 96 1350 l 1
 509 1350 l 1
 509 -267 l 1
 96 -267 l 1
 96 -147 l 1
 351 -147 l 1
 351 1229 l 1
 96 1229 l 1
EndSplineSet
EndChar

StartChar: breve
Encoding: 728 728 298
Width: 686
VWidth: 0
Flags: HW
LayerCount: 2
Fore
SplineSet
573 1404 m 1
 467 1404 l 1
 467 1317 409 1276 343 1276 c 0
 277 1276 222 1317 222 1404 c 1
 116 1404 l 1
 116 1247 231 1182 343 1182 c 0
 456 1182 573 1247 573 1404 c 1
EndSplineSet
EndChar

StartChar: brokenbar
Encoding: 166 166 299
Width: 399
VWidth: 0
Flags: HW
LayerCount: 2
Fore
SplineSet
134 794 m 1
 134 1437 l 1
 267 1437 l 1
 267 794 l 1
 134 794 l 1
134 -363 m 1
 134 282 l 1
 267 282 l 1
 267 -363 l 1
 134 -363 l 1
EndSplineSet
EndChar

StartChar: bullet
Encoding: 8226 8226 300
Width: 756
VWidth: 0
Flags: HW
LayerCount: 2
Fore
SplineSet
374 378 m 0
 223 378 106 516 106 680 c 0
 106 847 234 988 378 988 c 0
 525 988 646 850 646 685 c 0
 646 518 521 378 374 378 c 0
EndSplineSet
EndChar

StartChar: c
Encoding: 99 99 301
Width: 894
VWidth: 0
Flags: HW
LayerCount: 2
Fore
SplineSet
546 -21 m 0
 265 -21 80 195 80 496 c 0
 80 810 272 1019 552 1019 c 0
 657 1019 761 990 816 950 c 1
 774 832 l 1
 703 870 641 886 575 886 c 0
 365 886 254 733 254 495 c 0
 254 265 361 112 575 112 c 0
 661 112 715 138 787 175 c 1
 810 51 l 1
 744 3 646 -21 546 -21 c 0
EndSplineSet
EndChar

StartChar: cacute
Encoding: 263 263 302
Width: 962
VWidth: 0
Flags: HW
LayerCount: 2
Fore
SplineSet
574 -21 m 0
 293 -21 108 195 108 496 c 0
 108 810 301 1019 581 1019 c 0
 686 1019 789 990 844 950 c 1
 803 832 l 1
 732 870 669 886 603 886 c 0
 393 886 283 733 283 495 c 0
 283 265 389 112 603 112 c 0
 689 112 743 138 815 175 c 1
 838 51 l 1
 772 3 674 -21 574 -21 c 0
824 1521 m 1
 529 1168 l 1
 425 1168 l 1
 594 1521 l 1
 824 1521 l 1
EndSplineSet
EndChar

StartChar: caron
Encoding: 711 711 303
Width: 728
VWidth: 0
Flags: HW
LayerCount: 2
Fore
SplineSet
268 1138 m 1
 98 1491 l 1
 217 1491 l 1
 364 1208 l 1
 511 1491 l 1
 632 1491 l 1
 462 1138 l 1
 268 1138 l 1
EndSplineSet
EndChar

StartChar: ccaron
Encoding: 269 269 304
Width: 965
VWidth: 0
Flags: HW
LayerCount: 2
Fore
SplineSet
580 -21 m 0
 299 -21 114 195 114 496 c 0
 114 810 306 1019 586 1019 c 0
 691 1019 795 990 850 950 c 1
 808 832 l 1
 737 870 675 886 609 886 c 0
 399 886 288 733 288 495 c 0
 288 265 395 112 609 112 c 0
 695 112 749 138 821 175 c 1
 844 51 l 1
 778 3 680 -21 580 -21 c 0
749 1521 m 1
 579 1168 l 1
 385 1168 l 1
 215 1521 l 1
 334 1521 l 1
 480 1237 l 1
 627 1521 l 1
 749 1521 l 1
EndSplineSet
EndChar

StartChar: ccedilla
Encoding: 231 231 305
Width: 917
VWidth: 0
Flags: HW
LayerCount: 2
Fore
SplineSet
503 -17 m 1
 465 -396 l 1
 325 -396 l 1
 427 -8 l 1
 449 -8 l 1
 233 43 97 238 97 496 c 0
 97 810 290 1019 570 1019 c 0
 675 1019 779 990 834 950 c 1
 792 832 l 1
 721 870 658 886 592 886 c 0
 382 886 272 733 272 495 c 0
 272 265 378 112 592 112 c 0
 678 112 732 138 804 175 c 1
 827 51 l 1
 761 3 663 -21 563 -21 c 0
 543 -21 522 -19 503 -17 c 1
EndSplineSet
EndChar

StartChar: ccircumflex
Encoding: 265 265 306
Width: 964
VWidth: 0
Flags: HW
LayerCount: 2
Fore
SplineSet
580 -21 m 0
 299 -21 114 195 114 496 c 0
 114 810 306 1019 586 1019 c 0
 691 1019 795 990 850 950 c 1
 808 832 l 1
 737 870 675 886 609 886 c 0
 399 886 288 733 288 495 c 0
 288 265 395 112 609 112 c 0
 695 112 749 138 821 175 c 1
 844 51 l 1
 778 3 680 -21 580 -21 c 0
480 1415 m 1
 334 1168 l 1
 215 1168 l 1
 385 1521 l 1
 579 1521 l 1
 749 1168 l 1
 627 1168 l 1
 480 1415 l 1
EndSplineSet
EndChar

StartChar: cdotaccent
Encoding: 267 267 307
Width: 957
VWidth: 0
Flags: HW
LayerCount: 2
Fore
SplineSet
574 -21 m 0
 293 -21 108 195 108 496 c 0
 108 810 301 1019 581 1019 c 0
 686 1019 789 990 844 950 c 1
 803 832 l 1
 732 870 669 886 603 886 c 0
 393 886 283 733 283 495 c 0
 283 265 389 112 603 112 c 0
 689 112 743 138 815 175 c 1
 838 51 l 1
 772 3 674 -21 574 -21 c 0
399 1168 m 1
 399 1348 l 1
 552 1348 l 1
 552 1168 l 1
 399 1168 l 1
EndSplineSet
EndChar

StartChar: cedilla
Encoding: 184 184 308
Width: 542
VWidth: 0
Flags: HW
LayerCount: 2
Fore
SplineSet
104 -373 m 1
 206 15 l 1
 284 15 l 1
 244 -373 l 1
 104 -373 l 1
EndSplineSet
EndChar

StartChar: cent
Encoding: 162 162 309
Width: 977
VWidth: 0
Flags: HW
LayerCount: 2
Fore
SplineSet
543 282 m 1
 543 1068 l 1
 382 1043 265 883 265 671 c 0
 265 464 374 309 543 282 c 1
630 1 m 1
 543 1 l 1
 543 155 l 1
 263 179 109 411 109 675 c 1
 111 936 273 1172 543 1196 c 1
 543 1361 l 1
 630 1361 l 1
 630 1196 l 1
 728 1190 811 1158 861 1111 c 1
 823 1003 l 1
 761 1045 694 1065 630 1070 c 1
 630 279 l 1
 707 286 775 318 824 353 c 1
 862 244 l 1
 805 191 717 161 630 155 c 1
 630 1 l 1
EndSplineSet
EndChar

StartChar: chi
Encoding: 967 967 310
Width: 1147
VWidth: 0
Flags: HW
LayerCount: 2
Fore
SplineSet
572 623 m 1
 840 998 l 1
 1032 998 l 1
 671 506 l 1
 1041 0 l 1
 854 0 l 1
 573 396 l 1
 292 0 l 1
 108 0 l 1
 474 508 l 1
 122 998 l 1
 306 998 l 1
 572 623 l 1
EndSplineSet
EndChar

StartChar: circumflex
Encoding: 710 710 311
Width: 728
VWidth: 0
Flags: HW
LayerCount: 2
Fore
SplineSet
98 1138 m 1
 268 1491 l 1
 462 1491 l 1
 632 1138 l 1
 511 1138 l 1
 364 1386 l 1
 217 1138 l 1
 98 1138 l 1
EndSplineSet
EndChar

StartChar: colon
Encoding: 58 58 312
Width: 435
VWidth: 0
Flags: HW
LayerCount: 2
Fore
SplineSet
125 813 m 1
 125 1023 l 1
 312 1023 l 1
 312 813 l 1
 125 813 l 1
125 -23 m 1
 125 189 l 1
 312 189 l 1
 312 -23 l 1
 125 -23 l 1
EndSplineSet
EndChar

StartChar: comma
Encoding: 44 44 313
Width: 436
VWidth: 0
Flags: HW
LayerCount: 2
Fore
SplineSet
196 -253 m 1
 100 -253 l 1
 115 -117 140 84 147 213 c 1
 327 213 l 1
 327 173 l 1
 295 45 243 -118 196 -253 c 1
EndSplineSet
EndChar

StartChar: commaaccentcomb
Encoding: 806 806 314
Width: 415
VWidth: 0
Flags: W
LayerCount: 2
Fore
SplineSet
67 -648 m 1
 162 -150 l 1
 327 -150 l 1
 183 -648 l 1
 67 -648 l 1
240 0 m 1
 240 0 l 1
197 0 m 1
 197 0 l 1
197 0 m 0
EndSplineSet
EndChar

StartChar: copyright
Encoding: 169 169 315
Width: 1671
VWidth: 0
Flags: HW
LayerCount: 2
Fore
SplineSet
828 -24 m 0
 471 -24 114 221 114 711 c 0
 114 1200 467 1443 824 1443 c 0
 1202 1443 1555 1198 1555 711 c 0
 1555 221 1206 -24 828 -24 c 0
828 61 m 0
 1238 61 1452 352 1452 708 c 0
 1452 1063 1236 1359 824 1359 c 0
 434 1359 217 1064 217 713 c 0
 217 354 434 61 828 61 c 0
834 246 m 0
 583 246 402 445 402 714 c 0
 402 983 577 1184 844 1184 c 0
 953 1184 1049 1154 1124 1102 c 1
 1069 1014 l 1
 1013 1054 920 1076 835 1076 c 0
 622 1076 526 907 526 718 c 0
 526 513 628 352 853 352 c 0
 937 352 1040 383 1091 418 c 1
 1127 320 l 1
 1063 279 947 246 834 246 c 0
EndSplineSet
EndChar

StartChar: currency
Encoding: 164 164 316
Width: 1180
VWidth: 0
Flags: HW
LayerCount: 2
Fore
SplineSet
591 385 m 0
 748 385 873 511 873 666 c 0
 873 821 747 948 591 948 c 0
 435 948 309 821 309 666 c 0
 309 510 435 385 591 385 c 0
1062 278 m 1
 999 211 l 1
 829 371 l 1
 763 317 682 287 591 287 c 0
 499 287 417 316 351 371 c 1
 184 212 l 1
 117 278 l 1
 286 439 l 1
 238 505 210 582 210 666 c 0
 210 749 238 827 286 893 c 1
 116 1056 l 1
 184 1121 l 1
 351 962 l 1
 417 1017 501 1046 591 1046 c 0
 682 1046 763 1016 829 961 c 1
 999 1121 l 1
 1063 1054 l 1
 895 893 l 1
 943 825 971 747 971 666 c 0
 971 580 944 504 896 439 c 1
 1062 278 l 1
EndSplineSet
EndChar

StartChar: d
Encoding: 100 100 317
Width: 1164
VWidth: 0
Flags: HW
LayerCount: 2
Fore
SplineSet
1016 0 m 1
 858 0 l 1
 841 163 l 1
 786 45 659 -21 522 -21 c 0
 243 -21 84 198 84 504 c 0
 84 807 261 1019 521 1019 c 0
 653 1019 779 955 845 862 c 1
 841 928 841 991 841 1053 c 2
 841 1417 l 1
 1016 1431 l 1
 1016 0 l 1
550 891 m 0
 359 891 258 738 258 499 c 0
 258 265 355 108 549 108 c 0
 755 108 841 252 841 482 c 0
 841 741 765 891 550 891 c 0
EndSplineSet
EndChar

StartChar: dagger
Encoding: 8224 8224 318
Width: 866
VWidth: 0
Flags: HW
LayerCount: 2
Fore
SplineSet
368 1046 m 1
 368 1421 l 1
 486 1421 l 1
 486 1046 l 1
 765 1046 l 1
 765 953 l 1
 486 953 l 1
 486 110 l 1
 368 110 l 1
 368 953 l 1
 96 953 l 1
 96 1046 l 1
 368 1046 l 1
EndSplineSet
EndChar

StartChar: daggerdbl
Encoding: 8225 8225 319
Width: 921
VWidth: 0
Flags: HW
LayerCount: 2
Fore
SplineSet
401 550 m 1
 401 964 l 1
 127 964 l 1
 127 1091 l 1
 401 1091 l 1
 401 1421 l 1
 520 1421 l 1
 520 1091 l 1
 799 1091 l 1
 799 964 l 1
 520 964 l 1
 520 550 l 1
 793 550 l 1
 793 425 l 1
 520 425 l 1
 520 110 l 1
 401 110 l 1
 401 425 l 1
 123 425 l 1
 123 550 l 1
 401 550 l 1
EndSplineSet
EndChar

StartChar: dcaron
Encoding: 271 271 320
Width: 1567
VWidth: 0
Flags: HW
LayerCount: 2
Fore
SplineSet
1041 0 m 1
 884 0 l 1
 866 163 l 1
 811 45 685 -21 548 -21 c 0
 269 -21 109 198 109 504 c 0
 109 807 287 1019 547 1019 c 0
 679 1019 805 955 871 862 c 1
 867 928 866 991 866 1053 c 2
 866 1417 l 1
 1041 1431 l 1
 1041 0 l 1
575 891 m 0
 384 891 284 738 284 499 c 0
 284 265 380 108 574 108 c 0
 780 108 866 252 866 482 c 0
 866 741 790 891 575 891 c 0
1491 1431 m 1
 1369 1002 l 1
 1263 1002 l 1
 1349 1431 l 1
 1491 1431 l 1
EndSplineSet
EndChar

StartChar: dcroat
Encoding: 273 273 321
Width: 1193
VWidth: 0
Flags: HW
LayerCount: 2
Fore
SplineSet
1058 0 m 1
 901 0 l 1
 884 163 l 1
 829 45 702 -21 565 -21 c 0
 286 -21 126 198 126 504 c 0
 126 807 304 1019 564 1019 c 0
 696 1019 822 955 888 862 c 1
 884 928 884 991 884 1053 c 2
 884 1417 l 1
 1058 1431 l 1
 1058 0 l 1
592 891 m 0
 401 891 301 738 301 499 c 0
 301 265 398 108 592 108 c 0
 798 108 884 252 884 482 c 0
 884 741 807 891 592 891 c 0
128 1118 m 1
 128 1220 l 1
 591 1220 l 1
 591 1118 l 1
 128 1118 l 1
EndSplineSet
EndChar

StartChar: degree
Encoding: 176 176 322
Width: 766
VWidth: 0
Flags: HW
LayerCount: 2
Fore
SplineSet
381 809 m 0
 226 809 98 939 98 1097 c 0
 98 1254 226 1382 381 1382 c 0
 537 1382 665 1254 665 1097 c 0
 665 944 541 809 381 809 c 0
382 919 m 0
 476 919 554 999 554 1097 c 0
 554 1196 476 1273 382 1273 c 0
 289 1273 210 1196 210 1097 c 0
 210 998 288 919 382 919 c 0
EndSplineSet
EndChar

StartChar: delta
Encoding: 948 948 323
Width: 451
VWidth: 0
Flags: HW
LayerCount: 2
Fore
SplineSet
223 484 m 0
 143 484 102 544 102 604 c 0
 102 664 143 724 223 724 c 0
 304 724 344 664 344 604 c 0
 344 544 304 484 223 484 c 0
EndSplineSet
EndChar

StartChar: dieresis
Encoding: 168 168 324
Width: 700
VWidth: 0
Flags: HW
LayerCount: 2
Fore
SplineSet
462 1141 m 1
 462 1334 l 1
 603 1334 l 1
 603 1141 l 1
 462 1141 l 1
107 1141 m 1
 107 1334 l 1
 248 1334 l 1
 248 1141 l 1
 107 1141 l 1
EndSplineSet
EndChar

StartChar: dieresistonos
Encoding: 901 901 325
Width: 425
VWidth: 0
Flags: HW
LayerCount: 2
Fore
SplineSet
216 484 m 0
 136 484 95 544 95 604 c 0
 95 664 136 724 216 724 c 0
 297 724 337 664 337 604 c 0
 337 544 297 484 216 484 c 0
EndSplineSet
EndChar

StartChar: divide
Encoding: 247 247 326
Width: 1119
VWidth: 0
Flags: HW
LayerCount: 2
Fore
SplineSet
460 854 m 1
 460 1061 l 1
 664 1061 l 1
 664 854 l 1
 460 854 l 1
101 476 m 1
 101 612 l 1
 1012 612 l 1
 1012 476 l 1
 101 476 l 1
460 20 m 1
 460 227 l 1
 633 227 l 1
 633 20 l 1
 460 20 l 1
EndSplineSet
EndChar

StartChar: dollar
Encoding: 36 36 327
Width: 1166
VWidth: 0
Flags: HW
LayerCount: 2
Fore
SplineSet
632 -177 m 1
 632 -18 l 1
 884 -3 1021 127 1021 393 c 0
 1021 615 851 705 653 772 c 1
 511 819 l 2
 384 862 300 914 300 1020 c 0
 300 1160 408 1227 576 1227 c 1
 744 1223 831 1197 918 1155 c 1
 964 1278 l 1
 878 1332 737 1360 632 1365 c 1
 632 1541 l 1
 546 1541 l 1
 546 1365 l 1
 315 1351 133 1259 133 1009 c 0
 133 829 269 739 452 676 c 2
 606 623 l 2
 774 565 854 497 854 388 c 0
 854 217 799 119 589 119 c 0
 392 119 289 167 178 222 c 1
 131 91 l 1
 209 43 374 -12 546 -19 c 1
 546 -177 l 1
 632 -177 l 1
EndSplineSet
EndChar

StartChar: dotaccent
Encoding: 729 729 328
Width: 374
VWidth: 0
Flags: HW
LayerCount: 2
Fore
SplineSet
111 1181 m 1
 111 1361 l 1
 264 1361 l 1
 264 1181 l 1
 111 1181 l 1
EndSplineSet
EndChar

StartChar: dotlessi
Encoding: 305 305 329
Width: 413
VWidth: 0
Flags: HW
LayerCount: 2
Fore
SplineSet
130 0 m 1
 130 999 l 1
 284 999 l 1
 284 0 l 1
 130 0 l 1
EndSplineSet
EndChar

StartChar: e
Encoding: 101 101 330
Width: 1020
VWidth: 0
Flags: HW
LayerCount: 2
Fore
SplineSet
560 -21 m 0
 271 -21 84 176 84 496 c 0
 84 806.610960821 272.386298335 1019 541 1019 c 0
 798 1019 945 832 945 553 c 0
 945 530 939 469 939 469 c 1
 256 469 l 1
 260 240 395 112 585 112 c 0
 710 112 811 151 899 197 c 1
 923 65 l 1
 827 7 709 -21 560 -21 c 0
260 576 m 1
 781 576 l 1
 776 776.862745098 707 888 546 888 c 0
 386.832358627 888 277.087752727 770.725486664 260 576 c 1
EndSplineSet
EndChar

StartChar: eacute
Encoding: 233 233 331
Width: 1070
VWidth: 0
Flags: HW
LayerCount: 2
Fore
SplineSet
274 582 m 1
 806 582 l 1
 801 780 697 888 544 888 c 0
 388 888 291 772 274 582 c 1
573 -21 m 0
 284 -21 97 176 97 496 c 0
 97 805 273 1015 537 1019 c 1
 785 1019 971 834 971 553 c 0
 971 530 965 469 965 469 c 1
 269 469 l 1
 273 240 402 112 592 112 c 0
 717 112 825 151 913 197 c 1
 936 65 l 1
 840 7 722 -21 573 -21 c 0
882 1521 m 1
 586 1168 l 1
 482 1168 l 1
 652 1521 l 1
 882 1521 l 1
EndSplineSet
EndChar

StartChar: ebreve
Encoding: 277 277 332
Width: 1102
VWidth: 0
Flags: HW
LayerCount: 2
Fore
SplineSet
288 582 m 1
 820 582 l 1
 815 780 711 888 558 888 c 0
 402 888 305 772 288 582 c 1
587 -21 m 0
 298 -21 111 176 111 496 c 0
 111 805 287 1015 551 1019 c 1
 799 1019 985 834 985 553 c 0
 985 530 978 469 978 469 c 1
 283 469 l 1
 287 240 416 112 606 112 c 0
 731 112 838 151 926 197 c 1
 950 65 l 1
 854 7 736 -21 587 -21 c 0
546 1168 m 0
 434 1168 319 1245 319 1402 c 1
 425 1402 l 1
 425 1315 480 1274 546 1274 c 0
 612 1274 670 1315 670 1402 c 1
 776 1402 l 1
 776 1245 659 1168 546 1168 c 0
EndSplineSet
EndChar

StartChar: ecaron
Encoding: 283 283 333
Width: 1102
VWidth: 0
Flags: HW
LayerCount: 2
Fore
SplineSet
288 582 m 1
 820 582 l 1
 815 780 711 888 558 888 c 0
 402 888 305 772 288 582 c 1
587 -21 m 0
 298 -21 111 176 111 496 c 0
 111 805 287 1015 551 1019 c 1
 799 1019 985 834 985 553 c 0
 985 530 978 469 978 469 c 1
 283 469 l 1
 287 240 416 112 606 112 c 0
 731 112 838 151 926 197 c 1
 950 65 l 1
 854 7 736 -21 587 -21 c 0
815 1521 m 1
 644 1168 l 1
 451 1168 l 1
 280 1521 l 1
 400 1521 l 1
 546 1237 l 1
 693 1521 l 1
 815 1521 l 1
EndSplineSet
EndChar

StartChar: ecircumflex
Encoding: 234 234 334
Width: 1102
VWidth: 0
Flags: HW
LayerCount: 2
Fore
SplineSet
288 582 m 1
 820 582 l 1
 815 780 711 888 558 888 c 0
 402 888 305 772 288 582 c 1
587 -21 m 0
 298 -21 111 176 111 496 c 0
 111 805 287 1015 551 1019 c 1
 799 1019 985 834 985 553 c 0
 985 530 978 469 978 469 c 1
 283 469 l 1
 287 240 416 112 606 112 c 0
 731 112 838 151 926 197 c 1
 950 65 l 1
 854 7 736 -21 587 -21 c 0
546 1415 m 1
 400 1168 l 1
 280 1168 l 1
 451 1521 l 1
 644 1521 l 1
 815 1168 l 1
 693 1168 l 1
 546 1415 l 1
EndSplineSet
EndChar

StartChar: edieresis
Encoding: 235 235 335
Width: 1070
VWidth: 0
Flags: HW
LayerCount: 2
Fore
SplineSet
274 582 m 1
 806 582 l 1
 801 780 697 888 544 888 c 0
 388 888 291 772 274 582 c 1
573 -21 m 0
 284 -21 97 176 97 496 c 0
 97 805 273 1015 537 1019 c 1
 785 1019 971 834 971 553 c 0
 971 530 965 469 965 469 c 1
 269 469 l 1
 273 240 402 112 592 112 c 0
 717 112 825 151 913 197 c 1
 936 65 l 1
 840 7 722 -21 573 -21 c 0
782 1360 m 1
 782 1168 l 1
 642 1168 l 1
 642 1360 l 1
 782 1360 l 1
427 1360 m 1
 427 1168 l 1
 287 1168 l 1
 287 1360 l 1
 427 1360 l 1
EndSplineSet
EndChar

StartChar: edotaccent
Encoding: 279 279 336
Width: 1099
VWidth: 0
Flags: HW
LayerCount: 2
Fore
SplineSet
286 582 m 1
 818 582 l 1
 813 780 709 888 556 888 c 0
 400 888 303 772 286 582 c 1
585 -21 m 0
 296 -21 109 176 109 496 c 0
 109 805 285 1015 549 1019 c 1
 797 1019 983 834 983 553 c 0
 983 530 976 469 976 469 c 1
 281 469 l 1
 285 240 414 112 604 112 c 0
 729 112 837 151 925 197 c 1
 948 65 l 1
 852 7 734 -21 585 -21 c 0
470 1168 m 1
 470 1348 l 1
 622 1348 l 1
 622 1168 l 1
 470 1168 l 1
EndSplineSet
EndChar

StartChar: egrave
Encoding: 232 232 337
Width: 1103
VWidth: 0
Flags: HW
LayerCount: 2
Fore
SplineSet
290 582 m 1
 823 582 l 1
 818 780 714 888 561 888 c 0
 405 888 307 772 290 582 c 1
590 -21 m 0
 301 -21 114 176 114 496 c 0
 114 805 289 1015 553 1019 c 1
 801 1019 987 834 987 553 c 0
 987 530 981 469 981 469 c 1
 286 469 l 1
 290 240 419 112 609 112 c 0
 734 112 841 151 929 197 c 1
 953 65 l 1
 857 7 739 -21 590 -21 c 0
433 1520 m 1
 602 1168 l 1
 500 1168 l 1
 206 1520 l 1
 433 1520 l 1
EndSplineSet
EndChar

StartChar: eight
Encoding: 56 56 338
Width: 1038
VWidth: 0
Flags: HW
LayerCount: 2
Fore
SplineSet
521 776 m 1
 688 813 775 903 775 1048 c 0
 775 1179 656 1249 521 1249 c 0
 386 1249 264 1179 264 1048 c 0
 264 903 354 813 521 776 c 1
521 117 m 0
 684 117 804 209 804 361 c 0
 804 511 684 603 521 640 c 1
 358 603 235 511 235 361 c 0
 235 209 358 117 521 117 c 0
521 -21 m 0
 278 -21 75 108 75 350 c 0
 75 525 181 659 358 717 c 1
 201 773 103 879 103 1045 c 0
 103 1264 280 1388 521 1388 c 0
 761 1388 935 1264 935 1045 c 0
 935 879 844 773 701 717 c 1
 864 659 964 525 964 350 c 0
 964 108 764 -21 521 -21 c 0
EndSplineSet
EndChar

StartChar: ellipsis
Encoding: 8230 8230 339
Width: 1354
VWidth: 0
Flags: HW
LayerCount: 2
Fore
SplineSet
228 -11 m 0
 148 -11 107 49 107 109 c 0
 107 169 147 229 228 229 c 0
 309 229 349 169 349 109 c 0
 349 49 309 -11 228 -11 c 0
678 -11 m 0
 598 -11 557 49 557 109 c 0
 557 169 597 229 678 229 c 0
 759 229 799 169 799 109 c 0
 799 49 759 -11 678 -11 c 0
1127 -11 m 0
 1047 -11 1006 49 1006 109 c 0
 1006 169 1046 229 1127 229 c 0
 1208 229 1249 169 1249 109 c 0
 1249 49 1208 -11 1127 -11 c 0
EndSplineSet
EndChar

StartChar: emacron
Encoding: 275 275 340
Width: 1114
VWidth: 0
Flags: HW
LayerCount: 2
Fore
SplineSet
294 582 m 1
 826 582 l 1
 821 780 717 888 564 888 c 0
 408 888 311 772 294 582 c 1
593 -21 m 0
 304 -21 117 176 117 496 c 0
 117 805 293 1015 557 1019 c 1
 805 1019 991 834 991 553 c 0
 991 530 985 469 985 469 c 1
 289 469 l 1
 293 240 422 112 612 112 c 0
 737 112 845 151 933 197 c 1
 956 65 l 1
 860 7 742 -21 593 -21 c 0
918 1294 m 1
 918 1168 l 1
 190 1168 l 1
 190 1294 l 1
 918 1294 l 1
EndSplineSet
EndChar

StartChar: emdash
Encoding: 8212 8212 341
Width: 2176
VWidth: 0
Flags: HW
LayerCount: 2
Fore
SplineSet
104 480 m 1
 104 614 l 1
 2067 614 l 1
 2067 480 l 1
 104 480 l 1
EndSplineSet
EndChar

StartChar: endash
Encoding: 8211 8211 342
Width: 1166
VWidth: 0
Flags: HW
LayerCount: 2
Fore
SplineSet
104 480 m 1
 104 614 l 1
 1057 614 l 1
 1057 480 l 1
 104 480 l 1
EndSplineSet
EndChar

StartChar: eng
Encoding: 331 331 343
Width: 1096
VWidth: 0
Flags: HW
LayerCount: 2
Fore
SplineSet
653 -275 m 2
 923 -275 965 -134 965 144 c 2
 965 612 l 2
 965 880 865 1019 635 1019 c 0
 492 1019 389 963 317 855 c 1
 298 998 l 1
 149 998 l 1
 149 0 l 1
 324 0 l 1
 324 546 l 2
 324 597 327 643 333 686 c 1
 363 801 439 889 601 889 c 0
 754 889 790 788 790 623 c 2
 790 95 l 2
 790 -100 774 -128 617 -128 c 2
 578 -128 l 1
 589 -275 l 1
 653 -275 l 2
EndSplineSet
EndChar

StartChar: eogonek
Encoding: 281 281 344
Width: 1099
VWidth: 0
Flags: HW
LayerCount: 2
Fore
SplineSet
286 582 m 1
 818 582 l 1
 813 780 709 888 556 888 c 0
 400 888 303 772 286 582 c 1
496 -394 m 0
 398 -394 320 -338 320 -234 c 0
 320 -138 401 -64 486 -13 c 1
 254 27 109 214 109 496 c 0
 109 805 285 1015 549 1019 c 1
 797 1019 983 834 983 553 c 0
 983 530 976 469 976 469 c 1
 281 469 l 1
 285 240 414 112 604 112 c 0
 729 112 837 151 925 197 c 1
 948 65 l 1
 852 7 734 -21 585 -21 c 2
 581 -21 l 1
 495 -87 434 -149 434 -207 c 0
 434 -255 477 -288 514 -288 c 0
 563 -288 593 -277 639 -258 c 1
 639 -365 l 1
 604 -380 545 -394 496 -394 c 0
EndSplineSet
EndChar

StartChar: epsilon
Encoding: 949 949 345
Width: 451
VWidth: 0
Flags: HW
LayerCount: 2
Fore
SplineSet
223 484 m 0
 143 484 102 544 102 604 c 0
 102 664 143 724 223 724 c 0
 304 724 344 664 344 604 c 0
 344 544 304 484 223 484 c 0
EndSplineSet
EndChar

StartChar: epsilontonos
Encoding: 941 941 346
Width: 451
VWidth: 0
Flags: HW
LayerCount: 2
Fore
SplineSet
223 484 m 0
 143 484 102 544 102 604 c 0
 102 664 143 724 223 724 c 0
 304 724 344 664 344 604 c 0
 344 544 304 484 223 484 c 0
EndSplineSet
EndChar

StartChar: equal
Encoding: 61 61 347
Width: 1114
VWidth: 0
Flags: HW
LayerCount: 2
Fore
SplineSet
116 727 m 1
 116 858 l 1
 996 858 l 1
 996 727 l 1
 116 727 l 1
117 343 m 1
 117 472 l 1
 996 472 l 1
 996 343 l 1
 117 343 l 1
EndSplineSet
EndChar

StartChar: eta
Encoding: 951 951 348
Width: 451
VWidth: 0
Flags: HW
LayerCount: 2
Fore
SplineSet
223 484 m 0
 143 484 102 544 102 604 c 0
 102 664 143 724 223 724 c 0
 304 724 344 664 344 604 c 0
 344 544 304 484 223 484 c 0
EndSplineSet
EndChar

StartChar: etatonos
Encoding: 942 942 349
Width: 451
VWidth: 0
Flags: HW
LayerCount: 2
Fore
SplineSet
223 484 m 0
 143 484 102 544 102 604 c 0
 102 664 143 724 223 724 c 0
 304 724 344 664 344 604 c 0
 344 544 304 484 223 484 c 0
EndSplineSet
EndChar

StartChar: eth
Encoding: 240 240 350
Width: 1164
VWidth: 0
Flags: HW
LayerCount: 2
Fore
SplineSet
589 104 m 0
 786 104 895 247 895 430 c 0
 895 595 785 758 583 758 c 0
 390 758 279 614 279 441 c 0
 279 267 382 104 589 104 c 0
583 -23 m 0
 281 -23 114 193 114 442 c 0
 114 707 288 885 552 885 c 0
 671 885 751 836 803 798 c 1
 761 877 672 997 527 1144 c 1
 279 1042 l 1
 240 1162 l 1
 440 1241 l 1
 226 1445 l 1
 429 1445 l 1
 561 1300 l 1
 824 1403 l 1
 866 1286 l 1
 646 1201 l 1
 788 1046 891 921 958 804 c 1
 1021 686 1051 575 1051 448 c 0
 1051 181 892 -23 583 -23 c 0
EndSplineSet
EndChar

StartChar: exclam
Encoding: 33 33 351
Width: 484
VWidth: 0
Flags: HW
LayerCount: 2
Fore
SplineSet
243 -11 m 0
 163 -11 122 49 122 109 c 0
 122 169 163 229 243 229 c 0
 324 229 364 169 364 109 c 0
 364 49 324 -11 243 -11 c 0
332 1232 m 1
 281 396 l 1
 209 396 l 1
 153 1232 l 1
 153 1361 l 1
 332 1361 l 1
 332 1232 l 1
EndSplineSet
EndChar

StartChar: exclamdown
Encoding: 161 161 352
Width: 481
VWidth: 0
Flags: HW
LayerCount: 2
Fore
SplineSet
241 1134 m 0
 160 1134 120 1194 120 1254 c 0
 120 1314 160 1374 241 1374 c 0
 321 1374 362 1314 362 1254 c 0
 362 1194 321 1134 241 1134 c 0
331 131 m 1
 331 2 l 1
 152 2 l 1
 152 131 l 1
 203 967 l 1
 275 967 l 1
 331 131 l 1
EndSplineSet
EndChar

StartChar: f
Encoding: 102 102 353
Width: 631
VWidth: 0
Flags: HW
LayerCount: 2
Fore
SplineSet
60 981 m 1
 229 998 l 1
 229 1061 l 2
 229 1318 343 1410 521 1410 c 0
 566 1410 661 1398 679 1394 c 1
 667 1263 l 1
 642 1267 597 1273 561 1273 c 0
 459 1273 404 1230 404 1055 c 2
 404 998 l 1
 637 998 l 1
 637 886 l 1
 404 886 l 1
 404 0 l 1
 229 0 l 1
 229 886 l 1
 55 886 l 1
 60 981 l 1
EndSplineSet
EndChar

StartChar: five
Encoding: 53 53 354
Width: 990
VWidth: 0
Flags: HW
LayerCount: 2
Fore
SplineSet
411 -21 m 0
 252 -21 127 30 46 104 c 1
 105 232 l 1
 163 186 266 126 417 126 c 0
 619 126 739 254 739 432 c 0
 739 589 644 706 459 706 c 0
 373 706 299 679 242 616 c 1
 116 633 l 1
 151 1361 l 1
 849 1361 l 1
 836 1212 l 1
 280 1212 l 1
 275 1080 271 916 267 784 c 1
 340 830 414 849 490 849 c 0
 766 849 904 665 904 434 c 0
 904 162 718 -21 411 -21 c 0
EndSplineSet
EndChar

StartChar: florin
Encoding: 402 402 355
Width: 949
VWidth: 0
Flags: HW
LayerCount: 2
Fore
SplineSet
136 -326 m 0
 113 -326 86 -318 53 -308 c 1
 63 -175 l 1
 88 -185 109 -191 126 -191 c 0
 203 -191 237 -101 259 5 c 1
 317 255 354 530 402 787 c 1
 258 787 l 1
 268 924 l 1
 426 924 l 1
 446 1072 l 1
 471 1247 541 1408 740 1408 c 0
 775 1408 817 1399 856 1388 c 1
 849 1246 l 1
 816 1261 787 1268 762 1268 c 0
 667 1268 637 1214 622 1117 c 1
 587 924 l 1
 756 924 l 1
 746 787 l 1
 567 787 l 1
 446 118 l 1
 402 -116 343 -326 136 -326 c 0
EndSplineSet
EndChar

StartChar: four
Encoding: 52 52 356
Width: 1017
VWidth: 0
Flags: HW
LayerCount: 2
Fore
SplineSet
646 470 m 1
 646 1155 l 1
 191 470 l 1
 646 470 l 1
629 1361 m 1
 799 1361 l 1
 799 470 l 1
 966 470 l 1
 954 338 l 1
 799 338 l 1
 799 0 l 1
 646 0 l 1
 646 338 l 1
 31 338 l 1
 31 477 l 1
 629 1361 l 1
EndSplineSet
EndChar

StartChar: fraction
Encoding: 8260 8260 357
Width: 1075
VWidth: 0
Flags: HW
LayerCount: 2
Fore
SplineSet
88 0 m 1
 885 1408 l 1
 1004 1408 l 1
 207 0 l 1
 88 0 l 1
EndSplineSet
EndChar

StartChar: g
Encoding: 103 103 358
Width: 1153
VWidth: 0
Flags: HW
LayerCount: 2
Fore
SplineSet
258 504 m 0
 258 333 337 130 544 130 c 0
 759 130 841 291 841 470 c 2
 841 543 l 2
 841 732 755 891 548 891 c 0
 331 891 258 677 258 504 c 0
248 -390 m 1
 259 -262 l 1
 303 -271 401 -291 502 -291 c 0
 746 -291 841 -83 841 73 c 2
 841 191 l 1
 794 73 689 0 531 0 c 0
 235 0 84 249 84 496 c 0
 84 780 229 1019 534 1019 c 0
 667 1019 769 968 845 865 c 1
 857 998 l 1
 1016 998 l 1
 1016 196 l 2
 1016 -52 924 -425 515 -425 c 0
 396 -425 288 -400 248 -390 c 1
EndSplineSet
EndChar

StartChar: gamma
Encoding: 947 947 359
Width: 451
VWidth: 0
Flags: HW
LayerCount: 2
Fore
SplineSet
223 484 m 0
 143 484 102 544 102 604 c 0
 102 664 143 724 223 724 c 0
 304 724 344 664 344 604 c 0
 344 544 304 484 223 484 c 0
EndSplineSet
EndChar

StartChar: gbreve
Encoding: 287 287 360
Width: 1171
VWidth: 0
Flags: HW
LayerCount: 2
Fore
SplineSet
284 504 m 0
 284 333 363 130 570 130 c 0
 785 130 866 291 866 470 c 2
 866 543 l 2
 866 732 780 891 573 891 c 0
 356 891 284 677 284 504 c 0
368 -410 m 1
 344 -269 l 1
 409 -277 467 -288 568 -288 c 0
 812 -288 871 -180 871 22 c 0
 871 39 871 58 870 76 c 2
 866 164 l 1
 800 69 714 0 556 0 c 0
 260 0 109 249 109 496 c 0
 109 780 255 1019 560 1019 c 0
 693 1019 795 968 871 865 c 1
 883 998 l 1
 1041 998 l 1
 1041 72 l 2
 1041 -176 990 -429 581 -429 c 0
 462 -429 425 -418 368 -410 c 1
573 1168 m 0
 461 1168 347 1245 347 1402 c 1
 452 1402 l 1
 452 1315 507 1274 573 1274 c 0
 639 1274 697 1315 697 1402 c 1
 804 1402 l 1
 804 1245 686 1168 573 1168 c 0
EndSplineSet
EndChar

StartChar: gcaron
Encoding: 487 487 361
Width: 1171
VWidth: 0
Flags: HW
LayerCount: 2
Fore
SplineSet
284 504 m 0
 284 333 363 130 570 130 c 0
 785 130 866 291 866 470 c 2
 866 543 l 2
 866 732 780 891 573 891 c 0
 356 891 284 677 284 504 c 0
368 -410 m 1
 344 -269 l 1
 409 -277 467 -288 568 -288 c 0
 812 -288 871 -180 871 22 c 0
 871 39 871 58 870 76 c 2
 866 164 l 1
 800 69 714 0 556 0 c 0
 260 0 109 249 109 496 c 0
 109 780 255 1019 560 1019 c 0
 693 1019 795 968 871 865 c 1
 883 998 l 1
 1041 998 l 1
 1041 72 l 2
 1041 -176 990 -429 581 -429 c 0
 462 -429 425 -418 368 -410 c 1
843 1521 m 1
 672 1168 l 1
 479 1168 l 1
 308 1521 l 1
 428 1521 l 1
 573 1237 l 1
 721 1521 l 1
 843 1521 l 1
EndSplineSet
EndChar

StartChar: gcircumflex
Encoding: 285 285 362
Width: 1171
VWidth: 0
Flags: HW
LayerCount: 2
Fore
SplineSet
284 504 m 0
 284 333 363 130 570 130 c 0
 785 130 866 291 866 470 c 2
 866 543 l 2
 866 732 780 891 573 891 c 0
 356 891 284 677 284 504 c 0
368 -410 m 1
 344 -269 l 1
 409 -277 467 -288 568 -288 c 0
 812 -288 871 -180 871 22 c 0
 871 39 871 58 870 76 c 2
 866 164 l 1
 800 69 714 0 556 0 c 0
 260 0 109 249 109 496 c 0
 109 780 255 1019 560 1019 c 0
 693 1019 795 968 871 865 c 1
 883 998 l 1
 1041 998 l 1
 1041 72 l 2
 1041 -176 990 -429 581 -429 c 0
 462 -429 425 -418 368 -410 c 1
573 1415 m 1
 428 1168 l 1
 308 1168 l 1
 479 1521 l 1
 672 1521 l 1
 843 1168 l 1
 721 1168 l 1
 573 1415 l 1
EndSplineSet
EndChar

StartChar: gcommaaccent
Encoding: 291 291 363
Width: 1187
VWidth: 0
Flags: HW
LayerCount: 2
Fore
SplineSet
300 504 m 0
 300 333 379 130 586 130 c 0
 801 130 883 291 883 470 c 2
 883 543 l 2
 883 732 797 891 590 891 c 0
 373 891 300 677 300 504 c 0
384 -410 m 1
 360 -269 l 1
 425 -277 483 -288 584 -288 c 0
 828 -288 887 -180 887 22 c 0
 887 39 887 58 886 76 c 2
 883 164 l 1
 817 69 730 0 572 0 c 0
 276 0 126 249 126 496 c 0
 126 780 271 1019 576 1019 c 0
 709 1019 811 968 887 865 c 1
 899 998 l 1
 1057 998 l 1
 1057 72 l 2
 1057 -176 1007 -429 598 -429 c 0
 479 -429 441 -418 384 -410 c 1
124 1138 m 1
 274 1592 l 1
 401 1592 l 1
 301 1138 l 1
 124 1138 l 1
EndSplineSet
EndChar

StartChar: gdotaccent
Encoding: 289 289 364
Width: 1170
VWidth: 0
Flags: HW
LayerCount: 2
Fore
SplineSet
283 504 m 0
 283 333 362 130 569 130 c 0
 784 130 865 291 865 470 c 2
 865 543 l 2
 865 732 779 891 572 891 c 0
 355 891 283 677 283 504 c 0
367 -410 m 1
 343 -269 l 1
 408 -277 466 -288 567 -288 c 0
 811 -288 870 -180 870 22 c 0
 870 39 870 58 869 76 c 2
 865 164 l 1
 799 69 713 0 555 0 c 0
 259 0 108 249 108 496 c 0
 108 780 254 1019 559 1019 c 0
 692 1019 794 968 870 865 c 1
 882 998 l 1
 1040 998 l 1
 1040 72 l 2
 1040 -176 990 -429 581 -429 c 0
 462 -429 424 -418 367 -410 c 1
498 1168 m 1
 498 1348 l 1
 651 1348 l 1
 651 1168 l 1
 498 1168 l 1
EndSplineSet
EndChar

StartChar: germandbls
Encoding: 223 223 365
Width: 1103
VWidth: 0
Flags: HW
LayerCount: 2
Fore
SplineSet
302 0 m 1
 149 0 l 1
 149 952 l 2
 149 1222 279 1388 559 1388 c 0
 787 1388 895 1273 895 1076 c 0
 895 903 718 792 718 699 c 0
 718 588 1015 548 1048 317 c 0
 1075 127 945 -18 748 -18 c 0
 617 -18 493 22 436 56 c 1
 490 187 l 1
 548 156 657 116 734 116 c 0
 853 116 904 213 876 312 c 0
 832 465 560 521 560 684 c 0
 560 836 733 952 733 1077 c 0
 733 1187 671 1249 559 1249 c 0
 373 1249 302 1134 302 961 c 2
 302 0 l 1
EndSplineSet
EndChar

StartChar: grave
Encoding: 96 96 366
Width: 585
VWidth: 0
Flags: HW
LayerCount: 2
Fore
SplineSet
371 1138 m 1
 77 1491 l 1
 305 1491 l 1
 473 1138 l 1
 371 1138 l 1
EndSplineSet
EndChar

StartChar: greater
Encoding: 62 62 367
Width: 1102
VWidth: 0
Flags: HW
LayerCount: 2
Fore
SplineSet
123 1092 m 1
 995 638 l 1
 995 550 l 1
 121 138 l 1
 121 283 l 1
 825 599 l 1
 123 950 l 1
 123 1092 l 1
EndSplineSet
EndChar

StartChar: greaterequal
Encoding: 8805 8805 368
Width: 1112
VWidth: 0
Flags: HW
LayerCount: 2
Fore
SplineSet
121 7 m 1
 121 128 l 1
 995 128 l 1
 995 7 l 1
 121 7 l 1
148 1196 m 1
 979 733 l 1
 979 654 l 1
 145 213 l 1
 145 350 l 1
 838 693 l 1
 148 1059 l 1
 148 1196 l 1
EndSplineSet
EndChar

StartChar: guillemotleft
Encoding: 171 171 369
Width: 941
VWidth: 0
Flags: HW
LayerCount: 2
Fore
SplineSet
592 511 m 1
 824 168 l 1
 709 136 l 1
 434 516 l 1
 711 883 l 1
 827 851 l 1
 592 511 l 1
495 851 m 1
 246 511 l 1
 490 168 l 1
 362 136 l 1
 116 473 l 1
 98 516 l 1
 365 883 l 1
 495 851 l 1
EndSplineSet
EndChar

StartChar: guillemotright
Encoding: 187 187 370
Width: 960
VWidth: 0
Flags: HW
LayerCount: 2
Fore
SplineSet
592 883 m 1
 855 504 l 1
 589 136 l 1
 462 168 l 1
 708 511 l 1
 467 851 l 1
 592 883 l 1
233 883 m 1
 509 504 l 1
 232 136 l 1
 116 168 l 1
 351 511 l 1
 117 851 l 1
 233 883 l 1
EndSplineSet
EndChar

StartChar: guilsinglleft
Encoding: 8249 8249 371
Width: 560
VWidth: 0
Flags: HW
LayerCount: 2
Fore
SplineSet
236 531 m 1
 441 166 l 1
 315 166 l 1
 100 531 l 1
 319 894 l 1
 447 894 l 1
 236 531 l 1
EndSplineSet
EndChar

StartChar: guilsinglright
Encoding: 8250 8250 372
Width: 566
VWidth: 0
Flags: HW
LayerCount: 2
Fore
SplineSet
461 532 m 1
 242 166 l 1
 115 166 l 1
 325 532 l 1
 120 894 l 1
 247 894 l 1
 461 532 l 1
EndSplineSet
EndChar

StartChar: h
Encoding: 104 104 373
Width: 1102
VWidth: 0
Flags: HW
LayerCount: 2
Fore
SplineSet
149 1417 m 1
 324 1431 l 1
 324 864 l 1
 398 953 493 1019 631 1019 c 0
 861 1019 965 880 965 612 c 2
 965 0 l 1
 790 0 l 1
 790 623 l 2
 790 788 754 889 601 889 c 0
 439 889 363 801 333 686 c 1
 327 643 324 597 324 546 c 2
 324 0 l 1
 149 0 l 1
 149 1417 l 1
EndSplineSet
EndChar

StartChar: hbar
Encoding: 295 295 374
Width: 1130
VWidth: 0
Flags: HW
LayerCount: 2
Fore
SplineSet
195 1261 m 1
 195 1356 l 1
 348 1374 l 1
 348 1261 l 1
 599 1261 l 1
 599 1156 l 1
 348 1156 l 1
 348 864 l 1
 433 966 552 1023 704 1023 c 0
 912 1023 1007 866 1007 604 c 2
 1007 0 l 1
 854 0 l 1
 854 561 l 2
 854 787 824 892 654 892 c 0
 498 892 373 776 348 681 c 1
 348 0 l 1
 195 0 l 1
 195 1156 l 1
 110 1156 l 1
 110 1261 l 1
 195 1261 l 1
EndSplineSet
EndChar

StartChar: hcircumflex
Encoding: 293 293 375
Width: 1076
VWidth: 0
Flags: HW
LayerCount: 2
Fore
SplineSet
137 1417 m 1
 312 1431 l 1
 312 864 l 1
 386 953 481 1019 619 1019 c 0
 849 1019 953 880 953 612 c 2
 953 0 l 1
 778 0 l 1
 778 623 l 2
 778 788 742 889 589 889 c 0
 427 889 351 801 321 686 c 1
 315 643 312 597 312 546 c 2
 312 0 l 1
 137 0 l 1
 137 1417 l 1
543 1827 m 1
 398 1580 l 1
 278 1580 l 1
 449 1933 l 1
 642 1933 l 1
 813 1580 l 1
 691 1580 l 1
 543 1827 l 1
EndSplineSet
EndChar

StartChar: horncmb
Encoding: 795 795 376
Width: 437
VWidth: 0
Flags: HW
LayerCount: 2
Fore
SplineSet
190 142 m 0
 164 142 134 144 106 147 c 1
 106 233 l 1
 120 233 136 231 151 231 c 0
 204 231 220 272 220 322 c 0
 220 367 207 419 193 456 c 1
 299 456 l 1
 318 411 328 364 328 319 c 0
 328 223 282 142 190 142 c 0
EndSplineSet
EndChar

StartChar: hungarumlaut
Encoding: 733 733 377
Width: 743
VWidth: 0
Flags: HW
LayerCount: 2
Fore
SplineSet
329 1146 m 1
 512 1451 l 1
 649 1451 l 1
 421 1146 l 1
 329 1146 l 1
116 1146 m 1
 297 1451 l 1
 436 1451 l 1
 207 1146 l 1
 116 1146 l 1
EndSplineSet
EndChar

StartChar: hyphen
Encoding: 45 45 378
Width: 667
VWidth: 0
Flags: HW
LayerCount: 2
Fore
SplineSet
103 452 m 1
 103 586 l 1
 558 586 l 1
 558 452 l 1
 103 452 l 1
EndSplineSet
EndChar

StartChar: i
Encoding: 105 105 379
Width: 467
VWidth: 0
Flags: HW
LayerCount: 2
Fore
SplineSet
154 1181 m 1
 154 1361 l 1
 328 1361 l 1
 328 1181 l 1
 154 1181 l 1
154 0 m 1
 154 998 l 1
 328 998 l 1
 328 0 l 1
 154 0 l 1
EndSplineSet
EndChar

StartChar: iacute
Encoding: 237 237 380
Width: 606
VWidth: 0
Flags: HW
LayerCount: 2
Fore
SplineSet
133 0 m 1
 133 999 l 1
 287 999 l 1
 287 0 l 1
 133 0 l 1
557 1521 m 1
 262 1168 l 1
 158 1168 l 1
 328 1521 l 1
 557 1521 l 1
EndSplineSet
EndChar

StartChar: ibreve
Encoding: 301 301 381
Width: 637
VWidth: 0
Flags: HW
LayerCount: 2
Fore
SplineSet
241 0 m 1
 241 999 l 1
 395 999 l 1
 395 0 l 1
 241 0 l 1
316 1168 m 0
 204 1168 90 1245 90 1402 c 1
 196 1402 l 1
 196 1315 250 1274 316 1274 c 0
 382 1274 440 1315 440 1402 c 1
 547 1402 l 1
 547 1245 429 1168 316 1168 c 0
EndSplineSet
EndChar

StartChar: icircumflex
Encoding: 238 238 382
Width: 713
VWidth: 0
Flags: HW
LayerCount: 2
Fore
SplineSet
278 0 m 1
 278 999 l 1
 432 999 l 1
 432 0 l 1
 278 0 l 1
354 1415 m 1
 207 1168 l 1
 88 1168 l 1
 258 1521 l 1
 452 1521 l 1
 622 1168 l 1
 500 1168 l 1
 354 1415 l 1
EndSplineSet
EndChar

StartChar: idieresis
Encoding: 239 239 383
Width: 579
VWidth: 0
Flags: HW
LayerCount: 2
Fore
SplineSet
213 0 m 1
 213 999 l 1
 367 999 l 1
 367 0 l 1
 213 0 l 1
538 1360 m 1
 538 1168 l 1
 397 1168 l 1
 397 1360 l 1
 538 1360 l 1
182 1360 m 1
 182 1168 l 1
 42 1168 l 1
 42 1360 l 1
 182 1360 l 1
EndSplineSet
EndChar

StartChar: igrave
Encoding: 236 236 384
Width: 601
VWidth: 0
Flags: HW
LayerCount: 2
Fore
SplineSet
316 0 m 1
 316 999 l 1
 470 999 l 1
 470 0 l 1
 316 0 l 1
276 1520 m 1
 443 1168 l 1
 341 1168 l 1
 48 1520 l 1
 276 1520 l 1
EndSplineSet
EndChar

StartChar: ij
Encoding: 307 307 385
Width: 942
VWidth: 0
Flags: HW
LayerCount: 2
Fore
SplineSet
632 1181 m 1
 632 1361 l 1
 806 1361 l 1
 806 1181 l 1
 632 1181 l 1
456 -398 m 1
 436 -257 l 1
 483 -257 l 2
 620 -257 632 -219 632 -121 c 2
 632 -52 l 1
 632 998 l 1
 806 998 l 1
 806 -68 l 2
 806 -312 751 -398 503 -398 c 2
 456 -398 l 1
136 1181 m 1
 136 1361 l 1
 311 1361 l 1
 311 1181 l 1
 136 1181 l 1
136 0 m 1
 136 998 l 1
 311 998 l 1
 311 0 l 1
 136 0 l 1
EndSplineSet
EndChar

StartChar: imacron
Encoding: 299 299 386
Width: 893
VWidth: 0
Flags: HW
LayerCount: 2
Fore
SplineSet
369 0 m 1
 369 999 l 1
 523 999 l 1
 523 0 l 1
 369 0 l 1
810 1294 m 1
 810 1168 l 1
 82 1168 l 1
 82 1294 l 1
 810 1294 l 1
EndSplineSet
EndChar

StartChar: infinity
Encoding: 8734 8734 387
Width: 1622
VWidth: 0
Flags: HW
LayerCount: 2
Fore
SplineSet
1190 347 m 0
 1332 347 1399 461 1399 605 c 0
 1399 718 1310 813 1186 813 c 0
 1060 813 958 701 877 581 c 1
 989 428 1074 347 1190 347 c 0
434 347 m 0
 555 347 660 453 746 579 c 1
 661 713 558 813 427 813 c 0
 292 813 209 706 209 581 c 0
 209 463 299 347 434 347 c 0
432 231 m 0
 225 231 106 401 106 600 c 0
 106 781 249 925 428 925 c 0
 584 925 699 827 811 678 c 1
 916 822 1031 925 1190 925 c 0
 1397 925 1511 782 1511 584 c 0
 1511 376 1369 231 1188 231 c 0
 1050 231 935 313 811 478 c 1
 702 334 584 231 432 231 c 0
EndSplineSet
EndChar

StartChar: integral
Encoding: 8747 8747 388
Width: 672
VWidth: 0
Flags: HW
LayerCount: 2
Fore
SplineSet
148 -390 m 0
 102 -390 75 -383 38 -372 c 1
 37 -246 l 1
 58 -256 90 -258 122 -258 c 0
 231 -258 253 -184 253 -46 c 2
 253 1229 l 2
 253 1440 311 1598 492 1598 c 0
 538 1598 565 1588 602 1577 c 1
 603 1451 l 1
 582 1461 548 1465 516 1465 c 0
 407 1465 384 1393 384 1255 c 2
 384 -23 l 2
 384 -234 329 -390 148 -390 c 0
EndSplineSet
EndChar

StartChar: iogonek
Encoding: 303 303 389
Width: 537
VWidth: 0
Flags: HW
LayerCount: 2
Fore
SplineSet
224 1181 m 1
 224 1361 l 1
 399 1361 l 1
 399 1181 l 1
 224 1181 l 1
224 0 m 1
 224 998 l 1
 399 998 l 1
 399 0 l 1
 346 0 l 1
 260 -66 199 -129 199 -187 c 0
 199 -235 242 -268 279 -268 c 0
 328 -268 358 -257 404 -238 c 1
 404 -344 l 1
 369 -359 310 -373 261 -373 c 0
 163 -373 86 -317 86 -213 c 0
 86 -122 158 -50 238 0 c 1
 224 0 l 1
EndSplineSet
EndChar

StartChar: iota
Encoding: 953 953 390
Width: 451
VWidth: 0
Flags: HW
LayerCount: 2
Fore
SplineSet
223 484 m 0
 143 484 102 544 102 604 c 0
 102 664 143 724 223 724 c 0
 304 724 344 664 344 604 c 0
 344 544 304 484 223 484 c 0
EndSplineSet
EndChar

StartChar: iotadieresis
Encoding: 970 970 391
Width: 697
VWidth: 0
Flags: HW
LayerCount: 2
Fore
SplineSet
590 1334 m 1
 590 1141 l 1
 450 1141 l 1
 450 1334 l 1
 590 1334 l 1
235 1334 m 1
 235 1141 l 1
 95 1141 l 1
 95 1334 l 1
 235 1334 l 1
394 484 m 0
 314 484 273 544 273 604 c 0
 273 664 314 724 394 724 c 0
 475 724 515 664 515 604 c 0
 515 544 475 484 394 484 c 0
EndSplineSet
EndChar

StartChar: iotadieresistonos
Encoding: 912 912 392
Width: 517
VWidth: 0
Flags: HW
LayerCount: 2
Fore
SplineSet
279 484 m 0
 199 484 158 544 158 604 c 0
 158 664 199 724 279 724 c 0
 360 724 400 664 400 604 c 0
 400 544 360 484 279 484 c 0
230 1134 m 0
 150 1134 109 1194 109 1254 c 0
 109 1314 150 1374 230 1374 c 0
 311 1374 351 1314 351 1254 c 0
 351 1194 311 1134 230 1134 c 0
EndSplineSet
EndChar

StartChar: iotatonos
Encoding: 943 943 393
Width: 451
VWidth: 0
Flags: HW
LayerCount: 2
Fore
SplineSet
223 484 m 0
 143 484 102 544 102 604 c 0
 102 664 143 724 223 724 c 0
 304 724 344 664 344 604 c 0
 344 544 304 484 223 484 c 0
EndSplineSet
EndChar

StartChar: itilde
Encoding: 297 297 394
Width: 737
VWidth: 0
Flags: HW
LayerCount: 2
Fore
SplineSet
294 0 m 1
 294 999 l 1
 448 999 l 1
 448 0 l 1
 294 0 l 1
185 1168 m 1
 87 1168 l 1
 87 1304 147 1367 244 1367 c 0
 357 1367 512 1281 512 1281 c 1
 548 1284 552 1329 555 1367 c 1
 654 1367 l 1
 654 1242 615 1168 519 1168 c 0
 437 1168 235 1256 235 1256 c 1
 205 1255 188 1218 185 1168 c 1
EndSplineSet
EndChar

StartChar: j
Encoding: 106 106 395
Width: 417
VWidth: 0
Flags: HW
LayerCount: 2
Fore
SplineSet
123 1181 m 1
 123 1361 l 1
 298 1361 l 1
 298 1181 l 1
 123 1181 l 1
-53 -398 m 1
 -73 -257 l 1
 -25 -257 l 2
 112 -257 124 -219 124 -121 c 0
 124 -101 123 -78 123 -52 c 2
 123 998 l 1
 298 998 l 1
 298 -68 l 2
 298 -312 243 -398 -5 -398 c 2
 -53 -398 l 1
EndSplineSet
EndChar

StartChar: jcircumflex
Encoding: 309 309 396
Width: 723
VWidth: 0
Flags: HW
LayerCount: 2
Fore
SplineSet
181 -457 m 1
 161 -319 l 1
 208 -319 l 2
 374 -319 379 -260 379 -110 c 2
 379 999 l 1
 531 999 l 1
 531 -126 l 2
 531 -370 476 -457 228 -457 c 2
 181 -457 l 1
345 1415 m 1
 198 1168 l 1
 79 1168 l 1
 249 1521 l 1
 443 1521 l 1
 613 1168 l 1
 491 1168 l 1
 345 1415 l 1
EndSplineSet
EndChar

StartChar: k
Encoding: 107 107 397
Width: 1041
VWidth: 0
Flags: HW
LayerCount: 2
Fore
SplineSet
149 1417 m 1
 324 1431 l 1
 324 512 l 1
 791 998 l 1
 1006 998 l 1
 560 532 l 1
 1013 0 l 1
 817 0 l 1
 435 446 l 1
 324 350 l 1
 324 0 l 1
 149 0 l 1
 149 1417 l 1
EndSplineSet
EndChar

StartChar: kappa
Encoding: 954 954 398
Width: 1047
VWidth: 0
Flags: HW
LayerCount: 2
Fore
SplineSet
130 0 m 1
 130 999 l 1
 281 999 l 1
 281 520 l 1
 292 532 303 544 315 557 c 0
 431 690 589 855 724 998 c 1
 917 998 l 1
 502 555 l 1
 946 0 l 1
 757 0 l 1
 392 469 l 1
 281 373 l 1
 281 0 l 1
 130 0 l 1
EndSplineSet
EndChar

StartChar: kcommaaccent
Encoding: 311 311 399
Width: 1105
VWidth: 0
Flags: HW
LayerCount: 2
Fore
SplineSet
137 1417 m 1
 312 1431 l 1
 312 558 l 1
 445 702 619 837 779 998 c 1
 994 998 l 1
 548 578 l 1
 1001 0 l 1
 805 0 l 1
 423 491 l 1
 312 396 l 1
 312 0 l 1
 137 0 l 1
 137 1417 l 1
450 -602 m 1
 538 -148 l 1
 687 -148 l 1
 556 -602 l 1
 450 -602 l 1
EndSplineSet
EndChar

StartChar: kgreenlandic
Encoding: 312 312 400
Width: 1047
VWidth: 0
Flags: HW
LayerCount: 2
Fore
SplineSet
130 0 m 1
 130 999 l 1
 281 999 l 1
 281 520 l 1
 292 532 303 544 315 557 c 0
 431 690 589 855 724 998 c 1
 917 998 l 1
 502 555 l 1
 946 0 l 1
 757 0 l 1
 392 469 l 1
 281 373 l 1
 281 0 l 1
 130 0 l 1
EndSplineSet
EndChar

StartChar: l
Encoding: 108 108 401
Width: 534
VWidth: 0
Flags: HW
LayerCount: 2
Fore
SplineSet
379 -18 m 0
 222 -18 149 45 149 305 c 2
 149 1417 l 1
 324 1431 l 1
 324 345 l 2
 324 148 339 116 420 116 c 0
 446 116 444 116 473 120 c 1
 489 -9 l 1
 441 -16 405 -18 379 -18 c 0
EndSplineSet
EndChar

StartChar: lacute
Encoding: 314 314 402
Width: 728
VWidth: 0
Flags: HW
LayerCount: 2
Fore
SplineSet
401 -18 m 0
 244 -18 135 45 135 305 c 2
 135 1417 l 1
 309 1431 l 1
 309 360 l 2
 309 163 313 116 445 116 c 0
 471 116 513 118 542 122 c 1
 551 -3 l 1
 485 -14 427 -18 401 -18 c 0
690 1933 m 1
 395 1580 l 1
 291 1580 l 1
 460 1933 l 1
 690 1933 l 1
EndSplineSet
EndChar

StartChar: lambda
Encoding: 955 955 403
Width: 451
VWidth: 0
Flags: HW
LayerCount: 2
Fore
SplineSet
223 484 m 0
 143 484 102 544 102 604 c 0
 102 664 143 724 223 724 c 0
 304 724 344 664 344 604 c 0
 344 544 304 484 223 484 c 0
EndSplineSet
EndChar

StartChar: lcaron
Encoding: 318 318 404
Width: 1078
VWidth: 0
Flags: HW
LayerCount: 2
Fore
SplineSet
401 -18 m 0
 244 -18 135 45 135 305 c 2
 135 1417 l 1
 309 1431 l 1
 309 360 l 2
 309 163 313 116 445 116 c 0
 471 116 513 118 542 122 c 1
 551 -3 l 1
 485 -14 427 -18 401 -18 c 0
1001 1431 m 1
 879 1002 l 1
 774 1002 l 1
 857 1431 l 1
 1001 1431 l 1
EndSplineSet
EndChar

StartChar: lcommaaccent
Encoding: 316 316 405
Width: 643
VWidth: 0
Flags: HW
LayerCount: 2
Fore
SplineSet
401 -18 m 0
 244 -18 135 45 135 305 c 2
 135 1417 l 1
 309 1431 l 1
 309 360 l 2
 309 163 313 116 445 116 c 0
 471 116 513 118 542 122 c 1
 551 -3 l 1
 485 -14 427 -18 401 -18 c 0
224 -620 m 1
 311 -167 l 1
 460 -167 l 1
 329 -620 l 1
 224 -620 l 1
EndSplineSet
EndChar

StartChar: ldot
Encoding: 320 320 406
Width: 1062
VWidth: 0
Flags: HW
LayerCount: 2
Fore
SplineSet
401 -18 m 0
 244 -18 135 45 135 305 c 2
 135 1417 l 1
 309 1431 l 1
 309 360 l 2
 309 163 313 116 445 116 c 0
 471 116 513 118 542 122 c 1
 551 -3 l 1
 485 -14 427 -18 401 -18 c 0
802 511 m 1
 802 691 l 1
 955 691 l 1
 955 511 l 1
 802 511 l 1
EndSplineSet
EndChar

StartChar: less
Encoding: 60 60 407
Width: 1094
VWidth: 0
Flags: HW
LayerCount: 2
Fore
SplineSet
976 944 m 1
 270 599 l 1
 974 277 l 1
 974 133 l 1
 102 551 l 1
 102 639 l 1
 976 1087 l 1
 976 944 l 1
EndSplineSet
EndChar

StartChar: lessequal
Encoding: 8804 8804 408
Width: 1114
VWidth: 0
Flags: HW
LayerCount: 2
Fore
SplineSet
116 7 m 1
 116 128 l 1
 995 128 l 1
 995 7 l 1
 116 7 l 1
972 1057 m 1
 284 697 l 1
 972 349 l 1
 972 211 l 1
 144 652 l 1
 144 733 l 1
 972 1194 l 1
 972 1057 l 1
EndSplineSet
EndChar

StartChar: logicalnot
Encoding: 172 172 409
Width: 1128
VWidth: 0
Flags: HW
LayerCount: 2
Fore
SplineSet
1008 751 m 1
 1008 237 l 1
 885 237 l 1
 885 620 l 1
 106 620 l 1
 106 751 l 1
 1008 751 l 1
EndSplineSet
EndChar

StartChar: lozenge
Encoding: 9674 9674 410
Width: 1088
VWidth: 0
Flags: HW
LayerCount: 2
Fore
SplineSet
536 96 m 1
 644 296 754 497 862 697 c 1
 757 896 650 1095 547 1296 c 1
 438 1098 329 898 221 699 c 1
 327 499 428 293 536 96 c 1
982 699 m 1
 587 -44 l 1
 488 -44 l 1
 101 697 l 1
 494 1441 l 1
 595 1441 l 1
 982 699 l 1
EndSplineSet
EndChar

StartChar: lslash
Encoding: 322 322 411
Width: 740
VWidth: 0
Flags: HW
LayerCount: 2
Fore
SplineSet
480 -19 m 0
 237 -19 216 97 216 426 c 2
 216 521 l 1
 114 442 l 1
 114 574 l 1
 216 653 l 1
 216 1356 l 1
 369 1374 l 1
 369 772 l 1
 529 896 l 1
 529 763 l 1
 369 640 l 1
 369 392 l 2
 369 175 372 107 502 107 c 0
 527 107 583 112 628 116 c 1
 642 -7 l 1
 596 -12 497 -19 480 -19 c 0
EndSplineSet
EndChar

StartChar: m
Encoding: 109 109 412
Width: 1767
VWidth: 0
Flags: HW
LayerCount: 2
Fore
SplineSet
326 525 m 2
 326 0 l 1
 151 0 l 1
 151 0 149 936 149 998 c 1
 299 998 l 1
 318 855 l 1
 373 939 484 1019 636 1019 c 0
 830 1019 902 920 930 842 c 1
 1004 962 1142 1019 1285 1019 c 0
 1511 1019 1636 886 1636 642 c 2
 1636 0 l 1
 1461 0 l 1
 1461 520 l 2
 1461 734 1436 889 1259 889 c 2
 1254 889 l 1
 1113 887 1030 813 990 684 c 1
 985 640 982 586 982 535 c 2
 982 0 l 1
 806 0 l 1
 806 563 l 2
 806 787 758 889 611 889 c 2
 597 889 l 1
 449 883 367 797 334 677 c 1
 329 631 326 581 326 525 c 2
EndSplineSet
EndChar

StartChar: macron
Encoding: 175 175 413
Width: 966
VWidth: 0
Flags: HW
LayerCount: 2
Fore
SplineSet
121 1352 m 1
 121 1479 l 1
 849 1479 l 1
 849 1352 l 1
 121 1352 l 1
EndSplineSet
EndChar

StartChar: middot
Encoding: 65546 -1 414
Width: 372
VWidth: 0
Flags: HW
LayerCount: 2
Fore
SplineSet
107 511 m 1
 107 691 l 1
 260 691 l 1
 260 511 l 1
 107 511 l 1
EndSplineSet
EndChar

StartChar: minus
Encoding: 8722 8722 415
Width: 1124
VWidth: 0
Flags: HW
LayerCount: 2
Fore
SplineSet
104 486 m 1
 104 621 l 1
 1015 621 l 1
 1015 486 l 1
 104 486 l 1
EndSplineSet
EndChar

StartChar: mu
Encoding: 956 956 416
Width: 451
VWidth: 0
Flags: HW
LayerCount: 2
Fore
SplineSet
223 484 m 0
 143 484 102 544 102 604 c 0
 102 664 143 724 223 724 c 0
 304 724 344 664 344 604 c 0
 344 544 304 484 223 484 c 0
EndSplineSet
EndChar

StartChar: multiply
Encoding: 215 215 417
Width: 920
VWidth: 0
Flags: HW
LayerCount: 2
Fore
SplineSet
373 550 m 1
 114 848 l 1
 210 935 l 1
 460 649 l 1
 709 935 l 1
 805 848 l 1
 546 550 l 1
 805 253 l 1
 707 165 l 1
 460 450 l 1
 212 165 l 1
 114 253 l 1
 373 550 l 1
EndSplineSet
EndChar

StartChar: n
Encoding: 110 110 418
Width: 1096
VWidth: 0
Flags: HW
LayerCount: 2
Fore
SplineSet
149 0 m 1
 324 0 l 1
 324 546 l 2
 324 597 327 643 333 686 c 1
 363 801 439 889 601 889 c 0
 754 889 790 788 790 623 c 2
 790 0 l 1
 965 0 l 1
 965 612 l 2
 965 880 865 1019 635 1019 c 0
 492 1019 389 963 317 855 c 1
 298 998 l 1
 149 998 l 1
 149 0 l 1
EndSplineSet
EndChar

StartChar: nacute
Encoding: 324 324 419
Width: 1073
VWidth: 0
Flags: HW
LayerCount: 2
Fore
SplineSet
130 998 m 1
 278 998 l 1
 298 855 l 1
 370 963 473 1019 616 1019 c 0
 846 1019 945 880 945 612 c 2
 945 0 l 1
 771 0 l 1
 771 623 l 2
 771 788 734 889 581 889 c 0
 419 889 344 801 314 686 c 1
 308 643 305 597 305 546 c 2
 305 0 l 1
 130 0 l 1
 130 998 l 1
885 1521 m 1
 590 1168 l 1
 486 1168 l 1
 655 1521 l 1
 885 1521 l 1
EndSplineSet
EndChar

StartChar: ncaron
Encoding: 328 328 420
Width: 1071
VWidth: 0
Flags: HW
LayerCount: 2
Fore
SplineSet
130 998 m 1
 278 998 l 1
 298 855 l 1
 370 963 473 1019 616 1019 c 0
 846 1019 945 880 945 612 c 2
 945 0 l 1
 771 0 l 1
 771 623 l 2
 771 788 734 889 581 889 c 0
 419 889 344 801 314 686 c 1
 308 643 305 597 305 546 c 2
 305 0 l 1
 130 0 l 1
 130 998 l 1
805 1521 m 1
 634 1168 l 1
 441 1168 l 1
 270 1521 l 1
 390 1521 l 1
 536 1237 l 1
 683 1521 l 1
 805 1521 l 1
EndSplineSet
EndChar

StartChar: ncommaaccent
Encoding: 326 326 421
Width: 1068
VWidth: 0
Flags: HW
LayerCount: 2
Fore
SplineSet
130 998 m 1
 278 998 l 1
 298 855 l 1
 370 963 473 1019 616 1019 c 0
 846 1019 945 880 945 612 c 2
 945 0 l 1
 771 0 l 1
 771 623 l 2
 771 788 734 889 581 889 c 0
 419 889 344 801 314 686 c 1
 308 643 305 597 305 546 c 2
 305 0 l 1
 130 0 l 1
 130 998 l 1
420 -602 m 1
 506 -148 l 1
 656 -148 l 1
 525 -602 l 1
 420 -602 l 1
EndSplineSet
EndChar

StartChar: nine
Encoding: 57 57 422
Width: 1075
VWidth: 0
Flags: HW
LayerCount: 2
Fore
SplineSet
533 681 m 0
 735 681 814 809 814 966 c 0
 814 1123 726 1249 539 1249 c 0
 352 1249 245 1118 245 961 c 0
 245 794 349 681 533 681 c 0
422 0 m 1
 222 0 l 1
 705 599 l 1
 647 568 573 544 500 544 c 0
 271 544 73 707 73 958 c 0
 73 1201 255 1388 533 1388 c 0
 824 1388 986 1194 986 948 c 0
 986 768 928 648 788 459 c 1
 700 342 422 0 422 0 c 1
EndSplineSet
EndChar

StartChar: notequal
Encoding: 8800 8800 423
Width: 1116
VWidth: 0
Flags: HW
LayerCount: 2
Fore
SplineSet
116 436 m 1
 419 436 l 1
 557 713 l 1
 123 713 l 1
 115 833 l 1
 611 833 l 1
 739 1098 l 1
 844 1084 l 1
 737 833 l 1
 990 833 l 1
 998 713 l 1
 683 713 l 1
 541 436 l 1
 992 436 l 1
 998 320 l 1
 487 320 l 1
 355 44 l 1
 252 62 l 1
 360 320 l 1
 123 320 l 1
 116 436 l 1
EndSplineSet
EndChar

StartChar: ntilde
Encoding: 241 241 424
Width: 1072
VWidth: 0
Flags: HW
LayerCount: 2
Fore
SplineSet
130 998 m 1
 278 998 l 1
 298 855 l 1
 370 963 473 1019 616 1019 c 0
 846 1019 945 880 945 612 c 2
 945 0 l 1
 771 0 l 1
 771 623 l 2
 771 788 734 889 581 889 c 0
 419 889 344 801 314 686 c 1
 308 643 305 597 305 546 c 2
 305 0 l 1
 130 0 l 1
 130 998 l 1
352 1168 m 1
 254 1168 l 1
 254 1304 313 1367 410 1367 c 0
 523 1367 680 1281 680 1281 c 1
 716 1284 719 1329 722 1367 c 1
 822 1367 l 1
 822 1242 781 1168 685 1168 c 0
 603 1168 401 1256 401 1256 c 1
 371 1255 355 1218 352 1168 c 1
EndSplineSet
EndChar

StartChar: nu
Encoding: 957 957 425
Width: 451
VWidth: 0
Flags: HW
LayerCount: 2
Fore
SplineSet
223 484 m 0
 143 484 102 544 102 604 c 0
 102 664 143 724 223 724 c 0
 304 724 344 664 344 604 c 0
 344 544 304 484 223 484 c 0
EndSplineSet
EndChar

StartChar: numbersign
Encoding: 35 35 426
Width: 1079
VWidth: 0
Flags: HW
LayerCount: 2
Fore
SplineSet
411 488 m 1
 626 488 l 1
 698 847 l 1
 484 847 l 1
 411 488 l 1
286 488 m 1
 341 846 l 1
 180 846 l 1
 188 960 l 1
 364 960 l 1
 440 1330 l 1
 579 1330 l 1
 507 960 l 1
 720 960 l 1
 784 1330 l 1
 901 1330 l 1
 841 960 l 1
 966 960 l 1
 954 847 l 1
 820 847 l 1
 759 488 l 1
 893 488 l 1
 884 373 l 1
 743 373 l 1
 664 -21 l 1
 527 -21 l 1
 603 373 l 1
 389 373 l 1
 317 -21 l 1
 199 -21 l 1
 266 373 l 1
 110 373 l 1
 119 488 l 1
 286 488 l 1
EndSplineSet
EndChar

StartChar: o
Encoding: 111 111 427
Width: 1092
VWidth: 0
Flags: HW
LayerCount: 2
Fore
SplineSet
546 -21 m 0
 831 -21 1012 200 1012 499 c 0
 1012 804 841 1019 546 1019 c 0
 251 1019 80 804 80 499 c 0
 80 200 261 -21 546 -21 c 0
546 886 m 0
 744 886 837 719 837 497 c 0
 837 279 745 112 546 112 c 0
 347 112 254 279 254 497 c 0
 254 719 348 886 546 886 c 0
EndSplineSet
EndChar

StartChar: oacute
Encoding: 243 243 428
Width: 1155
VWidth: 0
Flags: HW
LayerCount: 2
Fore
SplineSet
575 886 m 0
 781 886 866 719 866 497 c 0
 866 279 782 112 575 112 c 0
 368 112 284 279 284 497 c 0
 284 719 369 886 575 886 c 0
575 -21 m 0
 860 -21 1041 200 1041 499 c 0
 1041 804 870 1019 575 1019 c 0
 280 1019 109 804 109 499 c 0
 109 200 290 -21 575 -21 c 0
923 1521 m 1
 627 1168 l 1
 523 1168 l 1
 693 1521 l 1
 923 1521 l 1
EndSplineSet
EndChar

StartChar: obreve
Encoding: 335 335 429
Width: 1153
VWidth: 0
Flags: HW
LayerCount: 2
Fore
SplineSet
575 886 m 0
 781 886 866 719 866 497 c 0
 866 279 782 112 575 112 c 0
 368 112 284 279 284 497 c 0
 284 719 369 886 575 886 c 0
575 -21 m 0
 860 -21 1041 200 1041 499 c 0
 1041 804 870 1019 575 1019 c 0
 280 1019 109 804 109 499 c 0
 109 200 290 -21 575 -21 c 0
573 1168 m 0
 461 1168 347 1245 347 1402 c 1
 452 1402 l 1
 452 1315 507 1274 573 1274 c 0
 639 1274 697 1315 697 1402 c 1
 804 1402 l 1
 804 1245 686 1168 573 1168 c 0
EndSplineSet
EndChar

StartChar: ocircumflex
Encoding: 244 244 430
Width: 1154
VWidth: 0
Flags: HW
LayerCount: 2
Fore
SplineSet
576 886 m 0
 782 886 867 719 867 497 c 0
 867 279 783 112 576 112 c 0
 369 112 285 279 285 497 c 0
 285 719 370 886 576 886 c 0
576 -21 m 0
 861 -21 1042 200 1042 499 c 0
 1042 804 871 1019 576 1019 c 0
 281 1019 110 804 110 499 c 0
 110 200 291 -21 576 -21 c 0
574 1415 m 1
 429 1168 l 1
 308 1168 l 1
 480 1521 l 1
 672 1521 l 1
 844 1168 l 1
 722 1168 l 1
 574 1415 l 1
EndSplineSet
EndChar

StartChar: odieresis
Encoding: 246 246 431
Width: 1155
VWidth: 0
Flags: HW
LayerCount: 2
Fore
SplineSet
576 886 m 0
 782 886 867 719 867 497 c 0
 867 279 783 112 576 112 c 0
 369 112 285 279 285 497 c 0
 285 719 370 886 576 886 c 0
576 -21 m 0
 861 -21 1042 200 1042 499 c 0
 1042 804 871 1019 576 1019 c 0
 281 1019 110 804 110 499 c 0
 110 200 291 -21 576 -21 c 0
824 1360 m 1
 824 1168 l 1
 683 1168 l 1
 683 1360 l 1
 824 1360 l 1
469 1360 m 1
 469 1168 l 1
 329 1168 l 1
 329 1360 l 1
 469 1360 l 1
EndSplineSet
EndChar

StartChar: oe
Encoding: 339 339 432
Width: 1821
VWidth: 0
Flags: HW
LayerCount: 2
Fore
SplineSet
1035 577 m 1
 1556 577 l 1
 1556 589 l 1
 1552 794 1458 899 1312 899 c 0
 1161 899 1052 774 1035 577 c 1
571 103 m 0
 787 103 873 294 873 498 c 0
 873 710 794 897 569 897 c 0
 354 897 267 699 267 495 c 0
 267 294 353 103 571 103 c 0
569 -23 m 0
 267 -23 109 211 109 498 c 0
 109 784 269 1023 571 1023 c 0
 754 1023 879 938 949 809 c 1
 1024 938 1164 1018 1321 1023 c 1
 1569 1023 1704 836 1704 541 c 0
 1704 526 1702 489 1702 472 c 1
 1029 472 l 1
 1029 247 1160 108 1336 108 c 0
 1478 108 1571 160 1642 208 c 1
 1689 97 l 1
 1607 27 1491 -23 1331 -23 c 0
 1154 -23 1021 56 945 192 c 1
 872 64 746 -23 569 -23 c 0
EndSplineSet
EndChar

StartChar: ogonek
Encoding: 731 731 433
Width: 536
VWidth: 0
Flags: HW
LayerCount: 2
Fore
SplineSet
283 -381 m 0
 185 -381 107 -325 107 -221 c 0
 107 -122 194 -46 281 5 c 1
 385 5 l 1
 290 -65 221 -133 221 -195 c 0
 221 -243 264 -276 301 -276 c 0
 350 -276 380 -265 426 -246 c 1
 426 -352 l 1
 391 -367 332 -381 283 -381 c 0
EndSplineSet
EndChar

StartChar: ograve
Encoding: 242 242 434
Width: 1155
VWidth: 0
Flags: HW
LayerCount: 2
Fore
SplineSet
578 886 m 0
 784 886 869 719 869 497 c 0
 869 279 785 112 578 112 c 0
 371 112 287 279 287 497 c 0
 287 719 372 886 578 886 c 0
578 -21 m 0
 863 -21 1044 200 1044 499 c 0
 1044 804 873 1019 578 1019 c 0
 283 1019 112 804 112 499 c 0
 112 200 293 -21 578 -21 c 0
460 1520 m 1
 629 1168 l 1
 527 1168 l 1
 233 1520 l 1
 460 1520 l 1
EndSplineSet
EndChar

StartChar: ohorn
Encoding: 417 417 435
Width: 1444
VWidth: 0
Flags: HW
LayerCount: 2
Fore
SplineSet
575 886 m 0
 781 886 866 719 866 497 c 0
 866 279 782 112 575 112 c 0
 368 112 284 279 284 497 c 0
 284 719 369 886 575 886 c 0
575 -21 m 0
 860 -21 1041 200 1041 499 c 0
 1041 804 870 1019 575 1019 c 0
 280 1019 109 804 109 499 c 0
 109 200 290 -21 575 -21 c 0
1199 705 m 0
 1173 705 1144 708 1116 711 c 1
 1116 796 l 1
 1130 796 1144 794 1159 794 c 0
 1212 794 1228 835 1228 885 c 0
 1228 930 1215 982 1201 1019 c 1
 1309 1019 l 1
 1328 974 1336 928 1336 883 c 0
 1336 787 1291 705 1199 705 c 0
EndSplineSet
EndChar

StartChar: ohungarumlaut
Encoding: 337 337 436
Width: 1159
VWidth: 0
Flags: HW
LayerCount: 2
Fore
SplineSet
575 886 m 0
 781 886 866 719 866 497 c 0
 866 279 782 112 575 112 c 0
 368 112 284 279 284 497 c 0
 284 719 369 886 575 886 c 0
575 -21 m 0
 860 -21 1041 200 1041 499 c 0
 1041 804 870 1019 575 1019 c 0
 280 1019 109 804 109 499 c 0
 109 200 290 -21 575 -21 c 0
956 1472 m 1
 728 1168 l 1
 635 1168 l 1
 819 1472 l 1
 956 1472 l 1
743 1472 m 1
 513 1168 l 1
 422 1168 l 1
 602 1472 l 1
 743 1472 l 1
EndSplineSet
EndChar

StartChar: omacron
Encoding: 333 333 437
Width: 1165
VWidth: 0
Flags: HW
LayerCount: 2
Fore
SplineSet
581 886 m 0
 787 886 873 719 873 497 c 0
 873 279 788 112 581 112 c 0
 374 112 290 279 290 497 c 0
 290 719 375 886 581 886 c 0
581 -21 m 0
 866 -21 1047 200 1047 499 c 0
 1047 804 876 1019 581 1019 c 0
 286 1019 116 804 116 499 c 0
 116 200 296 -21 581 -21 c 0
945 1294 m 1
 945 1168 l 1
 217 1168 l 1
 217 1294 l 1
 945 1294 l 1
EndSplineSet
EndChar

StartChar: omega
Encoding: 969 969 438
Width: 451
VWidth: 0
Flags: HW
LayerCount: 2
Fore
SplineSet
223 484 m 0
 143 484 102 544 102 604 c 0
 102 664 143 724 223 724 c 0
 304 724 344 664 344 604 c 0
 344 544 304 484 223 484 c 0
EndSplineSet
EndChar

StartChar: omegatonos
Encoding: 974 974 439
Width: 451
VWidth: 0
Flags: HW
LayerCount: 2
Fore
SplineSet
223 484 m 0
 143 484 102 544 102 604 c 0
 102 664 143 724 223 724 c 0
 304 724 344 664 344 604 c 0
 344 544 304 484 223 484 c 0
EndSplineSet
EndChar

StartChar: omicron
Encoding: 959 959 440
Width: 1152
VWidth: 0
Flags: HW
LayerCount: 2
Fore
SplineSet
575 886 m 0
 781 886 866 719 866 497 c 0
 866 279 782 112 575 112 c 0
 368 112 284 279 284 497 c 0
 284 719 369 886 575 886 c 0
575 -21 m 0
 860 -21 1041 200 1041 499 c 0
 1041 804 870 1019 575 1019 c 0
 280 1019 109 804 109 499 c 0
 109 200 290 -21 575 -21 c 0
EndSplineSet
EndChar

StartChar: omicrontonos
Encoding: 972 972 441
Width: 451
VWidth: 0
Flags: HW
LayerCount: 2
Fore
SplineSet
223 484 m 0
 143 484 102 544 102 604 c 0
 102 664 143 724 223 724 c 0
 304 724 344 664 344 604 c 0
 344 544 304 484 223 484 c 0
EndSplineSet
EndChar

StartChar: one
Encoding: 49 49 442
Width: 975
VWidth: 0
Flags: HW
LayerCount: 2
Fore
SplineSet
870 0 m 1
 144 0 l 1
 144 140 l 1
 449 140 l 1
 449 1193 l 1
 377 1146 268 1106 173 1100 c 1
 173 1242 l 1
 253 1248 393 1310 465 1361 c 1
 610 1361 l 1
 610 140 l 1
 870 140 l 1
 870 0 l 1
EndSplineSet
EndChar

StartChar: onehalf
Encoding: 189 189 443
Width: 1494
VWidth: 0
Flags: HW
LayerCount: 2
Fore
SplineSet
233 0 m 1
 1070 1408 l 1
 1193 1408 l 1
 355 0 l 1
 233 0 l 1
1363 -27 m 1
 860 -27 l 1
 860 57 l 1
 1084 282 1257 447 1257 561 c 0
 1257 643 1197 692 1132 692 c 0
 1067 692 992 657 938 577 c 1
 868 636 l 1
 911 735 1027 790 1136 790 c 0
 1259 790 1374 721 1374 572 c 0
 1374 395 1203 244 1005 63 c 1
 1363 63 l 1
 1363 -27 l 1
133 679 m 1
 240 679 l 1
 240 1282 l 1
 205 1259 161 1235 121 1214 c 1
 121 1307 l 1
 177 1335 221 1364 257 1400 c 1
 345 1400 l 1
 345 679 l 1
 458 679 l 1
 458 592 l 1
 133 592 l 1
 133 679 l 1
EndSplineSet
EndChar

StartChar: onequarter
Encoding: 188 188 444
Width: 1506
VWidth: 0
Flags: HW
LayerCount: 2
Fore
SplineSet
1205 652 m 1
 980 326 l 1
 1204 326 l 1
 1205 652 l 1
233 0 m 1
 1070 1408 l 1
 1193 1408 l 1
 355 0 l 1
 233 0 l 1
1195 818 m 1
 1304 818 l 1
 1304 326 l 1
 1390 326 l 1
 1399 218 l 1
 1302 218 l 1
 1302 36 l 1
 1205 36 l 1
 1205 218 l 1
 850 218 l 1
 850 308 l 1
 1195 818 l 1
133 679 m 1
 240 679 l 1
 240 1282 l 1
 205 1259 161 1235 121 1214 c 1
 121 1307 l 1
 177 1335 221 1364 257 1400 c 1
 345 1400 l 1
 345 679 l 1
 458 679 l 1
 458 592 l 1
 133 592 l 1
 133 679 l 1
EndSplineSet
EndChar

StartChar: ordfeminine
Encoding: 170 170 445
Width: 751
VWidth: 0
Flags: HW
LayerCount: 2
Fore
SplineSet
345 853 m 0
 453 853 498 953 503 1063 c 1
 503 1087 l 1
 390 1075 234 1080 234 954 c 0
 234 881 279 853 345 853 c 0
131 578 m 1
 131 674 l 1
 627 674 l 1
 627 578 l 1
 131 578 l 1
328 752 m 0
 212 752 126 831 126 956 c 0
 126 1131 287 1159 503 1173 c 1
 503 1189 l 1
 500 1295 474 1340 385 1340 c 0
 319 1340 255 1335 189 1260 c 1
 134 1331 l 1
 202 1420 289 1447 390 1447 c 0
 508 1447 610 1380 610 1210 c 1
 608 894 l 2
 608 882 608 854 613 771 c 1
 506 771 l 1
 503 843 l 1
 467 788 408 752 328 752 c 0
EndSplineSet
EndChar

StartChar: ordmasculine
Encoding: 186 186 446
Width: 788
VWidth: 0
Flags: HW
LayerCount: 2
Fore
SplineSet
396 752 m 0
 203 752 103 904 103 1101 c 0
 103 1294 209 1447 394 1447 c 0
 580 1447 683 1292 683 1097 c 0
 683 905 580 752 396 752 c 0
396 856 m 0
 510 856 571 967 571 1095 c 0
 571 1230 508 1340 392 1340 c 0
 280 1340 217 1229 217 1098 c 0
 217 962 277 856 396 856 c 0
EndSplineSet
EndChar

StartChar: oslash
Encoding: 248 248 447
Width: 1158
VWidth: 0
Flags: HW
LayerCount: 2
Fore
SplineSet
582 103 m 0
 798 103 884 294 884 498 c 0
 884 637 849 766 762 838 c 1
 460 126 l 1
 495 111 536 103 582 103 c 0
396 166 m 1
 697 876 l 1
 663 890 625 897 580 897 c 0
 365 897 267 699 267 495 c 0
 267 365 308 239 396 166 c 1
299 -250 m 1
 235 -216 l 1
 342 37 l 1
 191 124 109 299 109 498 c 0
 109 784 280 1023 582 1023 c 0
 643 1023 699 1013 748 996 c 1
 853 1244 l 1
 923 1216 l 1
 816 965 l 1
 966 878 1042 701 1042 500 c 0
 1042 223 879 -23 580 -23 c 0
 517 -23 460 -13 409 6 c 1
 299 -250 l 1
EndSplineSet
EndChar

StartChar: oslashacute
Encoding: 511 511 448
Width: 1158
VWidth: 0
Flags: HW
LayerCount: 2
Fore
SplineSet
582 103 m 0
 798 103 884 294 884 498 c 0
 884 637 849 766 762 838 c 1
 460 126 l 1
 495 111 536 103 582 103 c 0
396 166 m 1
 697 876 l 1
 663 890 625 897 580 897 c 0
 365 897 267 699 267 495 c 0
 267 365 308 239 396 166 c 1
299 -250 m 1
 235 -216 l 1
 342 37 l 1
 191 124 109 299 109 498 c 0
 109 784 280 1023 582 1023 c 0
 643 1023 699 1013 748 996 c 1
 853 1244 l 1
 923 1216 l 1
 816 965 l 1
 966 878 1042 701 1042 500 c 0
 1042 223 879 -23 580 -23 c 0
 517 -23 460 -13 409 6 c 1
 299 -250 l 1
845 1708 m 1
 549 1355 l 1
 445 1355 l 1
 614 1708 l 1
 845 1708 l 1
EndSplineSet
EndChar

StartChar: otilde
Encoding: 245 245 449
Width: 1157
VWidth: 0
Flags: HW
LayerCount: 2
Fore
SplineSet
577 886 m 0
 783 886 868 719 868 497 c 0
 868 279 784 112 577 112 c 0
 370 112 286 279 286 497 c 0
 286 719 371 886 577 886 c 0
577 -21 m 0
 862 -21 1043 200 1043 499 c 0
 1043 804 872 1019 577 1019 c 0
 282 1019 111 804 111 499 c 0
 111 200 292 -21 577 -21 c 0
391 1168 m 1
 293 1168 l 1
 293 1304 353 1367 450 1367 c 0
 563 1367 719 1281 719 1281 c 1
 755 1284 758 1329 761 1367 c 1
 861 1367 l 1
 861 1242 820 1168 724 1168 c 0
 642 1168 440 1256 440 1256 c 1
 410 1255 394 1218 391 1168 c 1
EndSplineSet
EndChar

StartChar: p
Encoding: 112 112 450
Width: 1166
VWidth: 0
Flags: HW
LayerCount: 2
Fore
SplineSet
619 107 m 0
 810 107 906 261 906 500 c 0
 906 734 814 890 620 890 c 0
 414 890 324 746 324 516 c 0
 324 257 419 107 619 107 c 0
149 998 m 1
 307 998 l 1
 324 835 l 1
 377 960 505 1019 642 1019 c 0
 921 1019 1081 800 1081 494 c 0
 1081 196 903 -21 643 -21 c 0
 511 -21 375 48 319 154 c 1
 323 88 324 7 324 -55 c 2
 324 -423 l 1
 149 -433 l 1
 149 998 l 1
EndSplineSet
EndChar

StartChar: paragraph
Encoding: 182 182 451
Width: 1043
VWidth: 0
Flags: HW
LayerCount: 2
Fore
SplineSet
557 -144 m 1
 443 -144 l 1
 443 771 l 1
 241 775 97 940 97 1103 c 0
 97 1263 211 1421 505 1421 c 2
 929 1421 l 1
 929 1301 l 1
 861 1301 l 1
 861 -144 l 1
 756 -144 l 1
 756 1301 l 1
 557 1301 l 1
 557 -144 l 1
EndSplineSet
EndChar

StartChar: parenleft
Encoding: 40 40 452
Width: 595
VWidth: 0
Flags: HW
LayerCount: 2
Fore
SplineSet
508 -247 m 1
 369 -247 l 1
 215 -35 118 246 118 544 c 0
 118 850 210 1124 367 1352 c 1
 508 1352 l 1
 355 1114 273 836 273 548 c 0
 273 274 360 -19 508 -247 c 1
EndSplineSet
EndChar

StartChar: parenright
Encoding: 41 41 453
Width: 598
VWidth: 0
Flags: HW
LayerCount: 2
Fore
SplineSet
228 -247 m 1
 89 -247 l 1
 236 -20 324 273 324 548 c 0
 324 836 241 1114 88 1352 c 1
 229 1352 l 1
 385 1123 479 848 479 544 c 0
 479 245 381 -35 228 -247 c 1
EndSplineSet
EndChar

StartChar: partialdiff
Encoding: 8706 8706 454
Width: 1105
VWidth: 0
Flags: HW
LayerCount: 2
Fore
SplineSet
477 108 m 0
 674 108 805 349 834 642 c 1
 802 752 717 851 586 851 c 0
 397 851 249 648 249 410 c 0
 249 228 338 108 477 108 c 0
476 -25 m 0
 225 -25 115 165 115 411 c 0
 115 733 300 980 563 980 c 0
 688 980 784 923 846 820 c 1
 846 837 847 867 847 892 c 0
 847 1188 741 1371 544 1371 c 0
 451 1371 359 1330 286 1279 c 1
 274 1413 l 1
 350 1465 454 1503 566 1503 c 0
 837 1503 985 1293 985 834 c 0
 985 412 835 -25 476 -25 c 0
EndSplineSet
EndChar

StartChar: percent
Encoding: 37 37 455
Width: 1657
VWidth: 0
Flags: HW
LayerCount: 2
Fore
SplineSet
1272 -14 m 0
 1062 -14 952 139 952 336 c 0
 952 534 1065 686 1272 686 c 0
 1483 686 1593 537 1593 336 c 0
 1593 139 1480 -14 1272 -14 c 0
1272 89 m 0
 1408 89 1478 208 1478 336 c 0
 1478 469 1407 582 1272 582 c 0
 1136 582 1067 464 1067 336 c 0
 1067 203 1137 89 1272 89 c 0
335 -4 m 1
 1058 1330 l 1
 1206 1330 l 1
 458 -4 l 1
 335 -4 l 1
352 662 m 0
 174 662 64 808 64 1005 c 0
 64 1203 175 1355 352 1355 c 0
 530 1355 643 1206 643 1005 c 0
 643 808 529 662 352 662 c 0
352 768 m 0
 468 768 526 878 526 1005 c 0
 526 1138 465 1254 352 1254 c 0
 236 1254 179 1133 179 1005 c 0
 179 871 238 768 352 768 c 0
EndSplineSet
EndChar

StartChar: period
Encoding: 46 46 456
Width: 478
VWidth: 0
Flags: HW
LayerCount: 2
Fore
SplineSet
239 -11 m 0
 159 -11 118 49 118 109 c 0
 118 169 158 229 239 229 c 0
 320 229 360 169 360 109 c 0
 360 49 320 -11 239 -11 c 0
EndSplineSet
EndChar

StartChar: periodcentered
Encoding: 183 183 457
Width: 372
VWidth: 0
Flags: HW
LayerCount: 2
Fore
SplineSet
107 511 m 1
 107 691 l 1
 260 691 l 1
 260 511 l 1
 107 511 l 1
EndSplineSet
EndChar

StartChar: perthousand
Encoding: 8240 8240 458
Width: 2129
VWidth: 0
Flags: HW
LayerCount: 2
Fore
SplineSet
1717 -27 m 0
 1519 -27 1421 113 1421 322 c 0
 1421 520 1519 669 1722 669 c 0
 1922 669 2018 535 2018 320 c 0
 2018 123 1918 -27 1717 -27 c 0
1722 85 m 0
 1843 85 1904 195 1904 322 c 0
 1904 452 1840 555 1720 555 c 0
 1596 555 1536 448 1536 322 c 0
 1536 188 1597 85 1722 85 c 0
1015 -27 m 0
 815 -27 717 113 717 322 c 0
 717 520 813 669 1017 669 c 0
 1221 669 1315 531 1315 320 c 0
 1315 123 1216 -27 1015 -27 c 0
1017 85 m 0
 1138 85 1198 197 1198 322 c 0
 1198 455 1141 555 1016 555 c 0
 895 555 836 448 836 322 c 0
 836 188 896 85 1017 85 c 0
246 -20 m 1
 1025 1408 l 1
 1168 1408 l 1
 369 -20 l 1
 246 -20 l 1
378 724 m 0
 205 724 108 865 108 1074 c 0
 108 1273 204 1419 379 1419 c 0
 556 1419 649 1283 649 1070 c 0
 649 873 550 724 378 724 c 0
381 836 m 0
 482 836 532 946 532 1072 c 0
 532 1206 483 1309 378 1309 c 0
 275 1309 226 1200 226 1074 c 0
 226 940 275 836 381 836 c 0
EndSplineSet
EndChar

StartChar: phi
Encoding: 966 966 459
Width: 451
VWidth: 0
Flags: HW
LayerCount: 2
Fore
SplineSet
223 484 m 0
 143 484 102 544 102 604 c 0
 102 664 143 724 223 724 c 0
 304 724 344 664 344 604 c 0
 344 544 304 484 223 484 c 0
EndSplineSet
EndChar

StartChar: pi
Encoding: 960 960 460
Width: 1253
VWidth: 0
Flags: HW
LayerCount: 2
Fore
SplineSet
1014 -7 m 0
 887 -7 846 72 846 274 c 2
 846 888 l 1
 477 888 l 1
 462 515 433 131 364 0 c 1
 229 0 l 1
 309 172 333 603 340 888 c 1
 243 885 177 868 118 829 c 1
 104 958 l 1
 158 1009 243 1019 386 1019 c 2
 1138 1019 l 1
 1138 888 l 1
 972 888 l 1
 972 284 l 2
 972 226 974 144 1052 144 c 0
 1069 144 1095 150 1121 157 c 1
 1121 5 l 1
 1080 -2 1046 -7 1014 -7 c 0
EndSplineSet
EndChar

StartChar: plus
Encoding: 43 43 461
Width: 1052
VWidth: 0
Flags: HW
LayerCount: 2
Fore
SplineSet
465 653 m 1
 465 1039 l 1
 590 1039 l 1
 590 653 l 1
 945 653 l 1
 945 530 l 1
 589 530 l 1
 589 139 l 1
 464 139 l 1
 464 530 l 1
 103 530 l 1
 103 653 l 1
 465 653 l 1
EndSplineSet
EndChar

StartChar: plusminus
Encoding: 177 177 462
Width: 1126
VWidth: 0
Flags: HW
LayerCount: 2
Fore
SplineSet
122 0 m 1
 122 130 l 1
 1005 130 l 1
 1005 0 l 1
 122 0 l 1
499 719 m 1
 499 1097 l 1
 622 1097 l 1
 622 719 l 1
 1003 719 l 1
 1003 589 l 1
 624 589 l 1
 624 212 l 1
 500 212 l 1
 500 589 l 1
 122 589 l 1
 122 719 l 1
 499 719 l 1
EndSplineSet
EndChar

StartChar: product
Encoding: 8719 8719 463
Width: 1335
VWidth: 0
Flags: HW
LayerCount: 2
Fore
SplineSet
1039 0 m 1
 1039 1221 l 1
 298 1221 l 1
 298 0 l 1
 136 0 l 1
 136 1361 l 1
 1200 1361 l 1
 1200 0 l 1
 1039 0 l 1
EndSplineSet
EndChar

StartChar: psi
Encoding: 968 968 464
Width: 451
VWidth: 0
Flags: HW
LayerCount: 2
Fore
SplineSet
223 484 m 0
 143 484 102 544 102 604 c 0
 102 664 143 724 223 724 c 0
 304 724 344 664 344 604 c 0
 344 544 304 484 223 484 c 0
EndSplineSet
EndChar

StartChar: q
Encoding: 113 113 465
Width: 1157
VWidth: 0
Flags: HW
LayerCount: 2
Fore
SplineSet
551 107 m 0
 360 107 260 261 260 500 c 0
 260 734 357 890 551 890 c 0
 757 890 843 746 843 516 c 0
 843 257 766 107 551 107 c 0
1017 998 m 1
 860 998 l 1
 843 835 l 1
 788 953 661 1019 524 1019 c 0
 245 1019 86 800 86 494 c 0
 86 196 263 -21 523 -21 c 0
 655 -21 781 43 847 136 c 1
 843 70 843 7 843 -55 c 2
 843 -433 l 1
 1017 -423 l 1
 1017 998 l 1
EndSplineSet
EndChar

StartChar: question
Encoding: 63 63 466
Width: 819
VWidth: 0
Flags: HW
LayerCount: 2
Fore
SplineSet
359 -11 m 0
 279 -11 238 49 238 109 c 0
 238 169 279 229 359 229 c 0
 440 229 480 169 480 109 c 0
 480 49 440 -11 359 -11 c 0
386 396 m 1
 307 396 l 1
 307 608 566 900 566 1079 c 1
 564 1199 482 1249 361 1249 c 0
 252 1249 170 1203 126 1176 c 1
 85 1299 l 1
 167 1364 285 1387 386 1387 c 0
 577 1387 714 1281 714 1092 c 0
 714 844 522 701 386 396 c 1
EndSplineSet
EndChar

StartChar: questiondown
Encoding: 191 191 467
Width: 832
VWidth: 0
Flags: HW
LayerCount: 2
Fore
SplineSet
462 1387 m 0
 542 1387 583 1327 583 1267 c 0
 583 1207 542 1147 462 1147 c 0
 381 1147 341 1207 341 1267 c 0
 341 1327 381 1387 462 1387 c 0
436 980 m 1
 515 980 l 1
 515 768 256 476 256 297 c 1
 258 177 339 126 460 126 c 0
 569 126 652 173 696 200 c 1
 737 77 l 1
 655 12 537 -11 436 -11 c 0
 245 -11 107 95 107 284 c 0
 107 532 300 675 436 980 c 1
EndSplineSet
EndChar

StartChar: quotedbl
Encoding: 34 34 468
Width: 610
VWidth: 0
Flags: HW
LayerCount: 2
Fore
SplineSet
386 925 m 1
 367 1374 l 1
 504 1374 l 1
 478 925 l 1
 386 925 l 1
126 925 m 1
 106 1374 l 1
 244 1374 l 1
 217 925 l 1
 126 925 l 1
EndSplineSet
EndChar

StartChar: quotedblbase
Encoding: 8222 8222 469
Width: 717
VWidth: 0
Flags: HW
LayerCount: 2
Fore
SplineSet
379 -233 m 1
 461 197 l 1
 609 197 l 1
 486 -233 l 1
 379 -233 l 1
92 -233 m 1
 174 197 l 1
 320 197 l 1
 199 -233 l 1
 92 -233 l 1
EndSplineSet
EndChar

StartChar: quotedblleft
Encoding: 8220 8220 470
Width: 711
VWidth: 0
Flags: HW
LayerCount: 2
Fore
SplineSet
386 1003 m 1
 509 1432 l 1
 615 1432 l 1
 533 1003 l 1
 386 1003 l 1
105 1003 m 1
 227 1432 l 1
 336 1432 l 1
 250 1003 l 1
 105 1003 l 1
EndSplineSet
EndChar

StartChar: quotedblright
Encoding: 8221 8221 471
Width: 689
VWidth: 0
Flags: HW
LayerCount: 2
Fore
SplineSet
369 1003 m 1
 451 1432 l 1
 600 1432 l 1
 475 1003 l 1
 369 1003 l 1
107 1003 m 1
 192 1432 l 1
 337 1432 l 1
 214 1003 l 1
 107 1003 l 1
EndSplineSet
EndChar

StartChar: quoteleft
Encoding: 8216 8216 472
Width: 431
VWidth: 0
Flags: HW
LayerCount: 2
Fore
SplineSet
105 1003 m 1
 228 1432 l 1
 335 1432 l 1
 252 1003 l 1
 105 1003 l 1
EndSplineSet
EndChar

StartChar: quoteright
Encoding: 8217 8217 473
Width: 425
VWidth: 0
Flags: HW
LayerCount: 2
Fore
SplineSet
107 1003 m 1
 192 1432 l 1
 335 1432 l 1
 213 1003 l 1
 107 1003 l 1
EndSplineSet
EndChar

StartChar: quotesinglbase
Encoding: 8218 8218 474
Width: 431
VWidth: 0
Flags: HW
LayerCount: 2
Fore
SplineSet
92 -233 m 1
 176 197 l 1
 322 197 l 1
 200 -233 l 1
 92 -233 l 1
EndSplineSet
EndChar

StartChar: quotesingle
Encoding: 39 39 475
Width: 364
VWidth: 0
Flags: HW
LayerCount: 2
Fore
SplineSet
129 887 m 1
 110 1352 l 1
 252 1352 l 1
 234 887 l 1
 129 887 l 1
EndSplineSet
EndChar

StartChar: r
Encoding: 114 114 476
Width: 698
VWidth: 0
Flags: HW
LayerCount: 2
Fore
SplineSet
149 998 m 1
 298 998 l 1
 312 819 l 1
 378 928 490 1007 614 1007 c 0
 641 1007 666 1006 689 1002 c 1
 683 862 l 1
 657 867 633 869 611 869 c 0
 437 869 324 732 324 561 c 2
 324 0 l 1
 149 0 l 1
 149 998 l 1
EndSplineSet
EndChar

StartChar: racute
Encoding: 341 341 477
Width: 829
VWidth: 0
Flags: HW
LayerCount: 2
Fore
SplineSet
130 998 m 1
 278 998 l 1
 293 819 l 1
 359 928 471 1007 595 1007 c 0
 622 1007 647 1006 670 1002 c 1
 664 862 l 1
 638 867 614 869 592 869 c 0
 418 869 305 732 305 561 c 2
 305 0 l 1
 130 0 l 1
 130 998 l 1
747 1521 m 1
 452 1168 l 1
 349 1168 l 1
 518 1521 l 1
 747 1521 l 1
EndSplineSet
EndChar

StartChar: radical
Encoding: 8730 8730 478
Width: 1160
VWidth: 0
Flags: HW
LayerCount: 2
Fore
SplineSet
339 809 m 1
 558 209 l 1
 612 40 l 1
 735 548 858 1055 982 1563 c 1
 1085 1563 l 1
 684 -151 l 1
 558 -151 l 1
 255 676 l 1
 116 648 l 1
 102 758 l 1
 339 809 l 1
EndSplineSet
EndChar

StartChar: rcaron
Encoding: 345 345 479
Width: 786
VWidth: 0
Flags: HW
LayerCount: 2
Fore
SplineSet
135 998 m 1
 283 998 l 1
 298 819 l 1
 364 928 476 1007 600 1007 c 0
 627 1007 651 1006 674 1002 c 1
 669 862 l 1
 643 867 618 869 596 869 c 0
 422 869 309 732 309 561 c 2
 309 0 l 1
 135 0 l 1
 135 998 l 1
672 1521 m 1
 501 1168 l 1
 308 1168 l 1
 137 1521 l 1
 257 1521 l 1
 403 1237 l 1
 550 1521 l 1
 672 1521 l 1
EndSplineSet
EndChar

StartChar: rcommaaccent
Encoding: 343 343 480
Width: 778
VWidth: 0
Flags: HW
LayerCount: 2
Fore
SplineSet
130 998 m 1
 278 998 l 1
 293 819 l 1
 359 928 471 1007 595 1007 c 0
 622 1007 647 1006 670 1002 c 1
 664 862 l 1
 638 867 614 869 592 869 c 0
 418 869 305 732 305 561 c 2
 305 0 l 1
 130 0 l 1
 130 998 l 1
281 -602 m 1
 369 -148 l 1
 518 -148 l 1
 387 -602 l 1
 281 -602 l 1
EndSplineSet
EndChar

StartChar: registered
Encoding: 174 174 481
Width: 1671
VWidth: 0
Flags: HW
LayerCount: 2
Fore
SplineSet
828 -24 m 0
 471 -24 114 221 114 711 c 0
 114 1200 467 1443 824 1443 c 0
 1202 1443 1555 1198 1555 711 c 0
 1555 221 1206 -24 828 -24 c 0
828 61 m 0
 1238 61 1452 352 1452 708 c 0
 1452 1063 1236 1359 824 1359 c 0
 434 1359 217 1064 217 713 c 0
 217 354 434 61 828 61 c 0
672 1046 m 1
 672 767 l 1
 838 767 l 2
 973 767 1046 793 1046 909 c 0
 1046 1029 982 1046 829 1046 c 2
 672 1046 l 1
552 274 m 1
 552 1162 l 1
 838 1162 l 2
 1077 1162 1190 1077 1190 916 c 0
 1190 798 1133 691 954 669 c 1
 1038 603 1082 483 1208 274 c 1
 1073 274 l 1
 1013 381 921 589 839 652 c 1
 672 652 l 1
 672 274 l 1
 552 274 l 1
EndSplineSet
EndChar

StartChar: rho
Encoding: 961 961 482
Width: 1174
VWidth: 0
Flags: HW
LayerCount: 2
Fore
SplineSet
596 107 m 0
 787 107 887 261 887 500 c 0
 887 734 791 890 597 890 c 0
 391 890 305 746 305 516 c 0
 305 257 381 107 596 107 c 0
130 998 m 1
 288 998 l 1
 305 835 l 1
 360 953 486 1019 623 1019 c 0
 902 1019 1062 800 1062 494 c 0
 1062 196 884 -21 624 -21 c 0
 492 -21 366 43 300 136 c 1
 304 70 305 7 305 -55 c 2
 305 -423 l 1
 130 -433 l 1
 130 998 l 1
EndSplineSet
EndChar

StartChar: ring
Encoding: 730 730 483
Width: 576
VWidth: 0
Flags: HW
LayerCount: 2
Fore
SplineSet
293 1144 m 0
 198 1144 114 1207 114 1312 c 0
 114 1420 199 1491 291 1491 c 0
 386 1491 468 1414 468 1312 c 0
 468 1207 383 1144 293 1144 c 0
291 1210 m 0
 337 1210 379 1256 379 1312 c 0
 379 1368 341 1417 291 1417 c 0
 245 1417 201 1368 201 1312 c 0
 201 1251 235 1210 291 1210 c 0
EndSplineSet
EndChar

StartChar: s
Encoding: 115 115 484
Width: 798
VWidth: 0
Flags: HW
LayerCount: 2
Fore
SplineSet
394 -21 m 0
 251 -21 142 13 76 56 c 1
 116 187 l 1
 182 152 275 112 394 112 c 0
 533 112 605 162 605 262 c 0
 605 350 565 381 382 447 c 1
 314 473 l 1
 137 538 70 620 69 745 c 1
 69 896 186 1019 412 1019 c 0
 530 1019 620 996 709 954 c 1
 664 828 l 1
 587 860 508 886 412 886 c 0
 286 886 220 836 220 751 c 0
 220 672 259 642 404 593 c 0
 427 586 440 577 468 568 c 0
 670 502 747 420 747 269 c 1
 744 82 612 -21 394 -21 c 0
EndSplineSet
EndChar

StartChar: sacute
Encoding: 347 347 485
Width: 938
VWidth: 0
Flags: HW
LayerCount: 2
Fore
SplineSet
453 -21 m 0
 310 -21 192 14 126 57 c 1
 145 193 l 1
 211 158 324 112 443 112 c 0
 582 112 663 163 663 263 c 0
 663 351 624 381 441 447 c 2
 364 475 l 2
 187 540 120 622 119 747 c 1
 119 898 245 1019 471 1019 c 0
 589 1019 691 996 780 954 c 1
 735 828 l 1
 658 860 567 886 471 886 c 0
 345 886 284 837 284 752 c 0
 284 673 318 642 463 593 c 0
 486 586 511 577 539 568 c 0
 741 502 818 420 818 269 c 1
 815 82 671 -21 453 -21 c 0
816 1521 m 1
 521 1168 l 1
 417 1168 l 1
 586 1521 l 1
 816 1521 l 1
EndSplineSet
EndChar

StartChar: scaron
Encoding: 353 353 486
Width: 940
VWidth: 0
Flags: HW
LayerCount: 2
Fore
SplineSet
458 -21 m 0
 315 -21 196 14 130 57 c 1
 149 193 l 1
 215 158 329 112 448 112 c 0
 587 112 668 163 668 263 c 0
 668 351 629 381 446 447 c 2
 369 475 l 2
 192 540 125 622 124 747 c 1
 124 898 250 1019 476 1019 c 0
 594 1019 695 996 784 954 c 1
 740 828 l 1
 663 860 572 886 476 886 c 0
 350 886 288 837 288 752 c 0
 288 673 323 642 468 593 c 0
 491 586 515 577 543 568 c 0
 745 502 823 420 823 269 c 1
 820 82 676 -21 458 -21 c 0
740 1521 m 1
 571 1168 l 1
 376 1168 l 1
 207 1521 l 1
 325 1521 l 1
 472 1237 l 1
 618 1521 l 1
 740 1521 l 1
EndSplineSet
EndChar

StartChar: scedilla
Encoding: 351 351 487
Width: 931
VWidth: 0
Flags: HW
LayerCount: 2
Fore
SplineSet
507 -19 m 1
 468 -396 l 1
 328 -396 l 1
 426 -21 l 1
 295 -16 188 17 126 57 c 1
 145 193 l 1
 211 158 324 112 443 112 c 0
 582 112 663 163 663 263 c 0
 663 351 624 381 441 447 c 2
 364 475 l 2
 187 540 120 622 119 747 c 1
 119 898 245 1019 471 1019 c 0
 589 1019 691 996 780 954 c 1
 735 828 l 1
 658 860 567 886 471 886 c 0
 345 886 284 837 284 752 c 0
 284 673 318 642 463 593 c 0
 486 586 511 577 539 568 c 0
 741 502 818 420 818 269 c 1
 815 98 695 -4 507 -19 c 1
EndSplineSet
EndChar

StartChar: scircumflex
Encoding: 349 349 488
Width: 940
VWidth: 0
Flags: HW
LayerCount: 2
Fore
SplineSet
458 -21 m 0
 315 -21 196 14 130 57 c 1
 149 193 l 1
 215 158 329 112 448 112 c 0
 587 112 668 163 668 263 c 0
 668 351 629 381 446 447 c 2
 369 475 l 2
 192 540 125 622 124 747 c 1
 124 898 250 1019 476 1019 c 0
 594 1019 695 996 784 954 c 1
 740 828 l 1
 663 860 572 886 476 886 c 0
 350 886 288 837 288 752 c 0
 288 673 323 642 468 593 c 0
 491 586 515 577 543 568 c 0
 745 502 823 420 823 269 c 1
 820 82 676 -21 458 -21 c 0
472 1415 m 1
 325 1168 l 1
 207 1168 l 1
 376 1521 l 1
 571 1521 l 1
 740 1168 l 1
 618 1168 l 1
 472 1415 l 1
EndSplineSet
EndChar

StartChar: scommaaccent
Encoding: 537 537 489
Width: 931
VWidth: 0
Flags: HW
LayerCount: 2
Fore
SplineSet
453 -21 m 0
 310 -21 192 14 126 57 c 1
 145 193 l 1
 211 158 324 112 443 112 c 0
 582 112 663 163 663 263 c 0
 663 351 624 381 441 447 c 2
 364 475 l 2
 187 540 120 622 119 747 c 1
 119 898 245 1019 471 1019 c 0
 589 1019 691 996 780 954 c 1
 735 828 l 1
 658 860 567 886 471 886 c 0
 345 886 284 837 284 752 c 0
 284 673 318 642 463 593 c 0
 486 586 511 577 539 568 c 0
 741 502 818 420 818 269 c 1
 815 82 671 -21 453 -21 c 0
350 -622 m 1
 437 -169 l 1
 587 -169 l 1
 456 -622 l 1
 350 -622 l 1
EndSplineSet
EndChar

StartChar: section
Encoding: 167 167 490
Width: 927
VWidth: 0
Flags: HW
LayerCount: 2
Fore
SplineSet
481 548 m 1
 533 526 l 1
 605 570 663 626 663 699 c 0
 663 806 552 849 399 905 c 1
 327 874 268 817 268 740 c 0
 268 653 331 607 481 548 c 1
147 1189 m 0
 147 1361 300 1443 523 1443 c 0
 611 1443 681 1425 763 1392 c 1
 755 1347 747 1305 739 1260 c 1
 653 1299 576 1316 499 1316 c 0
 371 1316 291 1279 291 1193 c 0
 291 1117 346 1075 521 1006 c 1
 707 930 802 852 802 718 c 0
 802 610 741 522 656 468 c 1
 741 420 792 355 792 253 c 0
 792 74 637 -26 408 -26 c 0
 299 -26 207 -10 134 27 c 1
 134 168 l 1
 219 124 324 99 410 99 c 0
 562 99 647 156 647 242 c 0
 647 328 582 355 424 420 c 1
 223 497 130 575 130 725 c 0
 130 833 192 918 281 964 c 1
 196 1018 147 1081 147 1189 c 0
EndSplineSet
EndChar

StartChar: semicolon
Encoding: 59 59 491
Width: 451
VWidth: 0
Flags: HW
LayerCount: 2
Fore
SplineSet
142 813 m 1
 142 1023 l 1
 329 1023 l 1
 329 813 l 1
 142 813 l 1
109 -282 m 1
 160 179 l 1
 326 179 l 1
 212 -282 l 1
 109 -282 l 1
EndSplineSet
EndChar

StartChar: seven
Encoding: 55 55 492
Width: 955
VWidth: 0
Flags: HW
LayerCount: 2
Fore
SplineSet
879 1361 m 1
 879 1238 l 1
 392 0 l 1
 227 0 l 1
 694 1220 l 1
 80 1220 l 1
 90 1361 l 1
 879 1361 l 1
EndSplineSet
EndChar

StartChar: sigma
Encoding: 963 963 493
Width: 451
VWidth: 0
Flags: HW
LayerCount: 2
Fore
SplineSet
223 484 m 0
 143 484 102 544 102 604 c 0
 102 664 143 724 223 724 c 0
 304 724 344 664 344 604 c 0
 344 544 304 484 223 484 c 0
EndSplineSet
EndChar

StartChar: sigma1
Encoding: 962 962 494
Width: 451
VWidth: 0
Flags: HW
LayerCount: 2
Fore
SplineSet
223 484 m 0
 143 484 102 544 102 604 c 0
 102 664 143 724 223 724 c 0
 304 724 344 664 344 604 c 0
 344 544 304 484 223 484 c 0
EndSplineSet
EndChar

StartChar: six
Encoding: 54 54 495
Width: 1073
VWidth: 0
Flags: HW
LayerCount: 2
Fore
SplineSet
541 117 m 0
 728 117 829 249 829 406 c 0
 829 573 725 702 541 702 c 0
 339 702 259 569 259 412 c 0
 259 255 354 117 541 117 c 0
546 -21 m 0
 255 -21 87 184 87 430 c 0
 87 635 156 762 338 991 c 0
 415 1089 637 1355 637 1355 c 1
 847 1355 l 1
 369 784 l 1
 427 815 500 838 573 838 c 0
 802 838 1001 660 1001 409 c 0
 1001 166 824 -21 546 -21 c 0
EndSplineSet
EndChar

StartChar: slash
Encoding: 47 47 496
Width: 898
VWidth: 0
Flags: HW
LayerCount: 2
Fore
SplineSet
68 -198 m 1
 683 1334 l 1
 816 1334 l 1
 199 -198 l 1
 68 -198 l 1
EndSplineSet
EndChar

StartChar: sterling
Encoding: 163 163 498
Width: 1072
VWidth: 0
Flags: HW
LayerCount: 2
Fore
SplineSet
993 0 m 1
 108 0 l 1
 98 126 l 1
 222 172 266 264 266 409 c 2
 266 620 l 1
 96 620 l 1
 96 742 l 1
 266 742 l 1
 266 829 l 2
 266 1108 329 1368 654 1368 c 0
 790 1368 897 1318 979 1249 c 1
 908 1140 l 1
 828 1201 749 1235 655 1235 c 0
 478 1235 422 1104 422 904 c 2
 422 742 l 1
 795 742 l 1
 795 620 l 1
 422 620 l 1
 422 472 l 2
 422 325 407 213 311 139 c 1
 341 141 368 144 397 144 c 2
 993 144 l 1
 993 0 l 1
EndSplineSet
EndChar

StartChar: summation
Encoding: 8721 8721 499
Width: 1183
VWidth: 0
Flags: HW
LayerCount: 2
Fore
SplineSet
103 1394 m 1
 1067 1394 l 1
 1067 1255 l 1
 297 1255 l 1
 839 550 l 1
 274 -177 l 1
 1103 -177 l 1
 1103 -324 l 1
 83 -324 l 1
 83 -234 l 1
 647 542 l 1
 103 1301 l 1
 103 1394 l 1
EndSplineSet
EndChar

StartChar: t
Encoding: 116 116 500
Width: 718
VWidth: 0
Flags: HW
LayerCount: 2
Fore
SplineSet
489 -18 m 0
 289 -18 192 104 192 313 c 2
 192 885 l 1
 44 885 l 1
 50 986 l 1
 191 998 l 1
 243 1227 l 1
 367 1230 l 1
 367 998 l 1
 658 998 l 1
 658 885 l 1
 367 885 l 1
 367 313 l 2
 367 160 407 114 518 114 c 0
 553 114 609 122 654 139 c 1
 681 13 l 1
 619 -13 528 -18 489 -18 c 0
EndSplineSet
EndChar

StartChar: tau
Encoding: 964 964 501
Width: 451
VWidth: 0
Flags: HW
LayerCount: 2
Fore
SplineSet
223 484 m 0
 143 484 102 544 102 604 c 0
 102 664 143 724 223 724 c 0
 304 724 344 664 344 604 c 0
 344 544 304 484 223 484 c 0
EndSplineSet
EndChar

StartChar: tbar
Encoding: 359 359 502
Width: 815
VWidth: 0
Flags: HW
LayerCount: 2
Fore
SplineSet
528 -18 m 0
 285 -18 266 101 266 405 c 2
 266 581 l 1
 125 581 l 1
 125 695 l 1
 266 695 l 1
 266 892 l 1
 114 892 l 1
 126 999 l 1
 266 999 l 1
 306 1225 l 1
 419 1233 l 1
 419 999 l 1
 683 999 l 1
 683 892 l 1
 419 892 l 1
 419 695 l 1
 609 695 l 1
 609 581 l 1
 419 581 l 1
 419 334 l 2
 419 147 441 107 563 107 c 0
 580 107 617 112 687 117 c 1
 701 -6 l 1
 587 -16 559 -18 528 -18 c 0
EndSplineSet
EndChar

StartChar: tcaron
Encoding: 357 357 503
Width: 1263
VWidth: 0
Flags: HW
LayerCount: 2
Fore
SplineSet
533 -18 m 0
 333 -18 249 104 249 313 c 2
 249 885 l 1
 101 885 l 1
 107 986 l 1
 248 998 l 1
 300 1227 l 1
 424 1230 l 1
 424 998 l 1
 715 998 l 1
 715 885 l 1
 424 885 l 1
 424 313 l 2
 424 160 456 118 567 118 c 0
 602 118 662 123 712 130 c 1
 720 1 l 1
 648 -12 572 -18 533 -18 c 0
1170 1230 m 1
 1048 801 l 1
 943 801 l 1
 1026 1230 l 1
 1170 1230 l 1
EndSplineSet
EndChar

StartChar: tcommaaccent
Encoding: 539 539 504
Width: 920
VWidth: 0
Flags: W
LayerCount: 2
Fore
SplineSet
588 -20 m 0
 368 -20 276 114 276 344 c 2
 276 973 l 1
 113 973 l 1
 120 1083 l 1
 275 1097 l 1
 332 1348 l 1
 468 1352 l 1
 468 1097 l 1
 788 1097 l 1
 788 973 l 1
 468 973 l 1
 468 344 l 2
 468 176 503 130 625 130 c 0
 664 130 729 135 784 143 c 1
 793 1 l 1
 714 -13 631 -20 588 -20 c 0
374 -5 m 1
 330 -431 l 1
 176 -431 l 1
 288 -5 l 1
 374 -5 l 1
EndSplineSet
EndChar

StartChar: theta
Encoding: 952 952 505
Width: 451
VWidth: 0
Flags: HW
LayerCount: 2
Fore
SplineSet
223 484 m 0
 143 484 102 544 102 604 c 0
 102 664 143 724 223 724 c 0
 304 724 344 664 344 604 c 0
 344 544 304 484 223 484 c 0
EndSplineSet
EndChar

StartChar: thorn
Encoding: 254 254 506
Width: 1136
VWidth: 0
Flags: HW
LayerCount: 2
Fore
SplineSet
592 103 m 0
 805 103 866 327 866 501 c 0
 866 676 806 897 598 897 c 0
 392 897 288 710 288 501 c 0
 288 291 375 103 592 103 c 0
136 1374 m 1
 289 1374 l 1
 289 849 l 1
 367 965 473 1023 609 1023 c 1
 860 1021 1024 800 1024 510 c 0
 1024 244 889 -23 609 -23 c 0
 471 -23 357 31 289 147 c 1
 289 -418 l 1
 136 -418 l 1
 136 1374 l 1
EndSplineSet
EndChar

StartChar: three
Encoding: 51 51 507
Width: 953
VWidth: 0
Flags: HW
LayerCount: 2
Fore
SplineSet
702 375 m 0
 702 621 497 657 246 657 c 1
 246 793 l 1
 291 793 l 1
 482 798 653 832 653 1031 c 0
 653 1181 564 1249 403 1249 c 0
 278 1249 170 1209 98 1152 c 1
 47 1285 l 1
 130 1348 250 1388 438 1388 c 0
 639 1388 828 1269 828 1052 c 0
 828 877 736 771 589 725 c 1
 756 689 861 564 861 373 c 0
 861 130 667 -21 403 -21 c 0
 226 -21 98 37 47 85 c 1
 98 218 l 1
 166 164 267 117 404 117 c 0
 582 117 702 209 702 375 c 0
EndSplineSet
EndChar

StartChar: threequarters
Encoding: 190 190 508
Width: 1530
VWidth: 0
Flags: HW
LayerCount: 2
Fore
SplineSet
1227 656 m 1
 1000 329 l 1
 1224 329 l 1
 1224 496 1225 604 1227 656 c 1
314 0 m 1
 1149 1408 l 1
 1280 1408 l 1
 436 0 l 1
 314 0 l 1
1215 822 m 1
 1325 822 l 1
 1325 329 l 1
 1412 329 l 1
 1420 223 l 1
 1324 223 l 1
 1324 40 l 1
 1227 40 l 1
 1227 223 l 1
 870 223 l 1
 870 312 l 1
 1215 822 l 1
316 574 m 0
 240 574 170 607 118 669 c 1
 166 763 l 1
 212 712 260 685 311 685 c 0
 387 685 453 738 453 822 c 0
 453 918 385 952 279 952 c 2
 235 952 l 1
 235 1068 l 1
 275 1068 l 2
 367 1068 433 1098 433 1186 c 0
 433 1262 385 1296 319 1296 c 0
 261 1296 210 1264 164 1218 c 1
 118 1312 l 1
 167 1370 243 1413 320 1413 c 0
 433 1413 559 1330 559 1188 c 0
 559 1112 522 1048 456 1012 c 1
 532 976 577 913 577 818 c 0
 577 667 448 574 316 574 c 0
EndSplineSet
EndChar

StartChar: tilde
Encoding: 732 732 509
Width: 805
VWidth: 0
Flags: HW
LayerCount: 2
Fore
SplineSet
105 1175 m 1
 105 1311 164 1374 261 1374 c 0
 374 1374 530 1289 530 1289 c 1
 566 1292 569 1336 572 1374 c 1
 672 1374 l 1
 672 1249 632 1175 536 1175 c 0
 454 1175 252 1263 252 1263 c 1
 222 1262 205 1225 202 1175 c 1
 105 1175 l 1
EndSplineSet
EndChar

StartChar: tonos
Encoding: 900 900 510
Width: 425
VWidth: 0
Flags: HW
LayerCount: 2
Fore
SplineSet
216 484 m 0
 136 484 95 544 95 604 c 0
 95 664 136 724 216 724 c 0
 297 724 337 664 337 604 c 0
 337 544 297 484 216 484 c 0
EndSplineSet
EndChar

